  0
SECTION
  2
HEADER
  9
$ACADVER
  1
AC1024
  9
$ACADMAINTVER
 70
6
  9
$DWGCODEPAGE
  3
ANSI_1252
  9
$LASTSAVEDBY
  1
ezdxf
  9
$INSBASE
 10
0.0
 20
0.0
 30
0.0
  9
$EXTMIN
 10
1e+20
 20
1e+20
 30
1e+20
  9
$EXTMAX
 10
-1e+20
 20
-1e+20
 30
-1e+20
  9
$LIMMIN
 10
0.0
 20
0.0
  9
$LIMMAX
 10
420.0
 20
297.0
  9
$ORTHOMODE
 70
0
  9
$REGENMODE
 70
1
  9
$FILLMODE
 70
1
  9
$QTEXTMODE
 70
0
  9
$MIRRTEXT
 70
1
  9
$LTSCALE
 40
1.0
  9
$ATTMODE
 70
1
  9
$TEXTSIZE
 40
2.5
  9
$TRACEWID
 40
1.0
  9
$TEXTSTYLE
  7
Standard
  9
$CLAYER
  8
0
  9
$CELTYPE
  6
ByLayer
  9
$CECOLOR
 62
256
  9
$CELTSCALE
 40
1.0
  9
$DISPSILH
 70
0
  9
$DIMSCALE
 40
1.0
  9
$DIMASZ
 40
2.5
  9
$DIMEXO
 40
0.625
  9
$DIMDLI
 40
3.75
  9
$DIMRND
 40
0.0
  9
$DIMDLE
 40
0.0
  9
$DIMEXE
 40
1.25
  9
$DIMTP
 40
0.0
  9
$DIMTM
 40
0.0
  9
$DIMTXT
 40
2.5
  9
$DIMCEN
 40
2.5
  9
$DIMTSZ
 40
0.0
  9
$DIMTOL
 70
0
  9
$DIMLIM
 70
0
  9
$DIMTIH
 70
0
  9
$DIMTOH
 70
0
  9
$DIMSE1
 70
0
  9
$DIMSE2
 70
0
  9
$DIMTAD
 70
1
  9
$DIMZIN
 70
8
  9
$DIMBLK
  1

  9
$DIMASO
 70
1
  9
$DIMSHO
 70
1
  9
$DIMPOST
  1

  9
$DIMAPOST
  1

  9
$DIMALT
 70
0
  9
$DIMALTD
 70
3
  9
$DIMALTF
 40
0.03937007874
  9
$DIMLFAC
 40
1.0
  9
$DIMTOFL
 70
1
  9
$DIMTVP
 40
0.0
  9
$DIMTIX
 70
0
  9
$DIMSOXD
 70
0
  9
$DIMSAH
 70
0
  9
$DIMBLK1
  1

  9
$DIMBLK2
  1

  9
$DIMSTYLE
  2
ISO-25
  9
$DIMCLRD
 70
0
  9
$DIMCLRE
 70
0
  9
$DIMCLRT
 70
0
  9
$DIMTFAC
 40
1.0
  9
$DIMGAP
 40
0.625
  9
$DIMJUST
 70
0
  9
$DIMSD1
 70
0
  9
$DIMSD2
 70
0
  9
$DIMTOLJ
 70
0
  9
$DIMTZIN
 70
8
  9
$DIMALTZ
 70
0
  9
$DIMALTTZ
 70
0
  9
$DIMUPT
 70
0
  9
$DIMDEC
 70
2
  9
$DIMTDEC
 70
2
  9
$DIMALTU
 70
2
  9
$DIMALTTD
 70
3
  9
$DIMTXSTY
  7
Standard
  9
$DIMAUNIT
 70
0
  9
$DIMADEC
 70
0
  9
$DIMALTRND
 40
0.0
  9
$DIMAZIN
 70
0
  9
$DIMDSEP
 70
44
  9
$DIMATFIT
 70
3
  9
$DIMFRAC
 70
0
  9
$DIMLDRBLK
  1

  9
$DIMLUNIT
 70
2
  9
$DIMLWD
 70
-2
  9
$DIMLWE
 70
-2
  9
$DIMTMOVE
 70
0
  9
$DIMFXL
 40
1.0
  9
$DIMFXLON
 70
0
  9
$DIMJOGANG
 40
0.785398163397
  9
$DIMTFILL
 70
0
  9
$DIMTFILLCLR
 70
0
  9
$DIMARCSYM
 70
0
  9
$DIMLTYPE
  6

  9
$DIMLTEX1
  6

  9
$DIMLTEX2
  6

  9
$DIMTXTDIRECTION
 70
0
  9
$LUNITS
 70
2
  9
$LUPREC
 70
4
  9
$SKETCHINC
 40
1.0
  9
$FILLETRAD
 40
10.0
  9
$AUNITS
 70
0
  9
$AUPREC
 70
2
  9
$MENU
  1
.
  9
$ELEVATION
 40
0.0
  9
$PELEVATION
 40
0.0
  9
$THICKNESS
 40
0.0
  9
$LIMCHECK
 70
0
  9
$CHAMFERA
 40
0.0
  9
$CHAMFERB
 40
0.0
  9
$CHAMFERC
 40
0.0
  9
$CHAMFERD
 40
0.0
  9
$SKPOLY
 70
0
  9
$TDCREATE
 40
2460227.734016204
  9
$TDUCREATE
 40
2458532.153996898
  9
$TDUPDATE
 40
2460227.734016204
  9
$TDUUPDATE
 40
2458532.1544311
  9
$TDINDWG
 40
0.0
  9
$TDUSRTIMER
 40
0.0
  9
$USRTIMER
 70
1
  9
$ANGBASE
 50
0.0
  9
$ANGDIR
 70
0
  9
$PDMODE
 70
0
  9
$PDSIZE
 40
0.0
  9
$PLINEWID
 40
0.0
  9
$SPLFRAME
 70
0
  9
$SPLINETYPE
 70
6
  9
$SPLINESEGS
 70
8
  9
$HANDSEED
  5
278
  9
$SURFTAB1
 70
6
  9
$SURFTAB2
 70
6
  9
$SURFTYPE
 70
6
  9
$SURFU
 70
6
  9
$SURFV
 70
6
  9
$UCSBASE
  2

  9
$UCSNAME
  2

  9
$UCSORG
 10
0.0
 20
0.0
 30
0.0
  9
$UCSXDIR
 10
1.0
 20
0.0
 30
0.0
  9
$UCSYDIR
 10
0.0
 20
1.0
 30
0.0
  9
$UCSORTHOREF
  2

  9
$UCSORTHOVIEW
 70
0
  9
$UCSORGTOP
 10
0.0
 20
0.0
 30
0.0
  9
$UCSORGBOTTOM
 10
0.0
 20
0.0
 30
0.0
  9
$UCSORGLEFT
 10
0.0
 20
0.0
 30
0.0
  9
$UCSORGRIGHT
 10
0.0
 20
0.0
 30
0.0
  9
$UCSORGFRONT
 10
0.0
 20
0.0
 30
0.0
  9
$UCSORGBACK
 10
0.0
 20
0.0
 30
0.0
  9
$PUCSBASE
  2

  9
$PUCSNAME
  2

  9
$PUCSORG
 10
0.0
 20
0.0
 30
0.0
  9
$PUCSXDIR
 10
1.0
 20
0.0
 30
0.0
  9
$PUCSYDIR
 10
0.0
 20
1.0
 30
0.0
  9
$PUCSORTHOREF
  2

  9
$PUCSORTHOVIEW
 70
0
  9
$PUCSORGTOP
 10
0.0
 20
0.0
 30
0.0
  9
$PUCSORGBOTTOM
 10
0.0
 20
0.0
 30
0.0
  9
$PUCSORGLEFT
 10
0.0
 20
0.0
 30
0.0
  9
$PUCSORGRIGHT
 10
0.0
 20
0.0
 30
0.0
  9
$PUCSORGFRONT
 10
0.0
 20
0.0
 30
0.0
  9
$PUCSORGBACK
 10
0.0
 20
0.0
 30
0.0
  9
$USERI1
 70
0
  9
$USERI2
 70
0
  9
$USERI3
 70
0
  9
$USERI4
 70
0
  9
$USERI5
 70
0
  9
$USERR1
 40
0.0
  9
$USERR2
 40
0.0
  9
$USERR3
 40
0.0
  9
$USERR4
 40
0.0
  9
$USERR5
 40
0.0
  9
$WORLDVIEW
 70
1
  9
$SHADEDGE
 70
3
  9
$SHADEDIF
 70
70
  9
$TILEMODE
 70
1
  9
$MAXACTVP
 70
64
  9
$PINSBASE
 10
0.0
 20
0.0
 30
0.0
  9
$PLIMCHECK
 70
0
  9
$PEXTMIN
 10
1e+20
 20
1e+20
 30
1e+20
  9
$PEXTMAX
 10
-1e+20
 20
-1e+20
 30
-1e+20
  9
$PLIMMIN
 10
0.0
 20
0.0
  9
$PLIMMAX
 10
420.0
 20
297.0
  9
$UNITMODE
 70
0
  9
$VISRETAIN
 70
1
  9
$PLINEGEN
 70
0
  9
$PSLTSCALE
 70
1
  9
$TREEDEPTH
 70
3020
  9
$CMLSTYLE
  2
Standard
  9
$CMLJUST
 70
0
  9
$CMLSCALE
 40
20.0
  9
$PROXYGRAPHICS
 70
1
  9
$MEASUREMENT
 70
1
  9
$CELWEIGHT
370
-1
  9
$ENDCAPS
280
0
  9
$JOINSTYLE
280
0
  9
$LWDISPLAY
290
0
  9
$INSUNITS
 70
6
  9
$HYPERLINKBASE
  1

  9
$STYLESHEET
  1

  9
$XEDIT
290
1
  9
$CEPSNTYPE
380
0
  9
$PSTYLEMODE
290
1
  9
$FINGERPRINTGUID
  2
{4B8DFE7D-E6E9-4E6F-9C28-0D9B4DFBC28B}
  9
$VERSIONGUID
  2
{E4504BAE-11E5-4240-B05B-D273C78F2F5A}
  9
$EXTNAMES
290
1
  9
$PSVPSCALE
 40
0.0
  9
$OLESTARTUP
290
0
  9
$SORTENTS
280
127
  9
$INDEXCTL
280
0
  9
$HIDETEXT
280
1
  9
$XCLIPFRAME
280
0
  9
$HALOGAP
280
0
  9
$OBSCOLOR
 70
257
  9
$OBSLTYPE
280
0
  9
$INTERSECTIONDISPLAY
280
0
  9
$INTERSECTIONCOLOR
 70
257
  9
$DIMASSOC
280
2
  9
$PROJECTNAME
  1

  9
$CAMERADISPLAY
290
0
  9
$LENSLENGTH
 40
50.0
  9
$CAMERAHEIGHT
 40
0.0
  9
$STEPSPERSEC
 40
24.0
  9
$STEPSIZE
 40
100.0
  9
$3DDWFPREC
 40
2.0
  9
$PSOLWIDTH
 40
0.005
  9
$PSOLHEIGHT
 40
0.08
  9
$LOFTANG1
 40
1.570796326795
  9
$LOFTANG2
 40
1.570796326795
  9
$LOFTMAG1
 40
0.0
  9
$LOFTMAG2
 40
0.0
  9
$LOFTPARAM
 70
7
  9
$LOFTNORMALS
280
1
  9
$LATITUDE
 40
37.795
  9
$LONGITUDE
 40
-122.394
  9
$NORTHDIRECTION
 40
0.0
  9
$TIMEZONE
 70
-8000
  9
$LIGHTGLYPHDISPLAY
280
1
  9
$TILEMODELIGHTSYNCH
280
1
  9
$CMATERIAL
347
20
  9
$SOLIDHIST
280
0
  9
$SHOWHIST
280
1
  9
$DWFFRAME
280
2
  9
$DGNFRAME
280
2
  9
$REALWORLDSCALE
290
1
  9
$INTERFERECOLOR
 62
256
  9
$CSHADOW
280
0
  9
$SHADOWPLANELOCATION
 40
0.0
  0
ENDSEC
  0
SECTION
  2
CLASSES
  0
CLASS
  1
ACDBDICTIONARYWDFLT
  2
AcDbDictionaryWithDefault
  3
ObjectDBX Classes
 90
0
 91
0
280
0
281
0
  0
CLASS
  1
SUN
  2
AcDbSun
  3
SCENEOE
 90
1153
 91
0
280
0
281
0
  0
CLASS
  1
VISUALSTYLE
  2
AcDbVisualStyle
  3
ObjectDBX Classes
 90
4095
 91
0
280
0
281
0
  0
CLASS
  1
MATERIAL
  2
AcDbMaterial
  3
ObjectDBX Classes
 90
1153
 91
0
280
0
281
0
  0
CLASS
  1
SCALE
  2
AcDbScale
  3
ObjectDBX Classes
 90
1153
 91
0
280
0
281
0
  0
CLASS
  1
TABLESTYLE
  2
AcDbTableStyle
  3
ObjectDBX Classes
 90
4095
 91
0
280
0
281
0
  0
CLASS
  1
MLEADERSTYLE
  2
AcDbMLeaderStyle
  3
ACDB_MLEADERSTYLE_CLASS
 90
4095
 91
0
280
0
281
0
  0
CLASS
  1
DICTIONARYVAR
  2
AcDbDictionaryVar
  3
ObjectDBX Classes
 90
0
 91
0
280
0
281
0
  0
CLASS
  1
CELLSTYLEMAP
  2
AcDbCellStyleMap
  3
ObjectDBX Classes
 90
1152
 91
0
280
0
281
0
  0
CLASS
  1
MENTALRAYRENDERSETTINGS
  2
AcDbMentalRayRenderSettings
  3
SCENEOE
 90
1024
 91
0
280
0
281
0
  0
CLASS
  1
ACDBDETAILVIEWSTYLE
  2
AcDbDetailViewStyle
  3
ObjectDBX Classes
 90
1025
 91
0
280
0
281
0
  0
CLASS
  1
ACDBSECTIONVIEWSTYLE
  2
AcDbSectionViewStyle
  3
ObjectDBX Classes
 90
1025
 91
0
280
0
281
0
  0
CLASS
  1
RASTERVARIABLES
  2
AcDbRasterVariables
  3
ISM
 90
0
 91
0
280
0
281
0
  0
CLASS
  1
LAYOUT
  2
AcDbLayout
  3
ObjectDBX Classes
 90
0
 91
0
280
0
281
0
  0
CLASS
  1
ACDBPLACEHOLDER
  2
AcDbPlaceHolder
  3
ObjectDBX Classes
 90
0
 91
0
280
0
281
0
  0
ENDSEC
  0
SECTION
  2
TABLES
  0
TABLE
  2
VPORT
  5
8
330
0
100
AcDbSymbolTable
 70
1
  0
VPORT
  5
23
330
8
100
AcDbSymbolTableRecord
100
AcDbViewportTableRecord
  2
*Active
 70
0
 10
0.0
 20
0.0
 11
1.0
 21
1.0
 12
0.0
 22
0.0
 13
0.0
 23
0.0
 14
0.5
 24
0.5
 15
0.5
 25
0.5
 16
0.0
 26
0.0
 36
1.0
 17
0.0
 27
0.0
 37
0.0
 40
1000.0
 41
1.34
 42
50.0
 43
0.0
 44
0.0
 50
0.0
 51
0.0
 71
0
 72
1000
 73
1
 74
3
 75
0
 76
0
 77
0
 78
0
281
0
 65
0
146
0.0
  0
ENDTAB
  0
TABLE
  2
LTYPE
  5
2
330
0
100
AcDbSymbolTable
 70
3
  0
LTYPE
  5
24
330
2
100
AcDbSymbolTableRecord
100
AcDbLinetypeTableRecord
  2
ByBlock
 70
0
  3

 72
65
 73
0
 40
0.0
  0
LTYPE
  5
25
330
2
100
AcDbSymbolTableRecord
100
AcDbLinetypeTableRecord
  2
ByLayer
 70
0
  3

 72
65
 73
0
 40
0.0
  0
LTYPE
  5
26
330
2
100
AcDbSymbolTableRecord
100
AcDbLinetypeTableRecord
  2
Continuous
 70
0
  3

 72
65
 73
0
 40
0.0
  0
ENDTAB
  0
TABLE
  2
LAYER
  5
1
330
0
100
AcDbSymbolTable
 70
2
  0
LAYER
  5
27
330
1
100
AcDbSymbolTableRecord
100
AcDbLayerTableRecord
  2
0
 70
0
 62
7
  6
Continuous
370
-3
390
13
347
21
  0
LAYER
  5
28
330
1
100
AcDbSymbolTableRecord
100
AcDbLayerTableRecord
  2
Defpoints
 70
0
 62
7
  6
Continuous
290
0
370
-3
390
13
347
21
  0
ENDTAB
  0
TABLE
  2
STYLE
  5
5
330
0
100
AcDbSymbolTable
 70
1
  0
STYLE
  5
29
330
5
100
AcDbSymbolTableRecord
100
AcDbTextStyleTableRecord
  2
Standard
 70
0
 40
0.0
 41
1.0
 50
0.0
 71
0
 42
2.5
  3
txt
  4

  0
ENDTAB
  0
TABLE
  2
VIEW
  5
7
330
0
100
AcDbSymbolTable
 70
0
  0
ENDTAB
  0
TABLE
  2
UCS
  5
6
330
0
100
AcDbSymbolTable
 70
0
  0
ENDTAB
  0
TABLE
  2
APPID
  5
3
330
0
100
AcDbSymbolTable
 70
3
  0
APPID
  5
2A
330
3
100
AcDbSymbolTableRecord
100
AcDbRegAppTableRecord
  2
ACAD
 70
0
  0
APPID
  5
275
330
3
100
AcDbSymbolTableRecord
100
AcDbRegAppTableRecord
  2
HATCHBACKGROUNDCOLOR
 70
0
  0
APPID
  5
276
330
3
100
AcDbSymbolTableRecord
100
AcDbRegAppTableRecord
  2
EZDXF
 70
0
  0
ENDTAB
  0
TABLE
  2
DIMSTYLE
  5
4
330
0
100
AcDbSymbolTable
 70
1
100
AcDbDimStyleTable
  0
DIMSTYLE
105
2B
330
4
100
AcDbSymbolTableRecord
100
AcDbDimStyleTableRecord
  2
Standard
 70
0
 40
1.0
 41
2.5
 42
0.625
 43
3.75
 44
1.25
 45
0.0
 46
0.0
 47
0.0
 48
0.0
 49
2.5
140
2.5
141
2.5
142
0.0
143
0.03937007874
144
1.0
145
0.0
146
1.0
147
0.625
148
0.0
 69
0
 70
0
 71
0
 72
0
 73
0
 74
0
 75
0
 76
0
 77
1
 78
8
 79
3
170
0
171
3
172
1
173
0
174
0
175
0
176
0
177
0
178
0
179
2
271
2
272
2
273
2
274
3
275
0
276
0
277
2
278
44
279
0
280
0
281
0
282
0
283
0
284
8
285
0
286
0
288
0
289
3
290
0
371
-2
372
-2
  0
ENDTAB
  0
TABLE
  2
BLOCK_RECORD
  5
9
330
0
100
AcDbSymbolTable
 70
37
  0
BLOCK_RECORD
  5
17
330
9
100
AcDbSymbolTableRecord
100
AcDbBlockTableRecord
  2
*Model_Space
340
1A
 70
0
280
1
281
0
  0
BLOCK_RECORD
  5
1B
330
9
100
AcDbSymbolTableRecord
100
AcDbBlockTableRecord
  2
*Paper_Space
340
1E
 70
0
280
1
281
0
  0
BLOCK_RECORD
  5
31
330
9
100
AcDbSymbolTableRecord
100
AcDbBlockTableRecord
  2
*D1
340
0
 70
0
280
1
281
0
  0
BLOCK_RECORD
  5
36
330
9
100
AcDbSymbolTableRecord
100
AcDbBlockTableRecord
  2
_CLOSEDFILLED
340
0
 70
0
280
1
281
0
  0
BLOCK_RECORD
  5
46
330
9
100
AcDbSymbolTableRecord
100
AcDbBlockTableRecord
  2
*D2
340
0
 70
0
280
1
281
0
  0
BLOCK_RECORD
  5
57
330
9
100
AcDbSymbolTableRecord
100
AcDbBlockTableRecord
  2
*D3
340
0
 70
0
280
1
281
0
  0
BLOCK_RECORD
  5
68
330
9
100
AcDbSymbolTableRecord
100
AcDbBlockTableRecord
  2
*D4
340
0
 70
0
280
1
281
0
  0
BLOCK_RECORD
  5
79
330
9
100
AcDbSymbolTableRecord
100
AcDbBlockTableRecord
  2
*D5
340
0
 70
0
280
1
281
0
  0
BLOCK_RECORD
  5
8A
330
9
100
AcDbSymbolTableRecord
100
AcDbBlockTableRecord
  2
*D6
340
0
 70
0
280
1
281
0
  0
BLOCK_RECORD
  5
9B
330
9
100
AcDbSymbolTableRecord
100
AcDbBlockTableRecord
  2
*D7
340
0
 70
0
280
1
281
0
  0
BLOCK_RECORD
  5
AC
330
9
100
AcDbSymbolTableRecord
100
AcDbBlockTableRecord
  2
*D8
340
0
 70
0
280
1
281
0
  0
BLOCK_RECORD
  5
BD
330
9
100
AcDbSymbolTableRecord
100
AcDbBlockTableRecord
  2
*D9
340
0
 70
0
280
1
281
0
  0
BLOCK_RECORD
  5
CE
330
9
100
AcDbSymbolTableRecord
100
AcDbBlockTableRecord
  2
*D10
340
0
 70
0
280
1
281
0
  0
BLOCK_RECORD
  5
DF
330
9
100
AcDbSymbolTableRecord
100
AcDbBlockTableRecord
  2
*D11
340
0
 70
0
280
1
281
0
  0
BLOCK_RECORD
  5
F0
330
9
100
AcDbSymbolTableRecord
100
AcDbBlockTableRecord
  2
*D12
340
0
 70
0
280
1
281
0
  0
BLOCK_RECORD
  5
101
330
9
100
AcDbSymbolTableRecord
100
AcDbBlockTableRecord
  2
*D13
340
0
 70
0
280
1
281
0
  0
BLOCK_RECORD
  5
112
330
9
100
AcDbSymbolTableRecord
100
AcDbBlockTableRecord
  2
*D14
340
0
 70
0
280
1
281
0
  0
BLOCK_RECORD
  5
123
330
9
100
AcDbSymbolTableRecord
100
AcDbBlockTableRecord
  2
*D15
340
0
 70
0
280
1
281
0
  0
BLOCK_RECORD
  5
134
330
9
100
AcDbSymbolTableRecord
100
AcDbBlockTableRecord
  2
*D16
340
0
 70
0
280
1
281
0
  0
BLOCK_RECORD
  5
145
330
9
100
AcDbSymbolTableRecord
100
AcDbBlockTableRecord
  2
*D17
340
0
 70
0
280
1
281
0
  0
BLOCK_RECORD
  5
156
330
9
100
AcDbSymbolTableRecord
100
AcDbBlockTableRecord
  2
*D18
340
0
 70
0
280
1
281
0
  0
BLOCK_RECORD
  5
167
330
9
100
AcDbSymbolTableRecord
100
AcDbBlockTableRecord
  2
*D19
340
0
 70
0
280
1
281
0
  0
BLOCK_RECORD
  5
178
330
9
100
AcDbSymbolTableRecord
100
AcDbBlockTableRecord
  2
*D20
340
0
 70
0
280
1
281
0
  0
BLOCK_RECORD
  5
189
330
9
100
AcDbSymbolTableRecord
100
AcDbBlockTableRecord
  2
*D21
340
0
 70
0
280
1
281
0
  0
BLOCK_RECORD
  5
19A
330
9
100
AcDbSymbolTableRecord
100
AcDbBlockTableRecord
  2
*D22
340
0
 70
0
280
1
281
0
  0
BLOCK_RECORD
  5
1AB
330
9
100
AcDbSymbolTableRecord
100
AcDbBlockTableRecord
  2
*D23
340
0
 70
0
280
1
281
0
  0
BLOCK_RECORD
  5
1BC
330
9
100
AcDbSymbolTableRecord
100
AcDbBlockTableRecord
  2
*D24
340
0
 70
0
280
1
281
0
  0
BLOCK_RECORD
  5
1CD
330
9
100
AcDbSymbolTableRecord
100
AcDbBlockTableRecord
  2
*D25
340
0
 70
0
280
1
281
0
  0
BLOCK_RECORD
  5
1DE
330
9
100
AcDbSymbolTableRecord
100
AcDbBlockTableRecord
  2
*D26
340
0
 70
0
280
1
281
0
  0
BLOCK_RECORD
  5
1EF
330
9
100
AcDbSymbolTableRecord
100
AcDbBlockTableRecord
  2
*D27
340
0
 70
0
280
1
281
0
  0
BLOCK_RECORD
  5
200
330
9
100
AcDbSymbolTableRecord
100
AcDbBlockTableRecord
  2
*D28
340
0
 70
0
280
1
281
0
  0
BLOCK_RECORD
  5
211
330
9
100
AcDbSymbolTableRecord
100
AcDbBlockTableRecord
  2
*D29
340
0
 70
0
280
1
281
0
  0
BLOCK_RECORD
  5
222
330
9
100
AcDbSymbolTableRecord
100
AcDbBlockTableRecord
  2
*D30
340
0
 70
0
280
1
281
0
  0
BLOCK_RECORD
  5
233
330
9
100
AcDbSymbolTableRecord
100
AcDbBlockTableRecord
  2
*D31
340
0
 70
0
280
1
281
0
  0
BLOCK_RECORD
  5
244
330
9
100
AcDbSymbolTableRecord
100
AcDbBlockTableRecord
  2
*D32
340
0
 70
0
280
1
281
0
  0
BLOCK_RECORD
  5
255
330
9
100
AcDbSymbolTableRecord
100
AcDbBlockTableRecord
  2
*D33
340
0
 70
0
280
1
281
0
  0
BLOCK_RECORD
  5
266
330
9
100
AcDbSymbolTableRecord
100
AcDbBlockTableRecord
  2
*D34
340
0
 70
0
280
1
281
0
  0
ENDTAB
  0
ENDSEC
  0
SECTION
  2
BLOCKS
  0
BLOCK
  5
18
330
17
100
AcDbEntity
  8
0
100
AcDbBlockBegin
  2
*Model_Space
 70
0
 10
0.0
 20
0.0
 30
0.0
  3
*Model_Space
  1

  0
ENDBLK
  5
19
330
17
100
AcDbEntity
  8
0
100
AcDbBlockEnd
  0
BLOCK
  5
1C
330
1B
100
AcDbEntity
  8
0
100
AcDbBlockBegin
  2
*Paper_Space
 70
0
 10
0.0
 20
0.0
 30
0.0
  3
*Paper_Space
  1

  0
ENDBLK
  5
1D
330
1B
100
AcDbEntity
  8
0
100
AcDbBlockEnd
  0
BLOCK
  5
32
330
31
100
AcDbEntity
  8
0
100
AcDbBlockBegin
  2
*D1
 70
1
 10
0.0
 20
0.0
 30
0.0
  3
*D1
  1

  0
LINE
  5
34
330
31
100
AcDbEntity
  8
0
100
AcDbLine
 10
75.0
 20
95.0
 30
0.0
 11
75.0
 21
99.0
 31
0.0
  0
LINE
  5
35
330
31
100
AcDbEntity
  8
0
100
AcDbLine
 10
159.99999999999994
 20
95.0
 30
0.0
 11
159.99999999999994
 21
99.0
 31
0.0
  0
INSERT
  5
3A
330
31
100
AcDbEntity
  8
0
100
AcDbBlockReference
  2
_CLOSEDFILLED
 10
75.0
 20
99.0
 30
0.0
 50
180.0
  0
INSERT
  5
3C
330
31
100
AcDbEntity
  8
0
100
AcDbBlockReference
  2
_CLOSEDFILLED
 10
159.99999999999994
 20
99.0
 30
0.0
  0
LINE
  5
3E
330
31
100
AcDbEntity
  8
0
100
AcDbLine
 10
76.0
 20
99.0
 30
0.0
 11
116.49999999999997
 21
99.0
 31
0.0
  0
LINE
  5
3F
330
31
100
AcDbEntity
  8
0
100
AcDbLine
 10
118.49999999999997
 20
99.0
 30
0.0
 11
158.99999999999994
 21
99.0
 31
0.0
  0
MTEXT
  5
40
330
31
100
AcDbEntity
  8
0
100
AcDbMText
 10
117.49999999999997
 20
99.0
 30
0.0
 40
1.0
 71
5
  1
85
  0
POINT
  5
41
330
31
100
AcDbEntity
  8
Defpoints
100
AcDbPoint
 10
75.0
 20
99.0
 30
0.0
  0
POINT
  5
42
330
31
100
AcDbEntity
  8
Defpoints
100
AcDbPoint
 10
75.0
 20
95.0
 30
0.0
  0
POINT
  5
43
330
31
100
AcDbEntity
  8
Defpoints
100
AcDbPoint
 10
159.99999999999994
 20
95.0
 30
0.0
  0
ENDBLK
  5
33
330
31
100
AcDbEntity
  8
0
100
AcDbBlockEnd
  0
BLOCK
  5
37
330
36
100
AcDbEntity
  8
0
100
AcDbBlockBegin
  2
_CLOSEDFILLED
 70
0
 10
0.0
 20
0.0
 30
0.0
  3
_CLOSEDFILLED
  1

  0
SOLID
  5
39
330
36
100
AcDbEntity
  8
0
  6
BYBLOCK
 62
0
100
AcDbTrace
 10
-1.0
 20
0.1643989837240255
 30
0.0
 11
0.0
 21
0.0
 31
0.0
 12
-1.0
 22
-0.1643989837240255
 32
0.0
 13
-1.0
 23
-0.1643989837240255
 33
0.0
  0
ENDBLK
  5
38
330
36
100
AcDbEntity
  8
0
100
AcDbBlockEnd
  0
BLOCK
  5
47
330
46
100
AcDbEntity
  8
0
100
AcDbBlockBegin
  2
*D2
 70
1
 10
0.0
 20
0.0
 30
0.0
  3
*D2
  1

  0
LINE
  5
49
330
46
100
AcDbEntity
  8
0
100
AcDbLine
 10
214.0
 20
95.0
 30
0.0
 11
214.0
 21
99.0
 31
0.0
  0
LINE
  5
4A
330
46
100
AcDbEntity
  8
0
100
AcDbLine
 10
261.0
 20
95.0
 30
0.0
 11
261.0
 21
99.0
 31
0.0
  0
INSERT
  5
4B
330
46
100
AcDbEntity
  8
0
100
AcDbBlockReference
  2
_CLOSEDFILLED
 10
214.0
 20
99.0
 30
0.0
 50
180.0
  0
INSERT
  5
4D
330
46
100
AcDbEntity
  8
0
100
AcDbBlockReference
  2
_CLOSEDFILLED
 10
261.0
 20
99.0
 30
0.0
  0
LINE
  5
4F
330
46
100
AcDbEntity
  8
0
100
AcDbLine
 10
215.0
 20
99.0
 30
0.0
 11
236.5
 21
99.0
 31
0.0
  0
LINE
  5
50
330
46
100
AcDbEntity
  8
0
100
AcDbLine
 10
238.5
 20
99.0
 30
0.0
 11
260.0
 21
99.0
 31
0.0
  0
MTEXT
  5
51
330
46
100
AcDbEntity
  8
0
100
AcDbMText
 10
237.5
 20
99.0
 30
0.0
 40
1.0
 71
5
  1
47
  0
POINT
  5
52
330
46
100
AcDbEntity
  8
Defpoints
100
AcDbPoint
 10
214.0
 20
99.0
 30
0.0
  0
POINT
  5
53
330
46
100
AcDbEntity
  8
Defpoints
100
AcDbPoint
 10
214.0
 20
95.0
 30
0.0
  0
POINT
  5
54
330
46
100
AcDbEntity
  8
Defpoints
100
AcDbPoint
 10
261.0
 20
95.0
 30
0.0
  0
ENDBLK
  5
48
330
46
100
AcDbEntity
  8
0
100
AcDbBlockEnd
  0
BLOCK
  5
58
330
57
100
AcDbEntity
  8
0
100
AcDbBlockBegin
  2
*D3
 70
1
 10
0.0
 20
0.0
 30
0.0
  3
*D3
  1

  0
LINE
  5
5A
330
57
100
AcDbEntity
  8
0
100
AcDbLine
 10
273.0
 20
95.0
 30
0.0
 11
273.0
 21
99.0
 31
0.0
  0
LINE
  5
5B
330
57
100
AcDbEntity
  8
0
100
AcDbLine
 10
313.0
 20
95.0
 30
0.0
 11
313.0
 21
99.0
 31
0.0
  0
INSERT
  5
5C
330
57
100
AcDbEntity
  8
0
100
AcDbBlockReference
  2
_CLOSEDFILLED
 10
273.0
 20
99.0
 30
0.0
 50
180.0
  0
INSERT
  5
5E
330
57
100
AcDbEntity
  8
0
100
AcDbBlockReference
  2
_CLOSEDFILLED
 10
313.0
 20
99.0
 30
0.0
  0
LINE
  5
60
330
57
100
AcDbEntity
  8
0
100
AcDbLine
 10
274.0
 20
99.0
 30
0.0
 11
292.0
 21
99.0
 31
0.0
  0
LINE
  5
61
330
57
100
AcDbEntity
  8
0
100
AcDbLine
 10
294.0
 20
99.0
 30
0.0
 11
312.0
 21
99.0
 31
0.0
  0
MTEXT
  5
62
330
57
100
AcDbEntity
  8
0
100
AcDbMText
 10
293.0
 20
99.0
 30
0.0
 40
1.0
 71
5
  1
40
  0
POINT
  5
63
330
57
100
AcDbEntity
  8
Defpoints
100
AcDbPoint
 10
273.0
 20
99.0
 30
0.0
  0
POINT
  5
64
330
57
100
AcDbEntity
  8
Defpoints
100
AcDbPoint
 10
273.0
 20
95.0
 30
0.0
  0
POINT
  5
65
330
57
100
AcDbEntity
  8
Defpoints
100
AcDbPoint
 10
313.0
 20
95.0
 30
0.0
  0
ENDBLK
  5
59
330
57
100
AcDbEntity
  8
0
100
AcDbBlockEnd
  0
BLOCK
  5
69
330
68
100
AcDbEntity
  8
0
100
AcDbBlockBegin
  2
*D4
 70
1
 10
0.0
 20
0.0
 30
0.0
  3
*D4
  1

  0
LINE
  5
6B
330
68
100
AcDbEntity
  8
0
100
AcDbLine
 10
338.0
 20
95.0
 30
0.0
 11
338.0
 21
99.0
 31
0.0
  0
LINE
  5
6C
330
68
100
AcDbEntity
  8
0
100
AcDbLine
 10
420.0
 20
95.0
 30
0.0
 11
420.0
 21
99.0
 31
0.0
  0
INSERT
  5
6D
330
68
100
AcDbEntity
  8
0
100
AcDbBlockReference
  2
_CLOSEDFILLED
 10
338.0
 20
99.0
 30
0.0
 50
180.0
  0
INSERT
  5
6F
330
68
100
AcDbEntity
  8
0
100
AcDbBlockReference
  2
_CLOSEDFILLED
 10
420.0
 20
99.0
 30
0.0
  0
LINE
  5
71
330
68
100
AcDbEntity
  8
0
100
AcDbLine
 10
339.0
 20
99.0
 30
0.0
 11
378.0
 21
99.0
 31
0.0
  0
LINE
  5
72
330
68
100
AcDbEntity
  8
0
100
AcDbLine
 10
380.0
 20
99.0
 30
0.0
 11
419.0
 21
99.0
 31
0.0
  0
MTEXT
  5
73
330
68
100
AcDbEntity
  8
0
100
AcDbMText
 10
379.0
 20
99.0
 30
0.0
 40
1.0
 71
5
  1
82
  0
POINT
  5
74
330
68
100
AcDbEntity
  8
Defpoints
100
AcDbPoint
 10
338.0
 20
99.0
 30
0.0
  0
POINT
  5
75
330
68
100
AcDbEntity
  8
Defpoints
100
AcDbPoint
 10
338.0
 20
95.0
 30
0.0
  0
POINT
  5
76
330
68
100
AcDbEntity
  8
Defpoints
100
AcDbPoint
 10
420.0
 20
95.0
 30
0.0
  0
ENDBLK
  5
6A
330
68
100
AcDbEntity
  8
0
100
AcDbBlockEnd
  0
BLOCK
  5
7A
330
79
100
AcDbEntity
  8
0
100
AcDbBlockBegin
  2
*D5
 70
1
 10
0.0
 20
0.0
 30
0.0
  3
*D5
  1

  0
LINE
  5
7C
330
79
100
AcDbEntity
  8
0
100
AcDbLine
 10
437.0
 20
95.0
 30
0.0
 11
437.0
 21
99.0
 31
0.0
  0
LINE
  5
7D
330
79
100
AcDbEntity
  8
0
100
AcDbLine
 10
473.0
 20
95.0
 30
0.0
 11
473.0
 21
99.0
 31
0.0
  0
INSERT
  5
7E
330
79
100
AcDbEntity
  8
0
100
AcDbBlockReference
  2
_CLOSEDFILLED
 10
437.0
 20
99.0
 30
0.0
 50
180.0
  0
INSERT
  5
80
330
79
100
AcDbEntity
  8
0
100
AcDbBlockReference
  2
_CLOSEDFILLED
 10
473.0
 20
99.0
 30
0.0
  0
LINE
  5
82
330
79
100
AcDbEntity
  8
0
100
AcDbLine
 10
438.0
 20
99.0
 30
0.0
 11
454.0
 21
99.0
 31
0.0
  0
LINE
  5
83
330
79
100
AcDbEntity
  8
0
100
AcDbLine
 10
456.0
 20
99.0
 30
0.0
 11
472.0
 21
99.0
 31
0.0
  0
MTEXT
  5
84
330
79
100
AcDbEntity
  8
0
100
AcDbMText
 10
455.0
 20
99.0
 30
0.0
 40
1.0
 71
5
  1
36
  0
POINT
  5
85
330
79
100
AcDbEntity
  8
Defpoints
100
AcDbPoint
 10
437.0
 20
99.0
 30
0.0
  0
POINT
  5
86
330
79
100
AcDbEntity
  8
Defpoints
100
AcDbPoint
 10
437.0
 20
95.0
 30
0.0
  0
POINT
  5
87
330
79
100
AcDbEntity
  8
Defpoints
100
AcDbPoint
 10
473.0
 20
95.0
 30
0.0
  0
ENDBLK
  5
7B
330
79
100
AcDbEntity
  8
0
100
AcDbBlockEnd
  0
BLOCK
  5
8B
330
8A
100
AcDbEntity
  8
0
100
AcDbBlockBegin
  2
*D6
 70
1
 10
0.0
 20
0.0
 30
0.0
  3
*D6
  1

  0
LINE
  5
8D
330
8A
100
AcDbEntity
  8
0
100
AcDbLine
 10
75.0
 20
25.0
 30
0.0
 11
71.0
 21
25.0
 31
0.0
  0
LINE
  5
8E
330
8A
100
AcDbEntity
  8
0
100
AcDbLine
 10
75.0
 20
235.0
 30
0.0
 11
71.0
 21
235.0
 31
0.0
  0
INSERT
  5
8F
330
8A
100
AcDbEntity
  8
0
100
AcDbBlockReference
  2
_CLOSEDFILLED
 10
71.0
 20
25.0
 30
0.0
 50
270.0
  0
INSERT
  5
91
330
8A
100
AcDbEntity
  8
0
100
AcDbBlockReference
  2
_CLOSEDFILLED
 10
71.0
 20
235.0
 30
0.0
 50
90.0
  0
LINE
  5
93
330
8A
100
AcDbEntity
  8
0
100
AcDbLine
 10
71.0
 20
26.0
 30
0.0
 11
71.0
 21
128.5
 31
0.0
  0
LINE
  5
94
330
8A
100
AcDbEntity
  8
0
100
AcDbLine
 10
71.0
 20
131.5
 30
0.0
 11
71.0
 21
234.0
 31
0.0
  0
MTEXT
  5
95
330
8A
100
AcDbEntity
  8
0
100
AcDbMText
 10
71.0
 20
130.0
 30
0.0
 40
1.0
 71
5
  1
210
 50
90.0
  0
POINT
  5
96
330
8A
100
AcDbEntity
  8
Defpoints
100
AcDbPoint
 10
71.0
 20
25.0
 30
0.0
  0
POINT
  5
97
330
8A
100
AcDbEntity
  8
Defpoints
100
AcDbPoint
 10
75.0
 20
25.0
 30
0.0
  0
POINT
  5
98
330
8A
100
AcDbEntity
  8
Defpoints
100
AcDbPoint
 10
75.0
 20
235.0
 30
0.0
  0
ENDBLK
  5
8C
330
8A
100
AcDbEntity
  8
0
100
AcDbBlockEnd
  0
BLOCK
  5
9C
330
9B
100
AcDbEntity
  8
0
100
AcDbBlockBegin
  2
*D7
 70
1
 10
0.0
 20
0.0
 30
0.0
  3
*D7
  1

  0
LINE
  5
9E
330
9B
100
AcDbEntity
  8
0
100
AcDbLine
 10
338.0
 20
67.0
 30
0.0
 11
338.0
 21
71.0
 31
0.0
  0
LINE
  5
9F
330
9B
100
AcDbEntity
  8
0
100
AcDbLine
 10
458.0
 20
67.0
 30
0.0
 11
458.0
 21
71.0
 31
0.0
  0
INSERT
  5
A0
330
9B
100
AcDbEntity
  8
0
100
AcDbBlockReference
  2
_CLOSEDFILLED
 10
338.0
 20
71.0
 30
0.0
 50
180.0
  0
INSERT
  5
A2
330
9B
100
AcDbEntity
  8
0
100
AcDbBlockReference
  2
_CLOSEDFILLED
 10
458.0
 20
71.0
 30
0.0
  0
LINE
  5
A4
330
9B
100
AcDbEntity
  8
0
100
AcDbLine
 10
339.0
 20
71.0
 30
0.0
 11
396.5
 21
71.0
 31
0.0
  0
LINE
  5
A5
330
9B
100
AcDbEntity
  8
0
100
AcDbLine
 10
399.5
 20
71.0
 30
0.0
 11
457.0
 21
71.0
 31
0.0
  0
MTEXT
  5
A6
330
9B
100
AcDbEntity
  8
0
100
AcDbMText
 10
398.0
 20
71.0
 30
0.0
 40
1.0
 71
5
  1
120
  0
POINT
  5
A7
330
9B
100
AcDbEntity
  8
Defpoints
100
AcDbPoint
 10
338.0
 20
71.0
 30
0.0
  0
POINT
  5
A8
330
9B
100
AcDbEntity
  8
Defpoints
100
AcDbPoint
 10
338.0
 20
67.0
 30
0.0
  0
POINT
  5
A9
330
9B
100
AcDbEntity
  8
Defpoints
100
AcDbPoint
 10
458.0
 20
67.0
 30
0.0
  0
ENDBLK
  5
9D
330
9B
100
AcDbEntity
  8
0
100
AcDbBlockEnd
  0
BLOCK
  5
AD
330
AC
100
AcDbEntity
  8
0
100
AcDbBlockBegin
  2
*D8
 70
1
 10
0.0
 20
0.0
 30
0.0
  3
*D8
  1

  0
LINE
  5
AF
330
AC
100
AcDbEntity
  8
0
100
AcDbLine
 10
214.0
 20
128.0
 30
0.0
 11
214.0
 21
132.0
 31
0.0
  0
LINE
  5
B0
330
AC
100
AcDbEntity
  8
0
100
AcDbLine
 10
338.0
 20
128.0
 30
0.0
 11
338.0
 21
132.0
 31
0.0
  0
INSERT
  5
B1
330
AC
100
AcDbEntity
  8
0
100
AcDbBlockReference
  2
_CLOSEDFILLED
 10
214.0
 20
132.0
 30
0.0
 50
180.0
  0
INSERT
  5
B3
330
AC
100
AcDbEntity
  8
0
100
AcDbBlockReference
  2
_CLOSEDFILLED
 10
338.0
 20
132.0
 30
0.0
  0
LINE
  5
B5
330
AC
100
AcDbEntity
  8
0
100
AcDbLine
 10
215.0
 20
132.0
 30
0.0
 11
274.5
 21
132.0
 31
0.0
  0
LINE
  5
B6
330
AC
100
AcDbEntity
  8
0
100
AcDbLine
 10
277.5
 20
132.0
 30
0.0
 11
337.0
 21
132.0
 31
0.0
  0
MTEXT
  5
B7
330
AC
100
AcDbEntity
  8
0
100
AcDbMText
 10
276.0
 20
132.0
 30
0.0
 40
1.0
 71
5
  1
124
  0
POINT
  5
B8
330
AC
100
AcDbEntity
  8
Defpoints
100
AcDbPoint
 10
214.0
 20
132.0
 30
0.0
  0
POINT
  5
B9
330
AC
100
AcDbEntity
  8
Defpoints
100
AcDbPoint
 10
214.0
 20
128.0
 30
0.0
  0
POINT
  5
BA
330
AC
100
AcDbEntity
  8
Defpoints
100
AcDbPoint
 10
338.0
 20
128.0
 30
0.0
  0
ENDBLK
  5
AE
330
AC
100
AcDbEntity
  8
0
100
AcDbBlockEnd
  0
BLOCK
  5
BE
330
BD
100
AcDbEntity
  8
0
100
AcDbBlockBegin
  2
*D9
 70
1
 10
0.0
 20
0.0
 30
0.0
  3
*D9
  1

  0
LINE
  5
C0
330
BD
100
AcDbEntity
  8
0
100
AcDbLine
 10
384.0
 20
74.0
 30
0.0
 11
380.0
 21
74.0
 31
0.0
  0
LINE
  5
C1
330
BD
100
AcDbEntity
  8
0
100
AcDbLine
 10
384.0
 20
172.0
 30
0.0
 11
380.0
 21
172.0
 31
0.0
  0
INSERT
  5
C2
330
BD
100
AcDbEntity
  8
0
100
AcDbBlockReference
  2
_CLOSEDFILLED
 10
380.0
 20
74.0
 30
0.0
 50
270.0
  0
INSERT
  5
C4
330
BD
100
AcDbEntity
  8
0
100
AcDbBlockReference
  2
_CLOSEDFILLED
 10
380.0
 20
172.0
 30
0.0
 50
90.0
  0
LINE
  5
C6
330
BD
100
AcDbEntity
  8
0
100
AcDbLine
 10
380.0
 20
75.0
 30
0.0
 11
380.0
 21
122.0
 31
0.0
  0
LINE
  5
C7
330
BD
100
AcDbEntity
  8
0
100
AcDbLine
 10
380.0
 20
124.0
 30
0.0
 11
380.0
 21
171.0
 31
0.0
  0
MTEXT
  5
C8
330
BD
100
AcDbEntity
  8
0
100
AcDbMText
 10
380.0
 20
123.0
 30
0.0
 40
1.0
 71
5
  1
98
 50
90.0
  0
POINT
  5
C9
330
BD
100
AcDbEntity
  8
Defpoints
100
AcDbPoint
 10
380.0
 20
74.0
 30
0.0
  0
POINT
  5
CA
330
BD
100
AcDbEntity
  8
Defpoints
100
AcDbPoint
 10
384.0
 20
74.0
 30
0.0
  0
POINT
  5
CB
330
BD
100
AcDbEntity
  8
Defpoints
100
AcDbPoint
 10
384.0
 20
172.0
 30
0.0
  0
ENDBLK
  5
BF
330
BD
100
AcDbEntity
  8
0
100
AcDbBlockEnd
  0
BLOCK
  5
CF
330
CE
100
AcDbEntity
  8
0
100
AcDbBlockBegin
  2
*D10
 70
1
 10
0.0
 20
0.0
 30
0.0
  3
*D10
  1

  0
LINE
  5
D1
330
CE
100
AcDbEntity
  8
0
100
AcDbLine
 10
115.0
 20
39.0
 30
0.0
 11
115.0
 21
43.0
 31
0.0
  0
LINE
  5
D2
330
CE
100
AcDbEntity
  8
0
100
AcDbLine
 10
214.0
 20
39.0
 30
0.0
 11
214.0
 21
43.0
 31
0.0
  0
INSERT
  5
D3
330
CE
100
AcDbEntity
  8
0
100
AcDbBlockReference
  2
_CLOSEDFILLED
 10
115.0
 20
43.0
 30
0.0
 50
180.0
  0
INSERT
  5
D5
330
CE
100
AcDbEntity
  8
0
100
AcDbBlockReference
  2
_CLOSEDFILLED
 10
214.0
 20
43.0
 30
0.0
  0
LINE
  5
D7
330
CE
100
AcDbEntity
  8
0
100
AcDbLine
 10
116.0
 20
43.0
 30
0.0
 11
163.5
 21
43.0
 31
0.0
  0
LINE
  5
D8
330
CE
100
AcDbEntity
  8
0
100
AcDbLine
 10
165.5
 20
43.0
 30
0.0
 11
213.0
 21
43.0
 31
0.0
  0
MTEXT
  5
D9
330
CE
100
AcDbEntity
  8
0
100
AcDbMText
 10
164.5
 20
43.0
 30
0.0
 40
1.0
 71
5
  1
99
  0
POINT
  5
DA
330
CE
100
AcDbEntity
  8
Defpoints
100
AcDbPoint
 10
115.0
 20
43.0
 30
0.0
  0
POINT
  5
DB
330
CE
100
AcDbEntity
  8
Defpoints
100
AcDbPoint
 10
115.0
 20
39.0
 30
0.0
  0
POINT
  5
DC
330
CE
100
AcDbEntity
  8
Defpoints
100
AcDbPoint
 10
214.0
 20
39.0
 30
0.0
  0
ENDBLK
  5
D0
330
CE
100
AcDbEntity
  8
0
100
AcDbBlockEnd
  0
BLOCK
  5
E0
330
DF
100
AcDbEntity
  8
0
100
AcDbBlockBegin
  2
*D11
 70
1
 10
0.0
 20
0.0
 30
0.0
  3
*D11
  1

  0
LINE
  5
E2
330
DF
100
AcDbEntity
  8
0
100
AcDbLine
 10
464.0
 20
74.0
 30
0.0
 11
460.0
 21
74.0
 31
0.0
  0
LINE
  5
E3
330
DF
100
AcDbEntity
  8
0
100
AcDbLine
 10
464.0
 20
231.0
 30
0.0
 11
460.0
 21
231.0
 31
0.0
  0
INSERT
  5
E4
330
DF
100
AcDbEntity
  8
0
100
AcDbBlockReference
  2
_CLOSEDFILLED
 10
460.0
 20
74.0
 30
0.0
 50
270.0
  0
INSERT
  5
E6
330
DF
100
AcDbEntity
  8
0
100
AcDbBlockReference
  2
_CLOSEDFILLED
 10
460.0
 20
231.0
 30
0.0
 50
90.0
  0
LINE
  5
E8
330
DF
100
AcDbEntity
  8
0
100
AcDbLine
 10
460.0
 20
75.0
 30
0.0
 11
460.0
 21
151.0
 31
0.0
  0
LINE
  5
E9
330
DF
100
AcDbEntity
  8
0
100
AcDbLine
 10
460.0
 20
154.0
 30
0.0
 11
460.0
 21
230.0
 31
0.0
  0
MTEXT
  5
EA
330
DF
100
AcDbEntity
  8
0
100
AcDbMText
 10
460.0
 20
152.5
 30
0.0
 40
1.0
 71
5
  1
157
 50
90.0
  0
POINT
  5
EB
330
DF
100
AcDbEntity
  8
Defpoints
100
AcDbPoint
 10
460.0
 20
74.0
 30
0.0
  0
POINT
  5
EC
330
DF
100
AcDbEntity
  8
Defpoints
100
AcDbPoint
 10
464.0
 20
74.0
 30
0.0
  0
POINT
  5
ED
330
DF
100
AcDbEntity
  8
Defpoints
100
AcDbPoint
 10
464.0
 20
231.0
 30
0.0
  0
ENDBLK
  5
E1
330
DF
100
AcDbEntity
  8
0
100
AcDbBlockEnd
  0
BLOCK
  5
F1
330
F0
100
AcDbEntity
  8
0
100
AcDbBlockBegin
  2
*D12
 70
1
 10
0.0
 20
0.0
 30
0.0
  3
*D12
  1

  0
LINE
  5
F3
330
F0
100
AcDbEntity
  8
0
100
AcDbLine
 10
29.0
 20
25.0
 30
0.0
 11
29.0
 21
29.0
 31
0.0
  0
LINE
  5
F4
330
F0
100
AcDbEntity
  8
0
100
AcDbLine
 10
115.0
 20
25.0
 30
0.0
 11
115.0
 21
29.0
 31
0.0
  0
INSERT
  5
F5
330
F0
100
AcDbEntity
  8
0
100
AcDbBlockReference
  2
_CLOSEDFILLED
 10
29.0
 20
29.0
 30
0.0
 50
180.0
  0
INSERT
  5
F7
330
F0
100
AcDbEntity
  8
0
100
AcDbBlockReference
  2
_CLOSEDFILLED
 10
115.0
 20
29.0
 30
0.0
  0
LINE
  5
F9
330
F0
100
AcDbEntity
  8
0
100
AcDbLine
 10
30.0
 20
29.0
 30
0.0
 11
71.0
 21
29.0
 31
0.0
  0
LINE
  5
FA
330
F0
100
AcDbEntity
  8
0
100
AcDbLine
 10
73.0
 20
29.0
 30
0.0
 11
114.0
 21
29.0
 31
0.0
  0
MTEXT
  5
FB
330
F0
100
AcDbEntity
  8
0
100
AcDbMText
 10
72.0
 20
29.0
 30
0.0
 40
1.0
 71
5
  1
86
  0
POINT
  5
FC
330
F0
100
AcDbEntity
  8
Defpoints
100
AcDbPoint
 10
29.0
 20
29.0
 30
0.0
  0
POINT
  5
FD
330
F0
100
AcDbEntity
  8
Defpoints
100
AcDbPoint
 10
29.0
 20
25.0
 30
0.0
  0
POINT
  5
FE
330
F0
100
AcDbEntity
  8
Defpoints
100
AcDbPoint
 10
115.0
 20
25.0
 30
0.0
  0
ENDBLK
  5
F2
330
F0
100
AcDbEntity
  8
0
100
AcDbBlockEnd
  0
BLOCK
  5
102
330
101
100
AcDbEntity
  8
0
100
AcDbBlockBegin
  2
*D13
 70
1
 10
0.0
 20
0.0
 30
0.0
  3
*D13
  1

  0
LINE
  5
104
330
101
100
AcDbEntity
  8
0
100
AcDbLine
 10
406.0
 20
25.0
 30
0.0
 11
406.0
 21
29.0
 31
0.0
  0
LINE
  5
105
330
101
100
AcDbEntity
  8
0
100
AcDbLine
 10
447.0
 20
25.0
 30
0.0
 11
447.0
 21
29.0
 31
0.0
  0
INSERT
  5
106
330
101
100
AcDbEntity
  8
0
100
AcDbBlockReference
  2
_CLOSEDFILLED
 10
406.0
 20
29.0
 30
0.0
 50
180.0
  0
INSERT
  5
108
330
101
100
AcDbEntity
  8
0
100
AcDbBlockReference
  2
_CLOSEDFILLED
 10
447.0
 20
29.0
 30
0.0
  0
LINE
  5
10A
330
101
100
AcDbEntity
  8
0
100
AcDbLine
 10
407.0
 20
29.0
 30
0.0
 11
425.5
 21
29.0
 31
0.0
  0
LINE
  5
10B
330
101
100
AcDbEntity
  8
0
100
AcDbLine
 10
427.5
 20
29.0
 30
0.0
 11
446.0
 21
29.0
 31
0.0
  0
MTEXT
  5
10C
330
101
100
AcDbEntity
  8
0
100
AcDbMText
 10
426.5
 20
29.0
 30
0.0
 40
1.0
 71
5
  1
41
  0
POINT
  5
10D
330
101
100
AcDbEntity
  8
Defpoints
100
AcDbPoint
 10
406.0
 20
29.0
 30
0.0
  0
POINT
  5
10E
330
101
100
AcDbEntity
  8
Defpoints
100
AcDbPoint
 10
406.0
 20
25.0
 30
0.0
  0
POINT
  5
10F
330
101
100
AcDbEntity
  8
Defpoints
100
AcDbPoint
 10
447.0
 20
25.0
 30
0.0
  0
ENDBLK
  5
103
330
101
100
AcDbEntity
  8
0
100
AcDbBlockEnd
  0
BLOCK
  5
113
330
112
100
AcDbEntity
  8
0
100
AcDbBlockBegin
  2
*D14
 70
1
 10
0.0
 20
0.0
 30
0.0
  3
*D14
  1

  0
LINE
  5
115
330
112
100
AcDbEntity
  8
0
100
AcDbLine
 10
214.0
 20
39.0
 30
0.0
 11
210.0
 21
39.0
 31
0.0
  0
LINE
  5
116
330
112
100
AcDbEntity
  8
0
100
AcDbLine
 10
214.0
 20
203.0
 30
0.0
 11
210.0
 21
203.0
 31
0.0
  0
INSERT
  5
117
330
112
100
AcDbEntity
  8
0
100
AcDbBlockReference
  2
_CLOSEDFILLED
 10
210.0
 20
39.0
 30
0.0
 50
270.0
  0
INSERT
  5
119
330
112
100
AcDbEntity
  8
0
100
AcDbBlockReference
  2
_CLOSEDFILLED
 10
210.0
 20
203.0
 30
0.0
 50
90.0
  0
LINE
  5
11B
330
112
100
AcDbEntity
  8
0
100
AcDbLine
 10
210.0
 20
40.0
 30
0.0
 11
210.0
 21
119.5
 31
0.0
  0
LINE
  5
11C
330
112
100
AcDbEntity
  8
0
100
AcDbLine
 10
210.0
 20
122.5
 30
0.0
 11
210.0
 21
202.0
 31
0.0
  0
MTEXT
  5
11D
330
112
100
AcDbEntity
  8
0
100
AcDbMText
 10
210.0
 20
121.0
 30
0.0
 40
1.0
 71
5
  1
164
 50
90.0
  0
POINT
  5
11E
330
112
100
AcDbEntity
  8
Defpoints
100
AcDbPoint
 10
210.0
 20
39.0
 30
0.0
  0
POINT
  5
11F
330
112
100
AcDbEntity
  8
Defpoints
100
AcDbPoint
 10
214.0
 20
39.0
 30
0.0
  0
POINT
  5
120
330
112
100
AcDbEntity
  8
Defpoints
100
AcDbPoint
 10
214.0
 20
203.0
 30
0.0
  0
ENDBLK
  5
114
330
112
100
AcDbEntity
  8
0
100
AcDbBlockEnd
  0
BLOCK
  5
124
330
123
100
AcDbEntity
  8
0
100
AcDbBlockBegin
  2
*D15
 70
1
 10
0.0
 20
0.0
 30
0.0
  3
*D15
  1

  0
LINE
  5
126
330
123
100
AcDbEntity
  8
0
100
AcDbLine
 10
338.0
 20
121.0
 30
0.0
 11
338.0
 21
125.0
 31
0.0
  0
LINE
  5
127
330
123
100
AcDbEntity
  8
0
100
AcDbLine
 10
464.0
 20
121.0
 30
0.0
 11
464.0
 21
125.0
 31
0.0
  0
INSERT
  5
128
330
123
100
AcDbEntity
  8
0
100
AcDbBlockReference
  2
_CLOSEDFILLED
 10
338.0
 20
125.0
 30
0.0
 50
180.0
  0
INSERT
  5
12A
330
123
100
AcDbEntity
  8
0
100
AcDbBlockReference
  2
_CLOSEDFILLED
 10
464.0
 20
125.0
 30
0.0
  0
LINE
  5
12C
330
123
100
AcDbEntity
  8
0
100
AcDbLine
 10
339.0
 20
125.0
 30
0.0
 11
399.5
 21
125.0
 31
0.0
  0
LINE
  5
12D
330
123
100
AcDbEntity
  8
0
100
AcDbLine
 10
402.5
 20
125.0
 30
0.0
 11
463.0
 21
125.0
 31
0.0
  0
MTEXT
  5
12E
330
123
100
AcDbEntity
  8
0
100
AcDbMText
 10
401.0
 20
125.0
 30
0.0
 40
1.0
 71
5
  1
126
  0
POINT
  5
12F
330
123
100
AcDbEntity
  8
Defpoints
100
AcDbPoint
 10
338.0
 20
125.0
 30
0.0
  0
POINT
  5
130
330
123
100
AcDbEntity
  8
Defpoints
100
AcDbPoint
 10
338.0
 20
121.0
 30
0.0
  0
POINT
  5
131
330
123
100
AcDbEntity
  8
Defpoints
100
AcDbPoint
 10
464.0
 20
121.0
 30
0.0
  0
ENDBLK
  5
125
330
123
100
AcDbEntity
  8
0
100
AcDbBlockEnd
  0
BLOCK
  5
135
330
134
100
AcDbEntity
  8
0
100
AcDbBlockBegin
  2
*D16
 70
1
 10
0.0
 20
0.0
 30
0.0
  3
*D16
  1

  0
LINE
  5
137
330
134
100
AcDbEntity
  8
0
100
AcDbLine
 10
79.11111111111111
 20
162.0
 30
0.0
 11
83.01585935184691
 21
162.86772183127465
 31
0.0
  0
LINE
  5
138
330
134
100
AcDbEntity
  8
0
100
AcDbLine
 10
94.94736842105263
 20
90.73684210526315
 30
0.0
 11
98.85211666178844
 21
91.60456393653777
 31
0.0
  0
INSERT
  5
139
330
134
100
AcDbEntity
  8
0
100
AcDbBlockReference
  2
_CLOSEDFILLED
 10
83.01585935184691
 20
162.86772183127465
 30
0.0
 50
102.52880770915151
  0
INSERT
  5
13B
330
134
100
AcDbEntity
  8
0
100
AcDbBlockReference
  2
_CLOSEDFILLED
 10
98.85211666178844
 20
91.60456393653777
 30
0.0
 50
-77.47119229084849
  0
LINE
  5
13D
330
134
100
AcDbEntity
  8
0
100
AcDbLine
 10
83.23278980966558
 20
161.8915347710907
 30
0.0
 11
90.71705754899902
 21
128.21232994409016
 31
0.0
  0
LINE
  5
13E
330
134
100
AcDbEntity
  8
0
100
AcDbLine
 10
91.15091846463633
 20
126.25995582372227
 30
0.0
 11
98.63518620396978
 21
92.58075099672172
 31
0.0
  0
MTEXT
  5
13F
330
134
100
AcDbEntity
  8
0
100
AcDbMText
 10
90.93398800681769
 20
127.23614288390621
 30
0.0
 40
1.0
 71
5
  1
73
 50
-77.47119229084849
  0
POINT
  5
140
330
134
100
AcDbEntity
  8
Defpoints
100
AcDbPoint
 10
83.01585935184691
 20
162.86772183127465
 30
0.0
  0
POINT
  5
141
330
134
100
AcDbEntity
  8
Defpoints
100
AcDbPoint
 10
79.11111111111111
 20
162.0
 30
0.0
  0
POINT
  5
142
330
134
100
AcDbEntity
  8
Defpoints
100
AcDbPoint
 10
94.94736842105263
 20
90.73684210526315
 30
0.0
  0
ENDBLK
  5
136
330
134
100
AcDbEntity
  8
0
100
AcDbBlockEnd
  0
BLOCK
  5
146
330
145
100
AcDbEntity
  8
0
100
AcDbBlockBegin
  2
*D17
 70
1
 10
0.0
 20
0.0
 30
0.0
  3
*D17
  1

  0
LINE
  5
148
330
145
100
AcDbEntity
  8
0
100
AcDbLine
 10
214.0
 20
57.0
 30
0.0
 11
214.0
 21
61.0
 31
0.0
  0
LINE
  5
149
330
145
100
AcDbEntity
  8
0
100
AcDbLine
 10
338.0
 20
57.0
 30
0.0
 11
338.0
 21
61.0
 31
0.0
  0
INSERT
  5
14A
330
145
100
AcDbEntity
  8
0
100
AcDbBlockReference
  2
_CLOSEDFILLED
 10
214.0
 20
61.0
 30
0.0
 50
180.0
  0
INSERT
  5
14C
330
145
100
AcDbEntity
  8
0
100
AcDbBlockReference
  2
_CLOSEDFILLED
 10
338.0
 20
61.0
 30
0.0
  0
LINE
  5
14E
330
145
100
AcDbEntity
  8
0
100
AcDbLine
 10
215.0
 20
61.0
 30
0.0
 11
274.5
 21
61.0
 31
0.0
  0
LINE
  5
14F
330
145
100
AcDbEntity
  8
0
100
AcDbLine
 10
277.5
 20
61.0
 30
0.0
 11
337.0
 21
61.0
 31
0.0
  0
MTEXT
  5
150
330
145
100
AcDbEntity
  8
0
100
AcDbMText
 10
276.0
 20
61.0
 30
0.0
 40
1.0
 71
5
  1
124
  0
POINT
  5
151
330
145
100
AcDbEntity
  8
Defpoints
100
AcDbPoint
 10
214.0
 20
61.0
 30
0.0
  0
POINT
  5
152
330
145
100
AcDbEntity
  8
Defpoints
100
AcDbPoint
 10
214.0
 20
57.0
 30
0.0
  0
POINT
  5
153
330
145
100
AcDbEntity
  8
Defpoints
100
AcDbPoint
 10
338.0
 20
57.0
 30
0.0
  0
ENDBLK
  5
147
330
145
100
AcDbEntity
  8
0
100
AcDbBlockEnd
  0
BLOCK
  5
157
330
156
100
AcDbEntity
  8
0
100
AcDbBlockBegin
  2
*D18
 70
1
 10
0.0
 20
0.0
 30
0.0
  3
*D18
  1

  0
LINE
  5
159
330
156
100
AcDbEntity
  8
0
100
AcDbLine
 10
28.0
 20
114.0
 30
0.0
 11
28.0
 21
118.0
 31
0.0
  0
LINE
  5
15A
330
156
100
AcDbEntity
  8
0
100
AcDbLine
 10
41.0
 20
114.0
 30
0.0
 11
41.0
 21
118.0
 31
0.0
  0
INSERT
  5
15B
330
156
100
AcDbEntity
  8
0
100
AcDbBlockReference
  2
_CLOSEDFILLED
 10
28.0
 20
118.0
 30
0.0
 50
180.0
  0
INSERT
  5
15D
330
156
100
AcDbEntity
  8
0
100
AcDbBlockReference
  2
_CLOSEDFILLED
 10
41.0
 20
118.0
 30
0.0
  0
LINE
  5
15F
330
156
100
AcDbEntity
  8
0
100
AcDbLine
 10
29.0
 20
118.0
 30
0.0
 11
33.5
 21
118.0
 31
0.0
  0
LINE
  5
160
330
156
100
AcDbEntity
  8
0
100
AcDbLine
 10
35.5
 20
118.0
 30
0.0
 11
40.0
 21
118.0
 31
0.0
  0
MTEXT
  5
161
330
156
100
AcDbEntity
  8
0
100
AcDbMText
 10
34.5
 20
118.0
 30
0.0
 40
1.0
 71
5
  1
13
  0
POINT
  5
162
330
156
100
AcDbEntity
  8
Defpoints
100
AcDbPoint
 10
28.0
 20
118.0
 30
0.0
  0
POINT
  5
163
330
156
100
AcDbEntity
  8
Defpoints
100
AcDbPoint
 10
28.0
 20
114.0
 30
0.0
  0
POINT
  5
164
330
156
100
AcDbEntity
  8
Defpoints
100
AcDbPoint
 10
41.0
 20
114.0
 30
0.0
  0
ENDBLK
  5
158
330
156
100
AcDbEntity
  8
0
100
AcDbBlockEnd
  0
BLOCK
  5
168
330
167
100
AcDbEntity
  8
0
100
AcDbBlockBegin
  2
*D19
 70
1
 10
0.0
 20
0.0
 30
0.0
  3
*D19
  1

  0
LINE
  5
16A
330
167
100
AcDbEntity
  8
0
100
AcDbLine
 10
384.0
 20
114.0
 30
0.0
 11
384.0
 21
118.0
 31
0.0
  0
LINE
  5
16B
330
167
100
AcDbEntity
  8
0
100
AcDbLine
 10
456.0
 20
114.0
 30
0.0
 11
456.0
 21
118.0
 31
0.0
  0
INSERT
  5
16C
330
167
100
AcDbEntity
  8
0
100
AcDbBlockReference
  2
_CLOSEDFILLED
 10
384.0
 20
118.0
 30
0.0
 50
180.0
  0
INSERT
  5
16E
330
167
100
AcDbEntity
  8
0
100
AcDbBlockReference
  2
_CLOSEDFILLED
 10
456.0
 20
118.0
 30
0.0
  0
LINE
  5
170
330
167
100
AcDbEntity
  8
0
100
AcDbLine
 10
385.0
 20
118.0
 30
0.0
 11
419.0
 21
118.0
 31
0.0
  0
LINE
  5
171
330
167
100
AcDbEntity
  8
0
100
AcDbLine
 10
421.0
 20
118.0
 30
0.0
 11
455.0
 21
118.0
 31
0.0
  0
MTEXT
  5
172
330
167
100
AcDbEntity
  8
0
100
AcDbMText
 10
420.0
 20
118.0
 30
0.0
 40
1.0
 71
5
  1
72
  0
POINT
  5
173
330
167
100
AcDbEntity
  8
Defpoints
100
AcDbPoint
 10
384.0
 20
118.0
 30
0.0
  0
POINT
  5
174
330
167
100
AcDbEntity
  8
Defpoints
100
AcDbPoint
 10
384.0
 20
114.0
 30
0.0
  0
POINT
  5
175
330
167
100
AcDbEntity
  8
Defpoints
100
AcDbPoint
 10
456.0
 20
114.0
 30
0.0
  0
ENDBLK
  5
169
330
167
100
AcDbEntity
  8
0
100
AcDbBlockEnd
  0
BLOCK
  5
179
330
178
100
AcDbEntity
  8
0
100
AcDbBlockBegin
  2
*D20
 70
1
 10
0.0
 20
0.0
 30
0.0
  3
*D20
  1

  0
LINE
  5
17B
330
178
100
AcDbEntity
  8
0
100
AcDbLine
 10
384.0
 20
74.0
 30
0.0
 11
384.0
 21
78.0
 31
0.0
  0
LINE
  5
17C
330
178
100
AcDbEntity
  8
0
100
AcDbLine
 10
456.0
 20
74.0
 30
0.0
 11
456.0
 21
78.0
 31
0.0
  0
INSERT
  5
17D
330
178
100
AcDbEntity
  8
0
100
AcDbBlockReference
  2
_CLOSEDFILLED
 10
384.0
 20
78.0
 30
0.0
 50
180.0
  0
INSERT
  5
17F
330
178
100
AcDbEntity
  8
0
100
AcDbBlockReference
  2
_CLOSEDFILLED
 10
456.0
 20
78.0
 30
0.0
  0
LINE
  5
181
330
178
100
AcDbEntity
  8
0
100
AcDbLine
 10
385.0
 20
78.0
 30
0.0
 11
419.0
 21
78.0
 31
0.0
  0
LINE
  5
182
330
178
100
AcDbEntity
  8
0
100
AcDbLine
 10
421.0
 20
78.0
 30
0.0
 11
455.0
 21
78.0
 31
0.0
  0
MTEXT
  5
183
330
178
100
AcDbEntity
  8
0
100
AcDbMText
 10
420.0
 20
78.0
 30
0.0
 40
1.0
 71
5
  1
72
  0
POINT
  5
184
330
178
100
AcDbEntity
  8
Defpoints
100
AcDbPoint
 10
384.0
 20
78.0
 30
0.0
  0
POINT
  5
185
330
178
100
AcDbEntity
  8
Defpoints
100
AcDbPoint
 10
384.0
 20
74.0
 30
0.0
  0
POINT
  5
186
330
178
100
AcDbEntity
  8
Defpoints
100
AcDbPoint
 10
456.0
 20
74.0
 30
0.0
  0
ENDBLK
  5
17A
330
178
100
AcDbEntity
  8
0
100
AcDbBlockEnd
  0
BLOCK
  5
18A
330
189
100
AcDbEntity
  8
0
100
AcDbBlockBegin
  2
*D21
 70
1
 10
0.0
 20
0.0
 30
0.0
  3
*D21
  1

  0
LINE
  5
18C
330
189
100
AcDbEntity
  8
0
100
AcDbLine
 10
115.0
 20
25.0
 30
0.0
 11
111.0
 21
25.0
 31
0.0
  0
LINE
  5
18D
330
189
100
AcDbEntity
  8
0
100
AcDbLine
 10
115.0
 20
189.0
 30
0.0
 11
111.0
 21
189.0
 31
0.0
  0
INSERT
  5
18E
330
189
100
AcDbEntity
  8
0
100
AcDbBlockReference
  2
_CLOSEDFILLED
 10
111.0
 20
25.0
 30
0.0
 50
270.0
  0
INSERT
  5
190
330
189
100
AcDbEntity
  8
0
100
AcDbBlockReference
  2
_CLOSEDFILLED
 10
111.0
 20
189.0
 30
0.0
 50
90.0
  0
LINE
  5
192
330
189
100
AcDbEntity
  8
0
100
AcDbLine
 10
111.0
 20
26.0
 30
0.0
 11
111.0
 21
105.5
 31
0.0
  0
LINE
  5
193
330
189
100
AcDbEntity
  8
0
100
AcDbLine
 10
111.0
 20
108.5
 30
0.0
 11
111.0
 21
188.0
 31
0.0
  0
MTEXT
  5
194
330
189
100
AcDbEntity
  8
0
100
AcDbMText
 10
111.0
 20
107.0
 30
0.0
 40
1.0
 71
5
  1
164
 50
90.0
  0
POINT
  5
195
330
189
100
AcDbEntity
  8
Defpoints
100
AcDbPoint
 10
111.0
 20
25.0
 30
0.0
  0
POINT
  5
196
330
189
100
AcDbEntity
  8
Defpoints
100
AcDbPoint
 10
115.0
 20
25.0
 30
0.0
  0
POINT
  5
197
330
189
100
AcDbEntity
  8
Defpoints
100
AcDbPoint
 10
115.0
 20
189.0
 30
0.0
  0
ENDBLK
  5
18B
330
189
100
AcDbEntity
  8
0
100
AcDbBlockEnd
  0
BLOCK
  5
19B
330
19A
100
AcDbEntity
  8
0
100
AcDbBlockBegin
  2
*D22
 70
1
 10
0.0
 20
0.0
 30
0.0
  3
*D22
  1

  0
LINE
  5
19D
330
19A
100
AcDbEntity
  8
0
100
AcDbLine
 10
29.0
 20
162.0
 30
0.0
 11
29.0
 21
166.0
 31
0.0
  0
LINE
  5
19E
330
19A
100
AcDbEntity
  8
0
100
AcDbLine
 10
115.0
 20
162.0
 30
0.0
 11
115.0
 21
166.0
 31
0.0
  0
INSERT
  5
19F
330
19A
100
AcDbEntity
  8
0
100
AcDbBlockReference
  2
_CLOSEDFILLED
 10
29.0
 20
166.0
 30
0.0
 50
180.0
  0
INSERT
  5
1A1
330
19A
100
AcDbEntity
  8
0
100
AcDbBlockReference
  2
_CLOSEDFILLED
 10
115.0
 20
166.0
 30
0.0
  0
LINE
  5
1A3
330
19A
100
AcDbEntity
  8
0
100
AcDbLine
 10
30.0
 20
166.0
 30
0.0
 11
71.0
 21
166.0
 31
0.0
  0
LINE
  5
1A4
330
19A
100
AcDbEntity
  8
0
100
AcDbLine
 10
73.0
 20
166.0
 30
0.0
 11
114.0
 21
166.0
 31
0.0
  0
MTEXT
  5
1A5
330
19A
100
AcDbEntity
  8
0
100
AcDbMText
 10
72.0
 20
166.0
 30
0.0
 40
1.0
 71
5
  1
86
  0
POINT
  5
1A6
330
19A
100
AcDbEntity
  8
Defpoints
100
AcDbPoint
 10
29.0
 20
166.0
 30
0.0
  0
POINT
  5
1A7
330
19A
100
AcDbEntity
  8
Defpoints
100
AcDbPoint
 10
29.0
 20
162.0
 30
0.0
  0
POINT
  5
1A8
330
19A
100
AcDbEntity
  8
Defpoints
100
AcDbPoint
 10
115.0
 20
162.0
 30
0.0
  0
ENDBLK
  5
19C
330
19A
100
AcDbEntity
  8
0
100
AcDbBlockEnd
  0
BLOCK
  5
1AC
330
1AB
100
AcDbEntity
  8
0
100
AcDbBlockBegin
  2
*D23
 70
1
 10
0.0
 20
0.0
 30
0.0
  3
*D23
  1

  0
LINE
  5
1AE
330
1AB
100
AcDbEntity
  8
0
100
AcDbLine
 10
338.0
 20
57.0
 30
0.0
 11
334.0
 21
57.0
 31
0.0
  0
LINE
  5
1AF
330
1AB
100
AcDbEntity
  8
0
100
AcDbLine
 10
338.0
 20
203.0
 30
0.0
 11
334.0
 21
203.0
 31
0.0
  0
INSERT
  5
1B0
330
1AB
100
AcDbEntity
  8
0
100
AcDbBlockReference
  2
_CLOSEDFILLED
 10
334.0
 20
57.0
 30
0.0
 50
270.0
  0
INSERT
  5
1B2
330
1AB
100
AcDbEntity
  8
0
100
AcDbBlockReference
  2
_CLOSEDFILLED
 10
334.0
 20
203.0
 30
0.0
 50
90.0
  0
LINE
  5
1B4
330
1AB
100
AcDbEntity
  8
0
100
AcDbLine
 10
334.0
 20
58.0
 30
0.0
 11
334.0
 21
128.5
 31
0.0
  0
LINE
  5
1B5
330
1AB
100
AcDbEntity
  8
0
100
AcDbLine
 10
334.0
 20
131.5
 30
0.0
 11
334.0
 21
202.0
 31
0.0
  0
MTEXT
  5
1B6
330
1AB
100
AcDbEntity
  8
0
100
AcDbMText
 10
334.0
 20
130.0
 30
0.0
 40
1.0
 71
5
  1
146
 50
90.0
  0
POINT
  5
1B7
330
1AB
100
AcDbEntity
  8
Defpoints
100
AcDbPoint
 10
334.0
 20
57.0
 30
0.0
  0
POINT
  5
1B8
330
1AB
100
AcDbEntity
  8
Defpoints
100
AcDbPoint
 10
338.0
 20
57.0
 30
0.0
  0
POINT
  5
1B9
330
1AB
100
AcDbEntity
  8
Defpoints
100
AcDbPoint
 10
338.0
 20
203.0
 30
0.0
  0
ENDBLK
  5
1AD
330
1AB
100
AcDbEntity
  8
0
100
AcDbBlockEnd
  0
BLOCK
  5
1BD
330
1BC
100
AcDbEntity
  8
0
100
AcDbBlockBegin
  2
*D24
 70
1
 10
0.0
 20
0.0
 30
0.0
  3
*D24
  1

  0
LINE
  5
1BF
330
1BC
100
AcDbEntity
  8
0
100
AcDbLine
 10
115.0
 20
145.0
 30
0.0
 11
115.0
 21
149.0
 31
0.0
  0
LINE
  5
1C0
330
1BC
100
AcDbEntity
  8
0
100
AcDbLine
 10
214.0
 20
145.0
 30
0.0
 11
214.0
 21
149.0
 31
0.0
  0
INSERT
  5
1C1
330
1BC
100
AcDbEntity
  8
0
100
AcDbBlockReference
  2
_CLOSEDFILLED
 10
115.0
 20
149.0
 30
0.0
 50
180.0
  0
INSERT
  5
1C3
330
1BC
100
AcDbEntity
  8
0
100
AcDbBlockReference
  2
_CLOSEDFILLED
 10
214.0
 20
149.0
 30
0.0
  0
LINE
  5
1C5
330
1BC
100
AcDbEntity
  8
0
100
AcDbLine
 10
116.0
 20
149.0
 30
0.0
 11
163.5
 21
149.0
 31
0.0
  0
LINE
  5
1C6
330
1BC
100
AcDbEntity
  8
0
100
AcDbLine
 10
165.5
 20
149.0
 30
0.0
 11
213.0
 21
149.0
 31
0.0
  0
MTEXT
  5
1C7
330
1BC
100
AcDbEntity
  8
0
100
AcDbMText
 10
164.5
 20
149.0
 30
0.0
 40
1.0
 71
5
  1
99
  0
POINT
  5
1C8
330
1BC
100
AcDbEntity
  8
Defpoints
100
AcDbPoint
 10
115.0
 20
149.0
 30
0.0
  0
POINT
  5
1C9
330
1BC
100
AcDbEntity
  8
Defpoints
100
AcDbPoint
 10
115.0
 20
145.0
 30
0.0
  0
POINT
  5
1CA
330
1BC
100
AcDbEntity
  8
Defpoints
100
AcDbPoint
 10
214.0
 20
145.0
 30
0.0
  0
ENDBLK
  5
1BE
330
1BC
100
AcDbEntity
  8
0
100
AcDbBlockEnd
  0
BLOCK
  5
1CE
330
1CD
100
AcDbEntity
  8
0
100
AcDbBlockBegin
  2
*D25
 70
1
 10
0.0
 20
0.0
 30
0.0
  3
*D25
  1

  0
LINE
  5
1D0
330
1CD
100
AcDbEntity
  8
0
100
AcDbLine
 10
83.61538461538461
 20
34.07692307692308
 30
0.0
 11
79.69306191262093
 21
34.86138761747583
 31
0.0
  0
LINE
  5
1D1
330
1CD
100
AcDbEntity
  8
0
100
AcDbLine
 10
95.8
 20
95.0
 30
0.0
 11
91.87767729723632
 21
95.78446454055273
 31
0.0
  0
INSERT
  5
1D2
330
1CD
100
AcDbEntity
  8
0
100
AcDbBlockReference
  2
_CLOSEDFILLED
 10
79.69306191262093
 20
34.86138761747583
 30
0.0
 50
258.69006752597977
  0
INSERT
  5
1D4
330
1CD
100
AcDbEntity
  8
0
100
AcDbBlockReference
  2
_CLOSEDFILLED
 10
91.87767729723632
 20
95.78446454055273
 30
0.0
 50
78.69006752597979
  0
LINE
  5
1D6
330
1CD
100
AcDbEntity
  8
0
100
AcDbLine
 10
79.88917804775912
 20
35.84196829316675
 30
0.0
 11
85.29507926708317
 21
62.87147438978698
 31
0.0
  0
LINE
  5
1D7
330
1CD
100
AcDbEntity
  8
0
100
AcDbLine
 10
86.27565994277408
 20
67.77437776824158
 30
0.0
 11
91.68156116209813
 21
94.80388386486182
 31
0.0
  0
MTEXT
  5
1D8
330
1CD
100
AcDbEntity
  8
0
100
AcDbMText
 10
85.78536960492863
 20
65.32292607901428
 30
0.0
 40
1.0
 71
5
  1
62,13
 50
78.69006752597979
  0
POINT
  5
1D9
330
1CD
100
AcDbEntity
  8
Defpoints
100
AcDbPoint
 10
79.69306191262093
 20
34.86138761747583
 30
0.0
  0
POINT
  5
1DA
330
1CD
100
AcDbEntity
  8
Defpoints
100
AcDbPoint
 10
83.61538461538461
 20
34.07692307692308
 30
0.0
  0
POINT
  5
1DB
330
1CD
100
AcDbEntity
  8
Defpoints
100
AcDbPoint
 10
95.8
 20
95.0
 30
0.0
  0
ENDBLK
  5
1CF
330
1CD
100
AcDbEntity
  8
0
100
AcDbBlockEnd
  0
BLOCK
  5
1DF
330
1DE
100
AcDbEntity
  8
0
100
AcDbBlockBegin
  2
*D26
 70
1
 10
0.0
 20
0.0
 30
0.0
  3
*D26
  1

  0
LINE
  5
1E1
330
1DE
100
AcDbEntity
  8
0
100
AcDbLine
 10
35.0
 20
191.0
 30
0.0
 11
35.0
 21
195.0
 31
0.0
  0
LINE
  5
1E2
330
1DE
100
AcDbEntity
  8
0
100
AcDbLine
 10
55.0
 20
191.0
 30
0.0
 11
55.0
 21
195.0
 31
0.0
  0
INSERT
  5
1E3
330
1DE
100
AcDbEntity
  8
0
100
AcDbBlockReference
  2
_CLOSEDFILLED
 10
35.0
 20
195.0
 30
0.0
 50
180.0
  0
INSERT
  5
1E5
330
1DE
100
AcDbEntity
  8
0
100
AcDbBlockReference
  2
_CLOSEDFILLED
 10
55.0
 20
195.0
 30
0.0
  0
LINE
  5
1E7
330
1DE
100
AcDbEntity
  8
0
100
AcDbLine
 10
36.0
 20
195.0
 30
0.0
 11
44.0
 21
195.0
 31
0.0
  0
LINE
  5
1E8
330
1DE
100
AcDbEntity
  8
0
100
AcDbLine
 10
46.0
 20
195.0
 30
0.0
 11
54.0
 21
195.0
 31
0.0
  0
MTEXT
  5
1E9
330
1DE
100
AcDbEntity
  8
0
100
AcDbMText
 10
45.0
 20
195.0
 30
0.0
 40
1.0
 71
5
  1
20
  0
POINT
  5
1EA
330
1DE
100
AcDbEntity
  8
Defpoints
100
AcDbPoint
 10
35.0
 20
195.0
 30
0.0
  0
POINT
  5
1EB
330
1DE
100
AcDbEntity
  8
Defpoints
100
AcDbPoint
 10
35.0
 20
191.0
 30
0.0
  0
POINT
  5
1EC
330
1DE
100
AcDbEntity
  8
Defpoints
100
AcDbPoint
 10
55.0
 20
191.0
 30
0.0
  0
ENDBLK
  5
1E0
330
1DE
100
AcDbEntity
  8
0
100
AcDbBlockEnd
  0
BLOCK
  5
1F0
330
1EF
100
AcDbEntity
  8
0
100
AcDbBlockBegin
  2
*D27
 70
1
 10
0.0
 20
0.0
 30
0.0
  3
*D27
  1

  0
LINE
  5
1F2
330
1EF
100
AcDbEntity
  8
0
100
AcDbLine
 10
148.24
 20
93.32
 30
0.0
 11
147.67431457505072
 21
97.27979797464464
 31
0.0
  0
LINE
  5
1F3
330
1EF
100
AcDbEntity
  8
0
100
AcDbLine
 10
159.99999999999991
 20
95.0
 30
0.0
 11
159.43431457505065
 21
98.95979797464464
 31
0.0
  0
INSERT
  5
1F4
330
1EF
100
AcDbEntity
  8
0
100
AcDbBlockReference
  2
_CLOSEDFILLED
 10
147.67431457505072
 20
97.27979797464464
 30
0.0
 50
188.13010235415607
  0
INSERT
  5
1F6
330
1EF
100
AcDbEntity
  8
0
100
AcDbBlockReference
  2
_CLOSEDFILLED
 10
159.43431457505065
 20
98.95979797464464
 30
0.0
 50
8.130102354156076
  0
LINE
  5
1F8
330
1EF
100
AcDbEntity
  8
0
100
AcDbLine
 10
148.66426406871187
 20
97.42121933088195
 30
0.0
 11
151.07944084089777
 21
97.76624458405136
 31
0.0
  0
LINE
  5
1F9
330
1EF
100
AcDbEntity
  8
0
100
AcDbLine
 10
156.0291883092036
 20
98.47335136523792
 30
0.0
 11
158.4443650813895
 21
98.81837661840733
 31
0.0
  0
MTEXT
  5
1FA
330
1EF
100
AcDbEntity
  8
0
100
AcDbMText
 10
153.55431457505068
 20
98.11979797464464
 30
0.0
 40
1.0
 71
5
  1
11,88
 50
8.130102354156076
  0
POINT
  5
1FB
330
1EF
100
AcDbEntity
  8
Defpoints
100
AcDbPoint
 10
147.67431457505072
 20
97.27979797464464
 30
0.0
  0
POINT
  5
1FC
330
1EF
100
AcDbEntity
  8
Defpoints
100
AcDbPoint
 10
148.24
 20
93.32
 30
0.0
  0
POINT
  5
1FD
330
1EF
100
AcDbEntity
  8
Defpoints
100
AcDbPoint
 10
159.99999999999991
 20
95.0
 30
0.0
  0
ENDBLK
  5
1F1
330
1EF
100
AcDbEntity
  8
0
100
AcDbBlockEnd
  0
BLOCK
  5
201
330
200
100
AcDbEntity
  8
0
100
AcDbBlockBegin
  2
*D28
 70
1
 10
0.0
 20
0.0
 30
0.0
  3
*D28
  1

  0
LINE
  5
203
330
200
100
AcDbEntity
  8
0
100
AcDbLine
 10
91.0
 20
175.0
 30
0.0
 11
87.0
 21
175.0
 31
0.0
  0
LINE
  5
204
330
200
100
AcDbEntity
  8
0
100
AcDbLine
 10
91.0
 20
186.0
 30
0.0
 11
87.0
 21
186.0
 31
0.0
  0
INSERT
  5
205
330
200
100
AcDbEntity
  8
0
100
AcDbBlockReference
  2
_CLOSEDFILLED
 10
87.0
 20
175.0
 30
0.0
 50
270.0
  0
INSERT
  5
207
330
200
100
AcDbEntity
  8
0
100
AcDbBlockReference
  2
_CLOSEDFILLED
 10
87.0
 20
186.0
 30
0.0
 50
90.0
  0
LINE
  5
209
330
200
100
AcDbEntity
  8
0
100
AcDbLine
 10
87.0
 20
176.0
 30
0.0
 11
87.0
 21
179.5
 31
0.0
  0
LINE
  5
20A
330
200
100
AcDbEntity
  8
0
100
AcDbLine
 10
87.0
 20
181.5
 30
0.0
 11
87.0
 21
185.0
 31
0.0
  0
MTEXT
  5
20B
330
200
100
AcDbEntity
  8
0
100
AcDbMText
 10
87.0
 20
180.5
 30
0.0
 40
1.0
 71
5
  1
11
 50
90.0
  0
POINT
  5
20C
330
200
100
AcDbEntity
  8
Defpoints
100
AcDbPoint
 10
87.0
 20
175.0
 30
0.0
  0
POINT
  5
20D
330
200
100
AcDbEntity
  8
Defpoints
100
AcDbPoint
 10
91.0
 20
175.0
 30
0.0
  0
POINT
  5
20E
330
200
100
AcDbEntity
  8
Defpoints
100
AcDbPoint
 10
91.0
 20
186.0
 30
0.0
  0
ENDBLK
  5
202
330
200
100
AcDbEntity
  8
0
100
AcDbBlockEnd
  0
BLOCK
  5
212
330
211
100
AcDbEntity
  8
0
100
AcDbBlockBegin
  2
*D29
 70
1
 10
0.0
 20
0.0
 30
0.0
  3
*D29
  1

  0
LINE
  5
214
330
211
100
AcDbEntity
  8
0
100
AcDbLine
 10
269.0
 20
175.0
 30
0.0
 11
265.0
 21
175.0
 31
0.0
  0
LINE
  5
215
330
211
100
AcDbEntity
  8
0
100
AcDbLine
 10
269.0
 20
183.0
 30
0.0
 11
265.0
 21
183.0
 31
0.0
  0
INSERT
  5
216
330
211
100
AcDbEntity
  8
0
100
AcDbBlockReference
  2
_CLOSEDFILLED
 10
265.0
 20
175.0
 30
0.0
 50
270.0
  0
INSERT
  5
218
330
211
100
AcDbEntity
  8
0
100
AcDbBlockReference
  2
_CLOSEDFILLED
 10
265.0
 20
183.0
 30
0.0
 50
90.0
  0
LINE
  5
21A
330
211
100
AcDbEntity
  8
0
100
AcDbLine
 10
265.0
 20
176.0
 30
0.0
 11
265.0
 21
178.5
 31
0.0
  0
LINE
  5
21B
330
211
100
AcDbEntity
  8
0
100
AcDbLine
 10
265.0
 20
179.5
 30
0.0
 11
265.0
 21
182.0
 31
0.0
  0
MTEXT
  5
21C
330
211
100
AcDbEntity
  8
0
100
AcDbMText
 10
265.0
 20
179.0
 30
0.0
 40
1.0
 71
5
  1
8
 50
90.0
  0
POINT
  5
21D
330
211
100
AcDbEntity
  8
Defpoints
100
AcDbPoint
 10
265.0
 20
175.0
 30
0.0
  0
POINT
  5
21E
330
211
100
AcDbEntity
  8
Defpoints
100
AcDbPoint
 10
269.0
 20
175.0
 30
0.0
  0
POINT
  5
21F
330
211
100
AcDbEntity
  8
Defpoints
100
AcDbPoint
 10
269.0
 20
183.0
 30
0.0
  0
ENDBLK
  5
213
330
211
100
AcDbEntity
  8
0
100
AcDbBlockEnd
  0
BLOCK
  5
223
330
222
100
AcDbEntity
  8
0
100
AcDbBlockBegin
  2
*D30
 70
1
 10
0.0
 20
0.0
 30
0.0
  3
*D30
  1

  0
LINE
  5
225
330
222
100
AcDbEntity
  8
0
100
AcDbLine
 10
247.0
 20
83.0
 30
0.0
 11
247.0
 21
87.0
 31
0.0
  0
LINE
  5
226
330
222
100
AcDbEntity
  8
0
100
AcDbLine
 10
256.0
 20
83.0
 30
0.0
 11
256.0
 21
87.0
 31
0.0
  0
INSERT
  5
227
330
222
100
AcDbEntity
  8
0
100
AcDbBlockReference
  2
_CLOSEDFILLED
 10
247.0
 20
87.0
 30
0.0
 50
180.0
  0
INSERT
  5
229
330
222
100
AcDbEntity
  8
0
100
AcDbBlockReference
  2
_CLOSEDFILLED
 10
256.0
 20
87.0
 30
0.0
  0
LINE
  5
22B
330
222
100
AcDbEntity
  8
0
100
AcDbLine
 10
248.0
 20
87.0
 30
0.0
 11
251.0
 21
87.0
 31
0.0
  0
LINE
  5
22C
330
222
100
AcDbEntity
  8
0
100
AcDbLine
 10
252.0
 20
87.0
 30
0.0
 11
255.0
 21
87.0
 31
0.0
  0
MTEXT
  5
22D
330
222
100
AcDbEntity
  8
0
100
AcDbMText
 10
251.5
 20
87.0
 30
0.0
 40
1.0
 71
5
  1
9
  0
POINT
  5
22E
330
222
100
AcDbEntity
  8
Defpoints
100
AcDbPoint
 10
247.0
 20
87.0
 30
0.0
  0
POINT
  5
22F
330
222
100
AcDbEntity
  8
Defpoints
100
AcDbPoint
 10
247.0
 20
83.0
 30
0.0
  0
POINT
  5
230
330
222
100
AcDbEntity
  8
Defpoints
100
AcDbPoint
 10
256.0
 20
83.0
 30
0.0
  0
ENDBLK
  5
224
330
222
100
AcDbEntity
  8
0
100
AcDbBlockEnd
  0
BLOCK
  5
234
330
233
100
AcDbEntity
  8
0
100
AcDbBlockBegin
  2
*D31
 70
1
 10
0.0
 20
0.0
 30
0.0
  3
*D31
  1

  0
LINE
  5
236
330
233
100
AcDbEntity
  8
0
100
AcDbLine
 10
145.0
 20
107.0
 30
0.0
 11
145.0
 21
111.0
 31
0.0
  0
LINE
  5
237
330
233
100
AcDbEntity
  8
0
100
AcDbLine
 10
156.0
 20
107.0
 30
0.0
 11
156.0
 21
111.0
 31
0.0
  0
INSERT
  5
238
330
233
100
AcDbEntity
  8
0
100
AcDbBlockReference
  2
_CLOSEDFILLED
 10
145.0
 20
111.0
 30
0.0
 50
180.0
  0
INSERT
  5
23A
330
233
100
AcDbEntity
  8
0
100
AcDbBlockReference
  2
_CLOSEDFILLED
 10
156.0
 20
111.0
 30
0.0
  0
LINE
  5
23C
330
233
100
AcDbEntity
  8
0
100
AcDbLine
 10
146.0
 20
111.0
 30
0.0
 11
149.5
 21
111.0
 31
0.0
  0
LINE
  5
23D
330
233
100
AcDbEntity
  8
0
100
AcDbLine
 10
151.5
 20
111.0
 30
0.0
 11
155.0
 21
111.0
 31
0.0
  0
MTEXT
  5
23E
330
233
100
AcDbEntity
  8
0
100
AcDbMText
 10
150.5
 20
111.0
 30
0.0
 40
1.0
 71
5
  1
11
  0
POINT
  5
23F
330
233
100
AcDbEntity
  8
Defpoints
100
AcDbPoint
 10
145.0
 20
111.0
 30
0.0
  0
POINT
  5
240
330
233
100
AcDbEntity
  8
Defpoints
100
AcDbPoint
 10
145.0
 20
107.0
 30
0.0
  0
POINT
  5
241
330
233
100
AcDbEntity
  8
Defpoints
100
AcDbPoint
 10
156.0
 20
107.0
 30
0.0
  0
ENDBLK
  5
235
330
233
100
AcDbEntity
  8
0
100
AcDbBlockEnd
  0
BLOCK
  5
245
330
244
100
AcDbEntity
  8
0
100
AcDbBlockBegin
  2
*D32
 70
1
 10
0.0
 20
0.0
 30
0.0
  3
*D32
  1

  0
LINE
  5
247
330
244
100
AcDbEntity
  8
0
100
AcDbLine
 10
409.9230769230769
 20
12.615384615384615
 30
0.0
 11
410.70754146362964
 21
16.537707318148293
 31
0.0
  0
LINE
  5
248
330
244
100
AcDbEntity
  8
0
100
AcDbLine
 10
419.53846153846155
 20
10.692307692307692
 30
0.0
 11
420.32292607901434
 21
14.614630395071359
 31
0.0
  0
INSERT
  5
249
330
244
100
AcDbEntity
  8
0
100
AcDbBlockReference
  2
_CLOSEDFILLED
 10
410.70754146362964
 20
16.537707318148293
 30
0.0
 50
168.69006752597983
  0
INSERT
  5
24B
330
244
100
AcDbEntity
  8
0
100
AcDbBlockReference
  2
_CLOSEDFILLED
 10
420.32292607901434
 20
14.614630395071359
 30
0.0
 50
-11.309932474020185
  0
LINE
  5
24D
330
244
100
AcDbEntity
  8
0
100
AcDbLine
 10
411.68812213932057
 20
16.34159118301011
 30
0.0
 11
413.5540724199401
 21
15.968401126886203
 31
0.0
  0
LINE
  5
24E
330
244
100
AcDbEntity
  8
0
100
AcDbLine
 10
417.4763951227038
 20
15.18393658633346
 30
0.0
 11
419.3423454033234
 21
14.810746530209542
 31
0.0
  0
MTEXT
  5
24F
330
244
100
AcDbEntity
  8
0
100
AcDbMText
 10
415.51523377132196
 20
15.576168856609826
 30
0.0
 40
1.0
 71
5
  1
9,81
 50
-11.309932474020185
  0
POINT
  5
250
330
244
100
AcDbEntity
  8
Defpoints
100
AcDbPoint
 10
410.70754146362964
 20
16.537707318148293
 30
0.0
  0
POINT
  5
251
330
244
100
AcDbEntity
  8
Defpoints
100
AcDbPoint
 10
409.9230769230769
 20
12.615384615384615
 30
0.0
  0
POINT
  5
252
330
244
100
AcDbEntity
  8
Defpoints
100
AcDbPoint
 10
419.53846153846155
 20
10.692307692307692
 30
0.0
  0
ENDBLK
  5
246
330
244
100
AcDbEntity
  8
0
100
AcDbBlockEnd
  0
BLOCK
  5
256
330
255
100
AcDbEntity
  8
0
100
AcDbBlockBegin
  2
*D33
 70
1
 10
0.0
 20
0.0
 30
0.0
  3
*D33
  1

  0
LINE
  5
258
330
255
100
AcDbEntity
  8
0
100
AcDbLine
 10
28.0
 20
99.0
 30
0.0
 11
24.0
 21
99.0
 31
0.0
  0
LINE
  5
259
330
255
100
AcDbEntity
  8
0
100
AcDbLine
 10
28.0
 20
114.0
 30
0.0
 11
24.0
 21
114.0
 31
0.0
  0
INSERT
  5
25A
330
255
100
AcDbEntity
  8
0
100
AcDbBlockReference
  2
_CLOSEDFILLED
 10
24.0
 20
99.0
 30
0.0
 50
270.0
  0
INSERT
  5
25C
330
255
100
AcDbEntity
  8
0
100
AcDbBlockReference
  2
_CLOSEDFILLED
 10
24.0
 20
114.0
 30
0.0
 50
90.0
  0
LINE
  5
25E
330
255
100
AcDbEntity
  8
0
100
AcDbLine
 10
24.0
 20
100.0
 30
0.0
 11
24.0
 21
105.5
 31
0.0
  0
LINE
  5
25F
330
255
100
AcDbEntity
  8
0
100
AcDbLine
 10
24.0
 20
107.5
 30
0.0
 11
24.0
 21
113.0
 31
0.0
  0
MTEXT
  5
260
330
255
100
AcDbEntity
  8
0
100
AcDbMText
 10
24.0
 20
106.5
 30
0.0
 40
1.0
 71
5
  1
15
 50
90.0
  0
POINT
  5
261
330
255
100
AcDbEntity
  8
Defpoints
100
AcDbPoint
 10
24.0
 20
99.0
 30
0.0
  0
POINT
  5
262
330
255
100
AcDbEntity
  8
Defpoints
100
AcDbPoint
 10
28.0
 20
99.0
 30
0.0
  0
POINT
  5
263
330
255
100
AcDbEntity
  8
Defpoints
100
AcDbPoint
 10
28.0
 20
114.0
 30
0.0
  0
ENDBLK
  5
257
330
255
100
AcDbEntity
  8
0
100
AcDbBlockEnd
  0
BLOCK
  5
267
330
266
100
AcDbEntity
  8
0
100
AcDbBlockBegin
  2
*D34
 70
1
 10
0.0
 20
0.0
 30
0.0
  3
*D34
  1

  0
LINE
  5
269
330
266
100
AcDbEntity
  8
0
100
AcDbLine
 10
456.0
 20
74.0
 30
0.0
 11
452.0
 21
74.0
 31
0.0
  0
LINE
  5
26A
330
266
100
AcDbEntity
  8
0
100
AcDbLine
 10
456.0
 20
114.0
 30
0.0
 11
452.0
 21
114.0
 31
0.0
  0
INSERT
  5
26B
330
266
100
AcDbEntity
  8
0
100
AcDbBlockReference
  2
_CLOSEDFILLED
 10
452.0
 20
74.0
 30
0.0
 50
270.0
  0
INSERT
  5
26D
330
266
100
AcDbEntity
  8
0
100
AcDbBlockReference
  2
_CLOSEDFILLED
 10
452.0
 20
114.0
 30
0.0
 50
90.0
  0
LINE
  5
26F
330
266
100
AcDbEntity
  8
0
100
AcDbLine
 10
452.0
 20
75.0
 30
0.0
 11
452.0
 21
93.0
 31
0.0
  0
LINE
  5
270
330
266
100
AcDbEntity
  8
0
100
AcDbLine
 10
452.0
 20
95.0
 30
0.0
 11
452.0
 21
113.0
 31
0.0
  0
MTEXT
  5
271
330
266
100
AcDbEntity
  8
0
100
AcDbMText
 10
452.0
 20
94.0
 30
0.0
 40
1.0
 71
5
  1
40
 50
90.0
  0
POINT
  5
272
330
266
100
AcDbEntity
  8
Defpoints
100
AcDbPoint
 10
452.0
 20
74.0
 30
0.0
  0
POINT
  5
273
330
266
100
AcDbEntity
  8
Defpoints
100
AcDbPoint
 10
456.0
 20
74.0
 30
0.0
  0
POINT
  5
274
330
266
100
AcDbEntity
  8
Defpoints
100
AcDbPoint
 10
456.0
 20
114.0
 30
0.0
  0
ENDBLK
  5
268
330
266
100
AcDbEntity
  8
0
100
AcDbBlockEnd
  0
ENDSEC
  0
SECTION
  2
ENTITIES
  0
LINE
  5
2F
330
17
100
AcDbEntity
  8
0
100
AcDbLine
 10
75.0
 20
95.0
 30
0.0
 11
159.99999999999994
 21
95.0
 31
0.0
  0
DIMENSION
  5
30
330
17
100
AcDbEntity
  8
0
100
AcDbDimension
280
0
  2
*D1
  3
Standard
 10
75.0
 20
99.0
 30
0.0
 11
117.49999999999997
 21
99.0
 31
0.0
 70
32
 71
5
  1
<>
100
AcDbAlignedDimension
 13
75.0
 23
95.0
 33
0.0
 14
159.99999999999994
 24
95.0
 34
0.0
 50
0.0
100
AcDbRotatedDimension
1001
ACAD
1000
DSTYLE
1002
{
1070
41
1040
1.0
1070
173
1070
0
1070
142
1040
0.0
1070
342
1005
0
1002
}
  0
LINE
  5
44
330
17
100
AcDbEntity
  8
0
100
AcDbLine
 10
214.0
 20
95.0
 30
0.0
 11
261.0
 21
95.0
 31
0.0
  0
DIMENSION
  5
45
330
17
100
AcDbEntity
  8
0
100
AcDbDimension
280
0
  2
*D2
  3
Standard
 10
214.0
 20
99.0
 30
0.0
 11
237.5
 21
99.0
 31
0.0
 70
32
 71
5
  1
<>
100
AcDbAlignedDimension
 13
214.0
 23
95.0
 33
0.0
 14
261.0
 24
95.0
 34
0.0
 50
0.0
100
AcDbRotatedDimension
1001
ACAD
1000
DSTYLE
1002
{
1070
41
1040
1.0
1070
173
1070
0
1070
142
1040
0.0
1070
342
1005
0
1002
}
  0
LINE
  5
55
330
17
100
AcDbEntity
  8
0
100
AcDbLine
 10
273.0
 20
95.0
 30
0.0
 11
313.0
 21
95.0
 31
0.0
  0
DIMENSION
  5
56
330
17
100
AcDbEntity
  8
0
100
AcDbDimension
280
0
  2
*D3
  3
Standard
 10
273.0
 20
99.0
 30
0.0
 11
293.0
 21
99.0
 31
0.0
 70
32
 71
5
  1
<>
100
AcDbAlignedDimension
 13
273.0
 23
95.0
 33
0.0
 14
313.0
 24
95.0
 34
0.0
 50
0.0
100
AcDbRotatedDimension
1001
ACAD
1000
DSTYLE
1002
{
1070
41
1040
1.0
1070
173
1070
0
1070
142
1040
0.0
1070
342
1005
0
1002
}
  0
LINE
  5
66
330
17
100
AcDbEntity
  8
0
100
AcDbLine
 10
338.0
 20
95.0
 30
0.0
 11
420.0
 21
95.0
 31
0.0
  0
DIMENSION
  5
67
330
17
100
AcDbEntity
  8
0
100
AcDbDimension
280
0
  2
*D4
  3
Standard
 10
338.0
 20
99.0
 30
0.0
 11
379.0
 21
99.0
 31
0.0
 70
32
 71
5
  1
<>
100
AcDbAlignedDimension
 13
338.0
 23
95.0
 33
0.0
 14
420.0
 24
95.0
 34
0.0
 50
0.0
100
AcDbRotatedDimension
1001
ACAD
1000
DSTYLE
1002
{
1070
41
1040
1.0
1070
173
1070
0
1070
142
1040
0.0
1070
342
1005
0
1002
}
  0
LINE
  5
77
330
17
100
AcDbEntity
  8
0
100
AcDbLine
 10
437.0
 20
95.0
 30
0.0
 11
473.0
 21
95.0
 31
0.0
  0
DIMENSION
  5
78
330
17
100
AcDbEntity
  8
0
100
AcDbDimension
280
0
  2
*D5
  3
Standard
 10
437.0
 20
99.0
 30
0.0
 11
455.0
 21
99.0
 31
0.0
 70
32
 71
5
  1
<>
100
AcDbAlignedDimension
 13
437.0
 23
95.0
 33
0.0
 14
473.0
 24
95.0
 34
0.0
 50
0.0
100
AcDbRotatedDimension
1001
ACAD
1000
DSTYLE
1002
{
1070
41
1040
1.0
1070
173
1070
0
1070
142
1040
0.0
1070
342
1005
0
1002
}
  0
LINE
  5
88
330
17
100
AcDbEntity
  8
0
100
AcDbLine
 10
75.0
 20
25.0
 30
0.0
 11
75.0
 21
235.0
 31
0.0
  0
DIMENSION
  5
89
330
17
100
AcDbEntity
  8
0
100
AcDbDimension
280
0
  2
*D6
  3
Standard
 10
71.0
 20
25.0
 30
0.0
 11
71.0
 21
130.0
 31
0.0
 70
32
 71
5
  1
<>
100
AcDbAlignedDimension
 13
75.0
 23
25.0
 33
0.0
 14
75.0
 24
235.0
 34
0.0
 50
90.0
100
AcDbRotatedDimension
1001
ACAD
1000
DSTYLE
1002
{
1070
41
1040
1.0
1070
173
1070
0
1070
142
1040
0.0
1070
342
1005
0
1002
}
  0
LINE
  5
99
330
17
100
AcDbEntity
  8
0
100
AcDbLine
 10
338.0
 20
67.0
 30
0.0
 11
458.0
 21
67.0
 31
0.0
  0
DIMENSION
  5
9A
330
17
100
AcDbEntity
  8
0
100
AcDbDimension
280
0
  2
*D7
  3
Standard
 10
338.0
 20
71.0
 30
0.0
 11
398.0
 21
71.0
 31
0.0
 70
32
 71
5
  1
<>
100
AcDbAlignedDimension
 13
338.0
 23
67.0
 33
0.0
 14
458.0
 24
67.0
 34
0.0
 50
0.0
100
AcDbRotatedDimension
1001
ACAD
1000
DSTYLE
1002
{
1070
41
1040
1.0
1070
173
1070
0
1070
142
1040
0.0
1070
342
1005
0
1002
}
  0
LINE
  5
AA
330
17
100
AcDbEntity
  8
0
100
AcDbLine
 10
214.0
 20
128.0
 30
0.0
 11
338.0
 21
128.0
 31
0.0
  0
DIMENSION
  5
AB
330
17
100
AcDbEntity
  8
0
100
AcDbDimension
280
0
  2
*D8
  3
Standard
 10
214.0
 20
132.0
 30
0.0
 11
276.0
 21
132.0
 31
0.0
 70
32
 71
5
  1
<>
100
AcDbAlignedDimension
 13
214.0
 23
128.0
 33
0.0
 14
338.0
 24
128.0
 34
0.0
 50
0.0
100
AcDbRotatedDimension
1001
ACAD
1000
DSTYLE
1002
{
1070
41
1040
1.0
1070
173
1070
0
1070
142
1040
0.0
1070
342
1005
0
1002
}
  0
LINE
  5
BB
330
17
100
AcDbEntity
  8
0
100
AcDbLine
 10
384.0
 20
74.0
 30
0.0
 11
384.0
 21
172.0
 31
0.0
  0
DIMENSION
  5
BC
330
17
100
AcDbEntity
  8
0
100
AcDbDimension
280
0
  2
*D9
  3
Standard
 10
380.0
 20
74.0
 30
0.0
 11
380.0
 21
123.0
 31
0.0
 70
32
 71
5
  1
<>
100
AcDbAlignedDimension
 13
384.0
 23
74.0
 33
0.0
 14
384.0
 24
172.0
 34
0.0
 50
90.0
100
AcDbRotatedDimension
1001
ACAD
1000
DSTYLE
1002
{
1070
41
1040
1.0
1070
173
1070
0
1070
142
1040
0.0
1070
342
1005
0
1002
}
  0
LINE
  5
CC
330
17
100
AcDbEntity
  8
0
100
AcDbLine
 10
115.0
 20
39.0
 30
0.0
 11
214.0
 21
39.0
 31
0.0
  0
DIMENSION
  5
CD
330
17
100
AcDbEntity
  8
0
100
AcDbDimension
280
0
  2
*D10
  3
Standard
 10
115.0
 20
43.0
 30
0.0
 11
164.5
 21
43.0
 31
0.0
 70
32
 71
5
  1
<>
100
AcDbAlignedDimension
 13
115.0
 23
39.0
 33
0.0
 14
214.0
 24
39.0
 34
0.0
 50
0.0
100
AcDbRotatedDimension
1001
ACAD
1000
DSTYLE
1002
{
1070
41
1040
1.0
1070
173
1070
0
1070
142
1040
0.0
1070
342
1005
0
1002
}
  0
LINE
  5
DD
330
17
100
AcDbEntity
  8
0
100
AcDbLine
 10
464.0
 20
74.0
 30
0.0
 11
464.0
 21
231.0
 31
0.0
  0
DIMENSION
  5
DE
330
17
100
AcDbEntity
  8
0
100
AcDbDimension
280
0
  2
*D11
  3
Standard
 10
460.0
 20
74.0
 30
0.0
 11
460.0
 21
152.5
 31
0.0
 70
32
 71
5
  1
<>
100
AcDbAlignedDimension
 13
464.0
 23
74.0
 33
0.0
 14
464.0
 24
231.0
 34
0.0
 50
90.0
100
AcDbRotatedDimension
1001
ACAD
1000
DSTYLE
1002
{
1070
41
1040
1.0
1070
173
1070
0
1070
142
1040
0.0
1070
342
1005
0
1002
}
  0
LINE
  5
EE
330
17
100
AcDbEntity
  8
0
100
AcDbLine
 10
29.0
 20
25.0
 30
0.0
 11
115.0
 21
25.0
 31
0.0
  0
DIMENSION
  5
EF
330
17
100
AcDbEntity
  8
0
100
AcDbDimension
280
0
  2
*D12
  3
Standard
 10
29.0
 20
29.0
 30
0.0
 11
72.0
 21
29.0
 31
0.0
 70
32
 71
5
  1
<>
100
AcDbAlignedDimension
 13
29.0
 23
25.0
 33
0.0
 14
115.0
 24
25.0
 34
0.0
 50
0.0
100
AcDbRotatedDimension
1001
ACAD
1000
DSTYLE
1002
{
1070
41
1040
1.0
1070
173
1070
0
1070
142
1040
0.0
1070
342
1005
0
1002
}
  0
LINE
  5
FF
330
17
100
AcDbEntity
  8
0
100
AcDbLine
 10
406.0
 20
25.0
 30
0.0
 11
447.0
 21
25.0
 31
0.0
  0
DIMENSION
  5
100
330
17
100
AcDbEntity
  8
0
100
AcDbDimension
280
0
  2
*D13
  3
Standard
 10
406.0
 20
29.0
 30
0.0
 11
426.5
 21
29.0
 31
0.0
 70
32
 71
5
  1
<>
100
AcDbAlignedDimension
 13
406.0
 23
25.0
 33
0.0
 14
447.0
 24
25.0
 34
0.0
 50
0.0
100
AcDbRotatedDimension
1001
ACAD
1000
DSTYLE
1002
{
1070
41
1040
1.0
1070
173
1070
0
1070
142
1040
0.0
1070
342
1005
0
1002
}
  0
LINE
  5
110
330
17
100
AcDbEntity
  8
0
100
AcDbLine
 10
214.0
 20
39.0
 30
0.0
 11
214.0
 21
203.0
 31
0.0
  0
DIMENSION
  5
111
330
17
100
AcDbEntity
  8
0
100
AcDbDimension
280
0
  2
*D14
  3
Standard
 10
210.0
 20
39.0
 30
0.0
 11
210.0
 21
121.0
 31
0.0
 70
32
 71
5
  1
<>
100
AcDbAlignedDimension
 13
214.0
 23
39.0
 33
0.0
 14
214.0
 24
203.0
 34
0.0
 50
90.0
100
AcDbRotatedDimension
1001
ACAD
1000
DSTYLE
1002
{
1070
41
1040
1.0
1070
173
1070
0
1070
142
1040
0.0
1070
342
1005
0
1002
}
  0
LINE
  5
121
330
17
100
AcDbEntity
  8
0
100
AcDbLine
 10
338.0
 20
121.0
 30
0.0
 11
464.0
 21
121.0
 31
0.0
  0
DIMENSION
  5
122
330
17
100
AcDbEntity
  8
0
100
AcDbDimension
280
0
  2
*D15
  3
Standard
 10
338.0
 20
125.0
 30
0.0
 11
401.0
 21
125.0
 31
0.0
 70
32
 71
5
  1
<>
100
AcDbAlignedDimension
 13
338.0
 23
121.0
 33
0.0
 14
464.0
 24
121.0
 34
0.0
 50
0.0
100
AcDbRotatedDimension
1001
ACAD
1000
DSTYLE
1002
{
1070
41
1040
1.0
1070
173
1070
0
1070
142
1040
0.0
1070
342
1005
0
1002
}
  0
LINE
  5
132
330
17
100
AcDbEntity
  8
0
100
AcDbLine
 10
79.11111111111111
 20
162.0
 30
0.0
 11
94.94736842105263
 21
90.73684210526315
 31
0.0
  0
DIMENSION
  5
133
330
17
100
AcDbEntity
  8
0
100
AcDbDimension
280
0
  2
*D16
  3
Standard
 10
83.01585935184691
 20
162.86772183127465
 30
0.0
 11
90.93398800681769
 21
127.23614288390621
 31
0.0
 70
32
 71
5
  1
<>
100
AcDbAlignedDimension
 13
79.11111111111111
 23
162.0
 33
0.0
 14
94.94736842105263
 24
90.73684210526315
 34
0.0
 50
-77.47119229084849
100
AcDbRotatedDimension
1001
ACAD
1000
DSTYLE
1002
{
1070
41
1040
1.0
1070
173
1070
0
1070
142
1040
0.0
1070
342
1005
0
1002
}
  0
LINE
  5
143
330
17
100
AcDbEntity
  8
0
100
AcDbLine
 10
214.0
 20
57.0
 30
0.0
 11
338.0
 21
57.0
 31
0.0
  0
DIMENSION
  5
144
330
17
100
AcDbEntity
  8
0
100
AcDbDimension
280
0
  2
*D17
  3
Standard
 10
214.0
 20
61.0
 30
0.0
 11
276.0
 21
61.0
 31
0.0
 70
32
 71
5
  1
<>
100
AcDbAlignedDimension
 13
214.0
 23
57.0
 33
0.0
 14
338.0
 24
57.0
 34
0.0
 50
0.0
100
AcDbRotatedDimension
1001
ACAD
1000
DSTYLE
1002
{
1070
41
1040
1.0
1070
173
1070
0
1070
142
1040
0.0
1070
342
1005
0
1002
}
  0
LINE
  5
154
330
17
100
AcDbEntity
  8
0
100
AcDbLine
 10
28.0
 20
114.0
 30
0.0
 11
41.0
 21
114.0
 31
0.0
  0
DIMENSION
  5
155
330
17
100
AcDbEntity
  8
0
100
AcDbDimension
280
0
  2
*D18
  3
Standard
 10
28.0
 20
118.0
 30
0.0
 11
34.5
 21
118.0
 31
0.0
 70
32
 71
5
  1
<>
100
AcDbAlignedDimension
 13
28.0
 23
114.0
 33
0.0
 14
41.0
 24
114.0
 34
0.0
 50
0.0
100
AcDbRotatedDimension
1001
ACAD
1000
DSTYLE
1002
{
1070
41
1040
1.0
1070
173
1070
0
1070
142
1040
0.0
1070
342
1005
0
1002
}
  0
LINE
  5
165
330
17
100
AcDbEntity
  8
0
100
AcDbLine
 10
384.0
 20
114.0
 30
0.0
 11
456.0
 21
114.0
 31
0.0
  0
DIMENSION
  5
166
330
17
100
AcDbEntity
  8
0
100
AcDbDimension
280
0
  2
*D19
  3
Standard
 10
384.0
 20
118.0
 30
0.0
 11
420.0
 21
118.0
 31
0.0
 70
32
 71
5
  1
<>
100
AcDbAlignedDimension
 13
384.0
 23
114.0
 33
0.0
 14
456.0
 24
114.0
 34
0.0
 50
0.0
100
AcDbRotatedDimension
1001
ACAD
1000
DSTYLE
1002
{
1070
41
1040
1.0
1070
173
1070
0
1070
142
1040
0.0
1070
342
1005
0
1002
}
  0
LINE
  5
176
330
17
100
AcDbEntity
  8
0
100
AcDbLine
 10
384.0
 20
74.0
 30
0.0
 11
456.0
 21
74.0
 31
0.0
  0
DIMENSION
  5
177
330
17
100
AcDbEntity
  8
0
100
AcDbDimension
280
0
  2
*D20
  3
Standard
 10
384.0
 20
78.0
 30
0.0
 11
420.0
 21
78.0
 31
0.0
 70
32
 71
5
  1
<>
100
AcDbAlignedDimension
 13
384.0
 23
74.0
 33
0.0
 14
456.0
 24
74.0
 34
0.0
 50
0.0
100
AcDbRotatedDimension
1001
ACAD
1000
DSTYLE
1002
{
1070
41
1040
1.0
1070
173
1070
0
1070
142
1040
0.0
1070
342
1005
0
1002
}
  0
LINE
  5
187
330
17
100
AcDbEntity
  8
0
100
AcDbLine
 10
115.0
 20
25.0
 30
0.0
 11
115.0
 21
189.0
 31
0.0
  0
DIMENSION
  5
188
330
17
100
AcDbEntity
  8
0
100
AcDbDimension
280
0
  2
*D21
  3
Standard
 10
111.0
 20
25.0
 30
0.0
 11
111.0
 21
107.0
 31
0.0
 70
32
 71
5
  1
<>
100
AcDbAlignedDimension
 13
115.0
 23
25.0
 33
0.0
 14
115.0
 24
189.0
 34
0.0
 50
90.0
100
AcDbRotatedDimension
1001
ACAD
1000
DSTYLE
1002
{
1070
41
1040
1.0
1070
173
1070
0
1070
142
1040
0.0
1070
342
1005
0
1002
}
  0
LINE
  5
198
330
17
100
AcDbEntity
  8
0
100
AcDbLine
 10
29.0
 20
162.0
 30
0.0
 11
115.0
 21
162.0
 31
0.0
  0
DIMENSION
  5
199
330
17
100
AcDbEntity
  8
0
100
AcDbDimension
280
0
  2
*D22
  3
Standard
 10
29.0
 20
166.0
 30
0.0
 11
72.0
 21
166.0
 31
0.0
 70
32
 71
5
  1
<>
100
AcDbAlignedDimension
 13
29.0
 23
162.0
 33
0.0
 14
115.0
 24
162.0
 34
0.0
 50
0.0
100
AcDbRotatedDimension
1001
ACAD
1000
DSTYLE
1002
{
1070
41
1040
1.0
1070
173
1070
0
1070
142
1040
0.0
1070
342
1005
0
1002
}
  0
LINE
  5
1A9
330
17
100
AcDbEntity
  8
0
100
AcDbLine
 10
338.0
 20
57.0
 30
0.0
 11
338.0
 21
203.0
 31
0.0
  0
DIMENSION
  5
1AA
330
17
100
AcDbEntity
  8
0
100
AcDbDimension
280
0
  2
*D23
  3
Standard
 10
334.0
 20
57.0
 30
0.0
 11
334.0
 21
130.0
 31
0.0
 70
32
 71
5
  1
<>
100
AcDbAlignedDimension
 13
338.0
 23
57.0
 33
0.0
 14
338.0
 24
203.0
 34
0.0
 50
90.0
100
AcDbRotatedDimension
1001
ACAD
1000
DSTYLE
1002
{
1070
41
1040
1.0
1070
173
1070
0
1070
142
1040
0.0
1070
342
1005
0
1002
}
  0
LINE
  5
1BA
330
17
100
AcDbEntity
  8
0
100
AcDbLine
 10
115.0
 20
145.0
 30
0.0
 11
214.0
 21
145.0
 31
0.0
  0
DIMENSION
  5
1BB
330
17
100
AcDbEntity
  8
0
100
AcDbDimension
280
0
  2
*D24
  3
Standard
 10
115.0
 20
149.0
 30
0.0
 11
164.5
 21
149.0
 31
0.0
 70
32
 71
5
  1
<>
100
AcDbAlignedDimension
 13
115.0
 23
145.0
 33
0.0
 14
214.0
 24
145.0
 34
0.0
 50
0.0
100
AcDbRotatedDimension
1001
ACAD
1000
DSTYLE
1002
{
1070
41
1040
1.0
1070
173
1070
0
1070
142
1040
0.0
1070
342
1005
0
1002
}
  0
LINE
  5
1CB
330
17
100
AcDbEntity
  8
0
100
AcDbLine
 10
83.61538461538461
 20
34.07692307692308
 30
0.0
 11
95.8
 21
95.0
 31
0.0
  0
DIMENSION
  5
1CC
330
17
100
AcDbEntity
  8
0
100
AcDbDimension
280
0
  2
*D25
  3
Standard
 10
79.69306191262093
 20
34.86138761747583
 30
0.0
 11
85.78536960492863
 21
65.32292607901428
 31
0.0
 70
32
 71
5
  1
<>
100
AcDbAlignedDimension
 13
83.61538461538461
 23
34.07692307692308
 33
0.0
 14
95.8
 24
95.0
 34
0.0
 50
78.69006752597979
100
AcDbRotatedDimension
1001
ACAD
1000
DSTYLE
1002
{
1070
41
1040
1.0
1070
173
1070
0
1070
142
1040
0.0
1070
342
1005
0
1002
}
  0
LINE
  5
1DC
330
17
100
AcDbEntity
  8
0
100
AcDbLine
 10
35.0
 20
191.0
 30
0.0
 11
55.0
 21
191.0
 31
0.0
  0
DIMENSION
  5
1DD
330
17
100
AcDbEntity
  8
0
100
AcDbDimension
280
0
  2
*D26
  3
Standard
 10
35.0
 20
195.0
 30
0.0
 11
45.0
 21
195.0
 31
0.0
 70
32
 71
5
  1
<>
100
AcDbAlignedDimension
 13
35.0
 23
191.0
 33
0.0
 14
55.0
 24
191.0
 34
0.0
 50
0.0
100
AcDbRotatedDimension
1001
ACAD
1000
DSTYLE
1002
{
1070
41
1040
1.0
1070
173
1070
0
1070
142
1040
0.0
1070
342
1005
0
1002
}
  0
LINE
  5
1ED
330
17
100
AcDbEntity
  8
0
100
AcDbLine
 10
148.24
 20
93.32
 30
0.0
 11
159.99999999999991
 21
95.0
 31
0.0
  0
DIMENSION
  5
1EE
330
17
100
AcDbEntity
  8
0
100
AcDbDimension
280
0
  2
*D27
  3
Standard
 10
147.67431457505072
 20
97.27979797464464
 30
0.0
 11
153.55431457505068
 21
98.11979797464464
 31
0.0
 70
32
 71
5
  1
<>
100
AcDbAlignedDimension
 13
148.24
 23
93.32
 33
0.0
 14
159.99999999999991
 24
95.0
 34
0.0
 50
8.130102354156076
100
AcDbRotatedDimension
1001
ACAD
1000
DSTYLE
1002
{
1070
41
1040
1.0
1070
173
1070
0
1070
142
1040
0.0
1070
342
1005
0
1002
}
  0
LINE
  5
1FE
330
17
100
AcDbEntity
  8
0
100
AcDbLine
 10
91.0
 20
175.0
 30
0.0
 11
91.0
 21
186.0
 31
0.0
  0
DIMENSION
  5
1FF
330
17
100
AcDbEntity
  8
0
100
AcDbDimension
280
0
  2
*D28
  3
Standard
 10
87.0
 20
175.0
 30
0.0
 11
87.0
 21
180.5
 31
0.0
 70
32
 71
5
  1
<>
100
AcDbAlignedDimension
 13
91.0
 23
175.0
 33
0.0
 14
91.0
 24
186.0
 34
0.0
 50
90.0
100
AcDbRotatedDimension
1001
ACAD
1000
DSTYLE
1002
{
1070
41
1040
1.0
1070
173
1070
0
1070
142
1040
0.0
1070
342
1005
0
1002
}
  0
LINE
  5
20F
330
17
100
AcDbEntity
  8
0
100
AcDbLine
 10
269.0
 20
175.0
 30
0.0
 11
269.0
 21
183.0
 31
0.0
  0
DIMENSION
  5
210
330
17
100
AcDbEntity
  8
0
100
AcDbDimension
280
0
  2
*D29
  3
Standard
 10
265.0
 20
175.0
 30
0.0
 11
265.0
 21
179.0
 31
0.0
 70
32
 71
5
  1
<>
100
AcDbAlignedDimension
 13
269.0
 23
175.0
 33
0.0
 14
269.0
 24
183.0
 34
0.0
 50
90.0
100
AcDbRotatedDimension
1001
ACAD
1000
DSTYLE
1002
{
1070
41
1040
1.0
1070
173
1070
0
1070
142
1040
0.0
1070
342
1005
0
1002
}
  0
LINE
  5
220
330
17
100
AcDbEntity
  8
0
100
AcDbLine
 10
247.0
 20
83.0
 30
0.0
 11
256.0
 21
83.0
 31
0.0
  0
DIMENSION
  5
221
330
17
100
AcDbEntity
  8
0
100
AcDbDimension
280
0
  2
*D30
  3
Standard
 10
247.0
 20
87.0
 30
0.0
 11
251.5
 21
87.0
 31
0.0
 70
32
 71
5
  1
<>
100
AcDbAlignedDimension
 13
247.0
 23
83.0
 33
0.0
 14
256.0
 24
83.0
 34
0.0
 50
0.0
100
AcDbRotatedDimension
1001
ACAD
1000
DSTYLE
1002
{
1070
41
1040
1.0
1070
173
1070
0
1070
142
1040
0.0
1070
342
1005
0
1002
}
  0
LINE
  5
231
330
17
100
AcDbEntity
  8
0
100
AcDbLine
 10
145.0
 20
107.0
 30
0.0
 11
156.0
 21
107.0
 31
0.0
  0
DIMENSION
  5
232
330
17
100
AcDbEntity
  8
0
100
AcDbDimension
280
0
  2
*D31
  3
Standard
 10
145.0
 20
111.0
 30
0.0
 11
150.5
 21
111.0
 31
0.0
 70
32
 71
5
  1
<>
100
AcDbAlignedDimension
 13
145.0
 23
107.0
 33
0.0
 14
156.0
 24
107.0
 34
0.0
 50
0.0
100
AcDbRotatedDimension
1001
ACAD
1000
DSTYLE
1002
{
1070
41
1040
1.0
1070
173
1070
0
1070
142
1040
0.0
1070
342
1005
0
1002
}
  0
LINE
  5
242
330
17
100
AcDbEntity
  8
0
100
AcDbLine
 10
409.9230769230769
 20
12.615384615384615
 30
0.0
 11
419.53846153846155
 21
10.692307692307692
 31
0.0
  0
DIMENSION
  5
243
330
17
100
AcDbEntity
  8
0
100
AcDbDimension
280
0
  2
*D32
  3
Standard
 10
410.70754146362964
 20
16.537707318148293
 30
0.0
 11
415.51523377132196
 21
15.576168856609826
 31
0.0
 70
32
 71
5
  1
<>
100
AcDbAlignedDimension
 13
409.9230769230769
 23
12.615384615384615
 33
0.0
 14
419.53846153846155
 24
10.692307692307692
 34
0.0
 50
-11.309932474020185
100
AcDbRotatedDimension
1001
ACAD
1000
DSTYLE
1002
{
1070
41
1040
1.0
1070
173
1070
0
1070
142
1040
0.0
1070
342
1005
0
1002
}
  0
LINE
  5
253
330
17
100
AcDbEntity
  8
0
100
AcDbLine
 10
28.0
 20
99.0
 30
0.0
 11
28.0
 21
114.0
 31
0.0
  0
DIMENSION
  5
254
330
17
100
AcDbEntity
  8
0
100
AcDbDimension
280
0
  2
*D33
  3
Standard
 10
24.0
 20
99.0
 30
0.0
 11
24.0
 21
106.5
 31
0.0
 70
32
 71
5
  1
<>
100
AcDbAlignedDimension
 13
28.0
 23
99.0
 33
0.0
 14
28.0
 24
114.0
 34
0.0
 50
90.0
100
AcDbRotatedDimension
1001
ACAD
1000
DSTYLE
1002
{
1070
41
1040
1.0
1070
173
1070
0
1070
142
1040
0.0
1070
342
1005
0
1002
}
  0
LINE
  5
264
330
17
100
AcDbEntity
  8
0
100
AcDbLine
 10
456.0
 20
74.0
 30
0.0
 11
456.0
 21
114.0
 31
0.0
  0
DIMENSION
  5
265
330
17
100
AcDbEntity
  8
0
100
AcDbDimension
280
0
  2
*D34
  3
Standard
 10
452.0
 20
74.0
 30
0.0
 11
452.0
 21
94.0
 31
0.0
 70
32
 71
5
  1
<>
100
AcDbAlignedDimension
 13
456.0
 23
74.0
 33
0.0
 14
456.0
 24
114.0
 34
0.0
 50
90.0
100
AcDbRotatedDimension
1001
ACAD
1000
DSTYLE
1002
{
1070
41
1040
1.0
1070
173
1070
0
1070
142
1040
0.0
1070
342
1005
0
1002
}
  0
ENDSEC
  0
SECTION
  2
OBJECTS
  0
DICTIONARY
  5
A
330
0
100
AcDbDictionary
280
0
281
1
  3
ACAD_COLOR
350
B
  3
ACAD_GROUP
350
C
  3
ACAD_LAYOUT
350
D
  3
ACAD_MATERIAL
350
E
  3
ACAD_MLEADERSTYLE
350
F
  3
ACAD_MLINESTYLE
350
10
  3
ACAD_PLOTSETTINGS
350
11
  3
ACAD_PLOTSTYLENAME
350
12
  3
ACAD_SCALELIST
350
14
  3
ACAD_TABLESTYLE
350
15
  3
ACAD_VISUALSTYLE
350
16
  3
EZDXF_META
350
2D
  0
DICTIONARY
  5
B
330
A
100
AcDbDictionary
280
0
281
1
  0
DICTIONARY
  5
C
330
A
100
AcDbDictionary
280
0
281
1
  0
DICTIONARY
  5
D
330
A
100
AcDbDictionary
280
0
281
1
  3
Model
350
1A
  3
Layout1
350
1E
  0
DICTIONARY
  5
E
330
A
100
AcDbDictionary
280
0
281
1
  3
ByBlock
350
1F
  3
ByLayer
350
20
  3
Global
350
21
  0
DICTIONARY
  5
F
330
A
100
AcDbDictionary
280
0
281
1
  3
Standard
350
2C
  0
DICTIONARY
  5
10
330
A
100
AcDbDictionary
280
0
281
1
  3
Standard
350
22
  0
DICTIONARY
  5
11
330
A
100
AcDbDictionary
280
0
281
1
  0
ACDBDICTIONARYWDFLT
  5
12
330
A
100
AcDbDictionary
280
0
281
1
  3
Normal
350
13
100
AcDbDictionaryWithDefault
340
13
  0
ACDBPLACEHOLDER
  5
13
330
12
  0
DICTIONARY
  5
14
330
A
100
AcDbDictionary
280
0
281
1
  0
DICTIONARY
  5
15
330
A
100
AcDbDictionary
280
0
281
1
  0
DICTIONARY
  5
16
330
A
100
AcDbDictionary
280
0
281
1
  0
LAYOUT
  5
1A
330
D
100
AcDbPlotSettings
  1

  2
Adobe PDF
  4
A3
  6

 40
7.5
 41
20.0
 42
7.5
 43
20.0
 44
420.0
 45
297.0
 46
0.0
 47
0.0
 48
0.0
 49
0.0
140
0.0
141
0.0
142
1.0
143
1.0
 70
1024
 72
1
 73
0
 74
5
  7

 75
16
 76
0
 77
2
 78
300
147
1.0
148
0.0
149
0.0
100
AcDbLayout
  1
Model
 70
1
 71
0
 10
0.0
 20
0.0
 11
420.0
 21
297.0
 12
0.0
 22
0.0
 32
0.0
 14
1e+20
 24
1e+20
 34
1e+20
 15
-1e+20
 25
-1e+20
 35
-1e+20
146
0.0
 13
0.0
 23
0.0
 33
0.0
 16
1.0
 26
0.0
 36
0.0
 17
0.0
 27
1.0
 37
0.0
 76
1
330
17
  0
LAYOUT
  5
1E
330
D
100
AcDbPlotSettings
  1

  2
Adobe PDF
  4
A3
  6

 40
7.5
 41
20.0
 42
7.5
 43
20.0
 44
420.0
 45
297.0
 46
0.0
 47
0.0
 48
0.0
 49
0.0
140
0.0
141
0.0
142
1.0
143
1.0
 70
0
 72
1
 73
0
 74
5
  7

 75
16
 76
0
 77
2
 78
300
147
1.0
148
0.0
149
0.0
100
AcDbLayout
  1
Layout1
 70
1
 71
1
 10
0.0
 20
0.0
 11
420.0
 21
297.0
 12
0.0
 22
0.0
 32
0.0
 14
1e+20
 24
1e+20
 34
1e+20
 15
-1e+20
 25
-1e+20
 35
-1e+20
146
0.0
 13
0.0
 23
0.0
 33
0.0
 16
1.0
 26
0.0
 36
0.0
 17
0.0
 27
1.0
 37
0.0
 76
1
330
1B
  0
MATERIAL
  5
1F
102
{ACAD_REACTORS
330
E
102
}
330
E
100
AcDbMaterial
  1
ByBlock
  2

 70
0
 40
1.0
 71
1
 41
1.0
 91
-1023410177
 42
1.0
 72
1
  3

 73
1
 74
1
 75
1
 44
0.5
 73
0
 45
1.0
 46
1.0
 77
1
  4

 78
1
 79
1
170
1
 48
1.0
171
1
  6

172
1
173
1
174
1
140
1.0
141
1.0
175
1
  7

176
1
177
1
178
1
143
1.0
179
1
  8

270
1
271
1
272
1
145
1.0
146
1.0
273
1
  9

274
1
275
1
276
1
 42
1.0
 72
1
  3

 73
1
 74
1
 75
1
 94
63
  0
MATERIAL
  5
20
102
{ACAD_REACTORS
330
E
102
}
330
E
100
AcDbMaterial
  1
ByLayer
  2

 70
0
 40
1.0
 71
1
 41
1.0
 91
-1023410177
 42
1.0
 72
1
  3

 73
1
 74
1
 75
1
 44
0.5
 73
0
 45
1.0
 46
1.0
 77
1
  4

 78
1
 79
1
170
1
 48
1.0
171
1
  6

172
1
173
1
174
1
140
1.0
141
1.0
175
1
  7

176
1
177
1
178
1
143
1.0
179
1
  8

270
1
271
1
272
1
145
1.0
146
1.0
273
1
  9

274
1
275
1
276
1
 42
1.0
 72
1
  3

 73
1
 74
1
 75
1
 94
63
  0
MATERIAL
  5
21
102
{ACAD_REACTORS
330
E
102
}
330
E
100
AcDbMaterial
  1
Global
  2

 70
0
 40
1.0
 71
1
 41
1.0
 91
-1023410177
 42
1.0
 72
1
  3

 73
1
 74
1
 75
1
 44
0.5
 73
0
 45
1.0
 46
1.0
 77
1
  4

 78
1
 79
1
170
1
 48
1.0
171
1
  6

172
1
173
1
174
1
140
1.0
141
1.0
175
1
  7

176
1
177
1
178
1
143
1.0
179
1
  8

270
1
271
1
272
1
145
1.0
146
1.0
273
1
  9

274
1
275
1
276
1
 42
1.0
 72
1
  3

 73
1
 74
1
 75
1
 94
63
  0
MLINESTYLE
  5
22
102
{ACAD_REACTORS
330
10
102
}
330
10
100
AcDbMlineStyle
  2
Standard
 70
0
  3

 62
256
 51
90.0
 52
90.0
 71
2
 49
0.5
 62
256
  6
BYLAYER
 49
-0.5
 62
256
  6
BYLAYER
  0
MLEADERSTYLE
  5
2C
102
{ACAD_REACTORS
330
F
102
}
330
F
100
AcDbMLeaderStyle
179
2
170
2
171
1
172
0
 90
2
 40
0.0
 41
0.0
173
1
 91
-1056964608
 92
-2
290
1
 42
2.0
291
1
 43
8.0
  3
Standard
 44
4.0
300

342
29
174
1
175
1
176
0
178
1
 93
-1056964608
 45
4.0
292
0
297
0
 46
4.0
 94
-1056964608
 47
1.0
 49
1.0
140
1.0
294
1
141
0.0
177
0
142
1.0
295
0
296
0
143
3.75
271
0
272
9
273
9
  0
DICTIONARY
  5
2D
330
A
100
AcDbDictionary
281
1
  3
CREATED_BY_EZDXF
350
2E
  3
WRITTEN_BY_EZDXF
350
277
  0
DICTIONARYVAR
  5
2E
330
2D
100
DictionaryVariables
280
0
  1
1.0.3 @ 2023-10-09T12:06:59.463004+00:00
  0
DICTIONARYVAR
  5
277
330
2D
100
DictionaryVariables
280
0
  1
1.0.3 @ 2023-10-09T12:06:59.491647+00:00
  0
ENDSEC
  0
EOF
