  0
SECTION
  2
HEADER
  9
$ACADVER
  1
AC1024
  9
$ACADMAINTVER
 70
6
  9
$DWGCODEPAGE
  3
ANSI_1252
  9
$LASTSAVEDBY
  1
ezdxf
  9
$INSBASE
 10
0.0
 20
0.0
 30
0.0
  9
$EXTMIN
 10
1e+20
 20
1e+20
 30
1e+20
  9
$EXTMAX
 10
-1e+20
 20
-1e+20
 30
-1e+20
  9
$LIMMIN
 10
0.0
 20
0.0
  9
$LIMMAX
 10
420.0
 20
297.0
  9
$ORTHOMODE
 70
0
  9
$REGENMODE
 70
1
  9
$FILLMODE
 70
1
  9
$QTEXTMODE
 70
0
  9
$MIRRTEXT
 70
1
  9
$LTSCALE
 40
1.0
  9
$ATTMODE
 70
1
  9
$TEXTSIZE
 40
2.5
  9
$TRACEWID
 40
1.0
  9
$TEXTSTYLE
  7
Standard
  9
$CLAYER
  8
0
  9
$CELTYPE
  6
ByLayer
  9
$CECOLOR
 62
256
  9
$CELTSCALE
 40
1.0
  9
$DISPSILH
 70
0
  9
$DIMSCALE
 40
1.0
  9
$DIMASZ
 40
2.5
  9
$DIMEXO
 40
0.625
  9
$DIMDLI
 40
3.75
  9
$DIMRND
 40
0.0
  9
$DIMDLE
 40
0.0
  9
$DIMEXE
 40
1.25
  9
$DIMTP
 40
0.0
  9
$DIMTM
 40
0.0
  9
$DIMTXT
 40
2.5
  9
$DIMCEN
 40
2.5
  9
$DIMTSZ
 40
0.0
  9
$DIMTOL
 70
0
  9
$DIMLIM
 70
0
  9
$DIMTIH
 70
0
  9
$DIMTOH
 70
0
  9
$DIMSE1
 70
0
  9
$DIMSE2
 70
0
  9
$DIMTAD
 70
1
  9
$DIMZIN
 70
8
  9
$DIMBLK
  1

  9
$DIMASO
 70
1
  9
$DIMSHO
 70
1
  9
$DIMPOST
  1

  9
$DIMAPOST
  1

  9
$DIMALT
 70
0
  9
$DIMALTD
 70
3
  9
$DIMALTF
 40
0.03937007874
  9
$DIMLFAC
 40
1.0
  9
$DIMTOFL
 70
1
  9
$DIMTVP
 40
0.0
  9
$DIMTIX
 70
0
  9
$DIMSOXD
 70
0
  9
$DIMSAH
 70
0
  9
$DIMBLK1
  1

  9
$DIMBLK2
  1

  9
$DIMSTYLE
  2
ISO-25
  9
$DIMCLRD
 70
0
  9
$DIMCLRE
 70
0
  9
$DIMCLRT
 70
0
  9
$DIMTFAC
 40
1.0
  9
$DIMGAP
 40
0.625
  9
$DIMJUST
 70
0
  9
$DIMSD1
 70
0
  9
$DIMSD2
 70
0
  9
$DIMTOLJ
 70
0
  9
$DIMTZIN
 70
8
  9
$DIMALTZ
 70
0
  9
$DIMALTTZ
 70
0
  9
$DIMUPT
 70
0
  9
$DIMDEC
 70
2
  9
$DIMTDEC
 70
2
  9
$DIMALTU
 70
2
  9
$DIMALTTD
 70
3
  9
$DIMTXSTY
  7
Standard
  9
$DIMAUNIT
 70
0
  9
$DIMADEC
 70
0
  9
$DIMALTRND
 40
0.0
  9
$DIMAZIN
 70
0
  9
$DIMDSEP
 70
44
  9
$DIMATFIT
 70
3
  9
$DIMFRAC
 70
0
  9
$DIMLDRBLK
  1

  9
$DIMLUNIT
 70
2
  9
$DIMLWD
 70
-2
  9
$DIMLWE
 70
-2
  9
$DIMTMOVE
 70
0
  9
$DIMFXL
 40
1.0
  9
$DIMFXLON
 70
0
  9
$DIMJOGANG
 40
0.785398163397
  9
$DIMTFILL
 70
0
  9
$DIMTFILLCLR
 70
0
  9
$DIMARCSYM
 70
0
  9
$DIMLTYPE
  6

  9
$DIMLTEX1
  6

  9
$DIMLTEX2
  6

  9
$DIMTXTDIRECTION
 70
0
  9
$LUNITS
 70
2
  9
$LUPREC
 70
4
  9
$SKETCHINC
 40
1.0
  9
$FILLETRAD
 40
10.0
  9
$AUNITS
 70
0
  9
$AUPREC
 70
2
  9
$MENU
  1
.
  9
$ELEVATION
 40
0.0
  9
$PELEVATION
 40
0.0
  9
$THICKNESS
 40
0.0
  9
$LIMCHECK
 70
0
  9
$CHAMFERA
 40
0.0
  9
$CHAMFERB
 40
0.0
  9
$CHAMFERC
 40
0.0
  9
$CHAMFERD
 40
0.0
  9
$SKPOLY
 70
0
  9
$TDCREATE
 40
2460223.659074074
  9
$TDUCREATE
 40
2458532.153996898
  9
$TDUPDATE
 40
2460223.659085648
  9
$TDUUPDATE
 40
2458532.1544311
  9
$TDINDWG
 40
0.0
  9
$TDUSRTIMER
 40
0.0
  9
$USRTIMER
 70
1
  9
$ANGBASE
 50
0.0
  9
$ANGDIR
 70
0
  9
$PDMODE
 70
0
  9
$PDSIZE
 40
0.0
  9
$PLINEWID
 40
0.0
  9
$SPLFRAME
 70
0
  9
$SPLINETYPE
 70
6
  9
$SPLINESEGS
 70
8
  9
$HANDSEED
  5
2DD
  9
$SURFTAB1
 70
6
  9
$SURFTAB2
 70
6
  9
$SURFTYPE
 70
6
  9
$SURFU
 70
6
  9
$SURFV
 70
6
  9
$UCSBASE
  2

  9
$UCSNAME
  2

  9
$UCSORG
 10
0.0
 20
0.0
 30
0.0
  9
$UCSXDIR
 10
1.0
 20
0.0
 30
0.0
  9
$UCSYDIR
 10
0.0
 20
1.0
 30
0.0
  9
$UCSORTHOREF
  2

  9
$UCSORTHOVIEW
 70
0
  9
$UCSORGTOP
 10
0.0
 20
0.0
 30
0.0
  9
$UCSORGBOTTOM
 10
0.0
 20
0.0
 30
0.0
  9
$UCSORGLEFT
 10
0.0
 20
0.0
 30
0.0
  9
$UCSORGRIGHT
 10
0.0
 20
0.0
 30
0.0
  9
$UCSORGFRONT
 10
0.0
 20
0.0
 30
0.0
  9
$UCSORGBACK
 10
0.0
 20
0.0
 30
0.0
  9
$PUCSBASE
  2

  9
$PUCSNAME
  2

  9
$PUCSORG
 10
0.0
 20
0.0
 30
0.0
  9
$PUCSXDIR
 10
1.0
 20
0.0
 30
0.0
  9
$PUCSYDIR
 10
0.0
 20
1.0
 30
0.0
  9
$PUCSORTHOREF
  2

  9
$PUCSORTHOVIEW
 70
0
  9
$PUCSORGTOP
 10
0.0
 20
0.0
 30
0.0
  9
$PUCSORGBOTTOM
 10
0.0
 20
0.0
 30
0.0
  9
$PUCSORGLEFT
 10
0.0
 20
0.0
 30
0.0
  9
$PUCSORGRIGHT
 10
0.0
 20
0.0
 30
0.0
  9
$PUCSORGFRONT
 10
0.0
 20
0.0
 30
0.0
  9
$PUCSORGBACK
 10
0.0
 20
0.0
 30
0.0
  9
$USERI1
 70
0
  9
$USERI2
 70
0
  9
$USERI3
 70
0
  9
$USERI4
 70
0
  9
$USERI5
 70
0
  9
$USERR1
 40
0.0
  9
$USERR2
 40
0.0
  9
$USERR3
 40
0.0
  9
$USERR4
 40
0.0
  9
$USERR5
 40
0.0
  9
$WORLDVIEW
 70
1
  9
$SHADEDGE
 70
3
  9
$SHADEDIF
 70
70
  9
$TILEMODE
 70
1
  9
$MAXACTVP
 70
64
  9
$PINSBASE
 10
0.0
 20
0.0
 30
0.0
  9
$PLIMCHECK
 70
0
  9
$PEXTMIN
 10
1e+20
 20
1e+20
 30
1e+20
  9
$PEXTMAX
 10
-1e+20
 20
-1e+20
 30
-1e+20
  9
$PLIMMIN
 10
0.0
 20
0.0
  9
$PLIMMAX
 10
420.0
 20
297.0
  9
$UNITMODE
 70
0
  9
$VISRETAIN
 70
1
  9
$PLINEGEN
 70
0
  9
$PSLTSCALE
 70
1
  9
$TREEDEPTH
 70
3020
  9
$CMLSTYLE
  2
Standard
  9
$CMLJUST
 70
0
  9
$CMLSCALE
 40
20.0
  9
$PROXYGRAPHICS
 70
1
  9
$MEASUREMENT
 70
1
  9
$CELWEIGHT
370
-1
  9
$ENDCAPS
280
0
  9
$JOINSTYLE
280
0
  9
$LWDISPLAY
290
0
  9
$INSUNITS
 70
6
  9
$HYPERLINKBASE
  1

  9
$STYLESHEET
  1

  9
$XEDIT
290
1
  9
$CEPSNTYPE
380
0
  9
$PSTYLEMODE
290
1
  9
$FINGERPRINTGUID
  2
{A8F1DC8A-6CAC-4F5A-A289-91F20E092E91}
  9
$VERSIONGUID
  2
{3499A82C-98BC-4E65-B0B0-B1DFB2223803}
  9
$EXTNAMES
290
1
  9
$PSVPSCALE
 40
0.0
  9
$OLESTARTUP
290
0
  9
$SORTENTS
280
127
  9
$INDEXCTL
280
0
  9
$HIDETEXT
280
1
  9
$XCLIPFRAME
280
0
  9
$HALOGAP
280
0
  9
$OBSCOLOR
 70
257
  9
$OBSLTYPE
280
0
  9
$INTERSECTIONDISPLAY
280
0
  9
$INTERSECTIONCOLOR
 70
257
  9
$DIMASSOC
280
2
  9
$PROJECTNAME
  1

  9
$CAMERADISPLAY
290
0
  9
$LENSLENGTH
 40
50.0
  9
$CAMERAHEIGHT
 40
0.0
  9
$STEPSPERSEC
 40
24.0
  9
$STEPSIZE
 40
100.0
  9
$3DDWFPREC
 40
2.0
  9
$PSOLWIDTH
 40
0.005
  9
$PSOLHEIGHT
 40
0.08
  9
$LOFTANG1
 40
1.570796326795
  9
$LOFTANG2
 40
1.570796326795
  9
$LOFTMAG1
 40
0.0
  9
$LOFTMAG2
 40
0.0
  9
$LOFTPARAM
 70
7
  9
$LOFTNORMALS
280
1
  9
$LATITUDE
 40
37.795
  9
$LONGITUDE
 40
-122.394
  9
$NORTHDIRECTION
 40
0.0
  9
$TIMEZONE
 70
-8000
  9
$LIGHTGLYPHDISPLAY
280
1
  9
$TILEMODELIGHTSYNCH
280
1
  9
$CMATERIAL
347
20
  9
$SOLIDHIST
280
0
  9
$SHOWHIST
280
1
  9
$DWFFRAME
280
2
  9
$DGNFRAME
280
2
  9
$REALWORLDSCALE
290
1
  9
$INTERFERECOLOR
 62
256
  9
$CSHADOW
280
0
  9
$SHADOWPLANELOCATION
 40
0.0
  0
ENDSEC
  0
SECTION
  2
CLASSES
  0
CLASS
  1
ACDBDICTIONARYWDFLT
  2
AcDbDictionaryWithDefault
  3
ObjectDBX Classes
 90
0
 91
0
280
0
281
0
  0
CLASS
  1
SUN
  2
AcDbSun
  3
SCENEOE
 90
1153
 91
0
280
0
281
0
  0
CLASS
  1
VISUALSTYLE
  2
AcDbVisualStyle
  3
ObjectDBX Classes
 90
4095
 91
0
280
0
281
0
  0
CLASS
  1
MATERIAL
  2
AcDbMaterial
  3
ObjectDBX Classes
 90
1153
 91
0
280
0
281
0
  0
CLASS
  1
SCALE
  2
AcDbScale
  3
ObjectDBX Classes
 90
1153
 91
0
280
0
281
0
  0
CLASS
  1
TABLESTYLE
  2
AcDbTableStyle
  3
ObjectDBX Classes
 90
4095
 91
0
280
0
281
0
  0
CLASS
  1
MLEADERSTYLE
  2
AcDbMLeaderStyle
  3
ACDB_MLEADERSTYLE_CLASS
 90
4095
 91
0
280
0
281
0
  0
CLASS
  1
DICTIONARYVAR
  2
AcDbDictionaryVar
  3
ObjectDBX Classes
 90
0
 91
0
280
0
281
0
  0
CLASS
  1
CELLSTYLEMAP
  2
AcDbCellStyleMap
  3
ObjectDBX Classes
 90
1152
 91
0
280
0
281
0
  0
CLASS
  1
MENTALRAYRENDERSETTINGS
  2
AcDbMentalRayRenderSettings
  3
SCENEOE
 90
1024
 91
0
280
0
281
0
  0
CLASS
  1
ACDBDETAILVIEWSTYLE
  2
AcDbDetailViewStyle
  3
ObjectDBX Classes
 90
1025
 91
0
280
0
281
0
  0
CLASS
  1
ACDBSECTIONVIEWSTYLE
  2
AcDbSectionViewStyle
  3
ObjectDBX Classes
 90
1025
 91
0
280
0
281
0
  0
CLASS
  1
RASTERVARIABLES
  2
AcDbRasterVariables
  3
ISM
 90
0
 91
0
280
0
281
0
  0
CLASS
  1
LAYOUT
  2
AcDbLayout
  3
ObjectDBX Classes
 90
0
 91
0
280
0
281
0
  0
CLASS
  1
ACDBPLACEHOLDER
  2
AcDbPlaceHolder
  3
ObjectDBX Classes
 90
0
 91
0
280
0
281
0
  0
ENDSEC
  0
SECTION
  2
TABLES
  0
TABLE
  2
VPORT
  5
8
330
0
100
AcDbSymbolTable
 70
1
  0
VPORT
  5
23
330
8
100
AcDbSymbolTableRecord
100
AcDbViewportTableRecord
  2
*Active
 70
0
 10
0.0
 20
0.0
 11
1.0
 21
1.0
 12
0.0
 22
0.0
 13
0.0
 23
0.0
 14
0.5
 24
0.5
 15
0.5
 25
0.5
 16
0.0
 26
0.0
 36
1.0
 17
0.0
 27
0.0
 37
0.0
 40
1000.0
 41
1.34
 42
50.0
 43
0.0
 44
0.0
 50
0.0
 51
0.0
 71
0
 72
1000
 73
1
 74
3
 75
0
 76
0
 77
0
 78
0
281
0
 65
0
146
0.0
  0
ENDTAB
  0
TABLE
  2
LTYPE
  5
2
330
0
100
AcDbSymbolTable
 70
3
  0
LTYPE
  5
24
330
2
100
AcDbSymbolTableRecord
100
AcDbLinetypeTableRecord
  2
ByBlock
 70
0
  3

 72
65
 73
0
 40
0.0
  0
LTYPE
  5
25
330
2
100
AcDbSymbolTableRecord
100
AcDbLinetypeTableRecord
  2
ByLayer
 70
0
  3

 72
65
 73
0
 40
0.0
  0
LTYPE
  5
26
330
2
100
AcDbSymbolTableRecord
100
AcDbLinetypeTableRecord
  2
Continuous
 70
0
  3

 72
65
 73
0
 40
0.0
  0
ENDTAB
  0
TABLE
  2
LAYER
  5
1
330
0
100
AcDbSymbolTable
 70
2
  0
LAYER
  5
27
330
1
100
AcDbSymbolTableRecord
100
AcDbLayerTableRecord
  2
0
 70
0
 62
7
  6
Continuous
370
-3
390
13
347
21
  0
LAYER
  5
28
330
1
100
AcDbSymbolTableRecord
100
AcDbLayerTableRecord
  2
Defpoints
 70
0
 62
7
  6
Continuous
290
0
370
-3
390
13
347
21
  0
ENDTAB
  0
TABLE
  2
STYLE
  5
5
330
0
100
AcDbSymbolTable
 70
1
  0
STYLE
  5
29
330
5
100
AcDbSymbolTableRecord
100
AcDbTextStyleTableRecord
  2
Standard
 70
0
 40
0.0
 41
1.0
 50
0.0
 71
0
 42
2.5
  3
txt
  4

  0
ENDTAB
  0
TABLE
  2
VIEW
  5
7
330
0
100
AcDbSymbolTable
 70
0
  0
ENDTAB
  0
TABLE
  2
UCS
  5
6
330
0
100
AcDbSymbolTable
 70
0
  0
ENDTAB
  0
TABLE
  2
APPID
  5
3
330
0
100
AcDbSymbolTable
 70
3
  0
APPID
  5
2A
330
3
100
AcDbSymbolTableRecord
100
AcDbRegAppTableRecord
  2
ACAD
 70
0
  0
APPID
  5
2DA
330
3
100
AcDbSymbolTableRecord
100
AcDbRegAppTableRecord
  2
HATCHBACKGROUNDCOLOR
 70
0
  0
APPID
  5
2DB
330
3
100
AcDbSymbolTableRecord
100
AcDbRegAppTableRecord
  2
EZDXF
 70
0
  0
ENDTAB
  0
TABLE
  2
DIMSTYLE
  5
4
330
0
100
AcDbSymbolTable
 70
1
100
AcDbDimStyleTable
  0
DIMSTYLE
105
2B
330
4
100
AcDbSymbolTableRecord
100
AcDbDimStyleTableRecord
  2
Standard
 70
0
 40
1.0
 41
2.5
 42
0.625
 43
3.75
 44
1.25
 45
0.0
 46
0.0
 47
0.0
 48
0.0
 49
2.5
140
2.5
141
2.5
142
0.0
143
0.03937007874
144
1.0
145
0.0
146
1.0
147
0.625
148
0.0
 69
0
 70
0
 71
0
 72
0
 73
0
 74
0
 75
0
 76
0
 77
1
 78
8
 79
3
170
0
171
3
172
1
173
0
174
0
175
0
176
0
177
0
178
0
179
2
271
2
272
2
273
2
274
3
275
0
276
0
277
2
278
44
279
0
280
0
281
0
282
0
283
0
284
8
285
0
286
0
288
0
289
3
290
0
371
-2
372
-2
  0
ENDTAB
  0
TABLE
  2
BLOCK_RECORD
  5
9
330
0
100
AcDbSymbolTable
 70
45
  0
BLOCK_RECORD
  5
17
330
9
100
AcDbSymbolTableRecord
100
AcDbBlockTableRecord
  2
*Model_Space
340
1A
 70
0
280
1
281
0
  0
BLOCK_RECORD
  5
1B
330
9
100
AcDbSymbolTableRecord
100
AcDbBlockTableRecord
  2
*Paper_Space
340
1E
 70
0
280
1
281
0
  0
BLOCK_RECORD
  5
31
330
9
100
AcDbSymbolTableRecord
100
AcDbBlockTableRecord
  2
*D1
340
0
 70
0
280
1
281
0
  0
BLOCK_RECORD
  5
36
330
9
100
AcDbSymbolTableRecord
100
AcDbBlockTableRecord
  2
_CLOSEDFILLED
340
0
 70
0
280
1
281
0
  0
BLOCK_RECORD
  5
46
330
9
100
AcDbSymbolTableRecord
100
AcDbBlockTableRecord
  2
*D2
340
0
 70
0
280
1
281
0
  0
BLOCK_RECORD
  5
57
330
9
100
AcDbSymbolTableRecord
100
AcDbBlockTableRecord
  2
*D3
340
0
 70
0
280
1
281
0
  0
BLOCK_RECORD
  5
68
330
9
100
AcDbSymbolTableRecord
100
AcDbBlockTableRecord
  2
*D4
340
0
 70
0
280
1
281
0
  0
BLOCK_RECORD
  5
79
330
9
100
AcDbSymbolTableRecord
100
AcDbBlockTableRecord
  2
*D5
340
0
 70
0
280
1
281
0
  0
BLOCK_RECORD
  5
8A
330
9
100
AcDbSymbolTableRecord
100
AcDbBlockTableRecord
  2
*D6
340
0
 70
0
280
1
281
0
  0
BLOCK_RECORD
  5
9B
330
9
100
AcDbSymbolTableRecord
100
AcDbBlockTableRecord
  2
*D7
340
0
 70
0
280
1
281
0
  0
BLOCK_RECORD
  5
AC
330
9
100
AcDbSymbolTableRecord
100
AcDbBlockTableRecord
  2
*D8
340
0
 70
0
280
1
281
0
  0
BLOCK_RECORD
  5
BD
330
9
100
AcDbSymbolTableRecord
100
AcDbBlockTableRecord
  2
*D9
340
0
 70
0
280
1
281
0
  0
BLOCK_RECORD
  5
CE
330
9
100
AcDbSymbolTableRecord
100
AcDbBlockTableRecord
  2
*D10
340
0
 70
0
280
1
281
0
  0
BLOCK_RECORD
  5
DF
330
9
100
AcDbSymbolTableRecord
100
AcDbBlockTableRecord
  2
*D11
340
0
 70
0
280
1
281
0
  0
BLOCK_RECORD
  5
F0
330
9
100
AcDbSymbolTableRecord
100
AcDbBlockTableRecord
  2
*D12
340
0
 70
0
280
1
281
0
  0
BLOCK_RECORD
  5
101
330
9
100
AcDbSymbolTableRecord
100
AcDbBlockTableRecord
  2
*D13
340
0
 70
0
280
1
281
0
  0
BLOCK_RECORD
  5
112
330
9
100
AcDbSymbolTableRecord
100
AcDbBlockTableRecord
  2
*D14
340
0
 70
0
280
1
281
0
  0
BLOCK_RECORD
  5
123
330
9
100
AcDbSymbolTableRecord
100
AcDbBlockTableRecord
  2
*D15
340
0
 70
0
280
1
281
0
  0
BLOCK_RECORD
  5
134
330
9
100
AcDbSymbolTableRecord
100
AcDbBlockTableRecord
  2
*D16
340
0
 70
0
280
1
281
0
  0
BLOCK_RECORD
  5
145
330
9
100
AcDbSymbolTableRecord
100
AcDbBlockTableRecord
  2
*D17
340
0
 70
0
280
1
281
0
  0
BLOCK_RECORD
  5
156
330
9
100
AcDbSymbolTableRecord
100
AcDbBlockTableRecord
  2
*D18
340
0
 70
0
280
1
281
0
  0
BLOCK_RECORD
  5
167
330
9
100
AcDbSymbolTableRecord
100
AcDbBlockTableRecord
  2
*D19
340
0
 70
0
280
1
281
0
  0
BLOCK_RECORD
  5
178
330
9
100
AcDbSymbolTableRecord
100
AcDbBlockTableRecord
  2
*D20
340
0
 70
0
280
1
281
0
  0
BLOCK_RECORD
  5
189
330
9
100
AcDbSymbolTableRecord
100
AcDbBlockTableRecord
  2
*D21
340
0
 70
0
280
1
281
0
  0
BLOCK_RECORD
  5
19A
330
9
100
AcDbSymbolTableRecord
100
AcDbBlockTableRecord
  2
*D22
340
0
 70
0
280
1
281
0
  0
BLOCK_RECORD
  5
1AB
330
9
100
AcDbSymbolTableRecord
100
AcDbBlockTableRecord
  2
*D23
340
0
 70
0
280
1
281
0
  0
BLOCK_RECORD
  5
1BC
330
9
100
AcDbSymbolTableRecord
100
AcDbBlockTableRecord
  2
*D24
340
0
 70
0
280
1
281
0
  0
BLOCK_RECORD
  5
1CD
330
9
100
AcDbSymbolTableRecord
100
AcDbBlockTableRecord
  2
*D25
340
0
 70
0
280
1
281
0
  0
BLOCK_RECORD
  5
1DE
330
9
100
AcDbSymbolTableRecord
100
AcDbBlockTableRecord
  2
*D26
340
0
 70
0
280
1
281
0
  0
BLOCK_RECORD
  5
1EF
330
9
100
AcDbSymbolTableRecord
100
AcDbBlockTableRecord
  2
*D27
340
0
 70
0
280
1
281
0
  0
BLOCK_RECORD
  5
200
330
9
100
AcDbSymbolTableRecord
100
AcDbBlockTableRecord
  2
*D28
340
0
 70
0
280
1
281
0
  0
BLOCK_RECORD
  5
211
330
9
100
AcDbSymbolTableRecord
100
AcDbBlockTableRecord
  2
*D29
340
0
 70
0
280
1
281
0
  0
BLOCK_RECORD
  5
222
330
9
100
AcDbSymbolTableRecord
100
AcDbBlockTableRecord
  2
*D30
340
0
 70
0
280
1
281
0
  0
BLOCK_RECORD
  5
233
330
9
100
AcDbSymbolTableRecord
100
AcDbBlockTableRecord
  2
*D31
340
0
 70
0
280
1
281
0
  0
BLOCK_RECORD
  5
244
330
9
100
AcDbSymbolTableRecord
100
AcDbBlockTableRecord
  2
*D32
340
0
 70
0
280
1
281
0
  0
BLOCK_RECORD
  5
255
330
9
100
AcDbSymbolTableRecord
100
AcDbBlockTableRecord
  2
*D33
340
0
 70
0
280
1
281
0
  0
BLOCK_RECORD
  5
266
330
9
100
AcDbSymbolTableRecord
100
AcDbBlockTableRecord
  2
*D34
340
0
 70
0
280
1
281
0
  0
BLOCK_RECORD
  5
277
330
9
100
AcDbSymbolTableRecord
100
AcDbBlockTableRecord
  2
*D35
340
0
 70
0
280
1
281
0
  0
BLOCK_RECORD
  5
288
330
9
100
AcDbSymbolTableRecord
100
AcDbBlockTableRecord
  2
*D36
340
0
 70
0
280
1
281
0
  0
BLOCK_RECORD
  5
294
330
9
100
AcDbSymbolTableRecord
100
AcDbBlockTableRecord
  2
*D37
340
0
 70
0
280
1
281
0
  0
BLOCK_RECORD
  5
2A0
330
9
100
AcDbSymbolTableRecord
100
AcDbBlockTableRecord
  2
*D38
340
0
 70
0
280
1
281
0
  0
BLOCK_RECORD
  5
2AC
330
9
100
AcDbSymbolTableRecord
100
AcDbBlockTableRecord
  2
*D39
340
0
 70
0
280
1
281
0
  0
BLOCK_RECORD
  5
2B8
330
9
100
AcDbSymbolTableRecord
100
AcDbBlockTableRecord
  2
*D40
340
0
 70
0
280
1
281
0
  0
BLOCK_RECORD
  5
2C4
330
9
100
AcDbSymbolTableRecord
100
AcDbBlockTableRecord
  2
*D41
340
0
 70
0
280
1
281
0
  0
BLOCK_RECORD
  5
2D0
330
9
100
AcDbSymbolTableRecord
100
AcDbBlockTableRecord
  2
*D42
340
0
 70
0
280
1
281
0
  0
ENDTAB
  0
ENDSEC
  0
SECTION
  2
BLOCKS
  0
BLOCK
  5
18
330
17
100
AcDbEntity
  8
0
100
AcDbBlockBegin
  2
*Model_Space
 70
0
 10
0.0
 20
0.0
 30
0.0
  3
*Model_Space
  1

  0
ENDBLK
  5
19
330
17
100
AcDbEntity
  8
0
100
AcDbBlockEnd
  0
BLOCK
  5
1C
330
1B
100
AcDbEntity
  8
0
100
AcDbBlockBegin
  2
*Paper_Space
 70
0
 10
0.0
 20
0.0
 30
0.0
  3
*Paper_Space
  1

  0
ENDBLK
  5
1D
330
1B
100
AcDbEntity
  8
0
100
AcDbBlockEnd
  0
BLOCK
  5
32
330
31
100
AcDbEntity
  8
0
100
AcDbBlockBegin
  2
*D1
 70
1
 10
0.0
 20
0.0
 30
0.0
  3
*D1
  1

  0
LINE
  5
34
330
31
100
AcDbEntity
  8
0
100
AcDbLine
 10
235.0
 20
106.0
 30
0.0
 11
231.0
 21
106.0
 31
0.0
  0
LINE
  5
35
330
31
100
AcDbEntity
  8
0
100
AcDbLine
 10
235.0
 20
277.0
 30
0.0
 11
231.0
 21
277.0
 31
0.0
  0
INSERT
  5
3A
330
31
100
AcDbEntity
  8
0
100
AcDbBlockReference
  2
_CLOSEDFILLED
 10
231.0
 20
106.0
 30
0.0
 50
270.0
  0
INSERT
  5
3C
330
31
100
AcDbEntity
  8
0
100
AcDbBlockReference
  2
_CLOSEDFILLED
 10
231.0
 20
277.0
 30
0.0
 50
90.0
  0
LINE
  5
3E
330
31
100
AcDbEntity
  8
0
100
AcDbLine
 10
231.0
 20
107.0
 30
0.0
 11
231.0
 21
190.0
 31
0.0
  0
LINE
  5
3F
330
31
100
AcDbEntity
  8
0
100
AcDbLine
 10
231.0
 20
193.0
 30
0.0
 11
231.0
 21
276.0
 31
0.0
  0
MTEXT
  5
40
330
31
100
AcDbEntity
  8
0
100
AcDbMText
 10
231.0
 20
191.5
 30
0.0
 40
1.0
 71
5
  1
171
 50
90.0
  0
POINT
  5
41
330
31
100
AcDbEntity
  8
Defpoints
100
AcDbPoint
 10
231.0
 20
106.0
 30
0.0
  0
POINT
  5
42
330
31
100
AcDbEntity
  8
Defpoints
100
AcDbPoint
 10
235.0
 20
106.0
 30
0.0
  0
POINT
  5
43
330
31
100
AcDbEntity
  8
Defpoints
100
AcDbPoint
 10
235.0
 20
277.0
 30
0.0
  0
ENDBLK
  5
33
330
31
100
AcDbEntity
  8
0
100
AcDbBlockEnd
  0
BLOCK
  5
37
330
36
100
AcDbEntity
  8
0
100
AcDbBlockBegin
  2
_CLOSEDFILLED
 70
0
 10
0.0
 20
0.0
 30
0.0
  3
_CLOSEDFILLED
  1

  0
SOLID
  5
39
330
36
100
AcDbEntity
  8
0
  6
BYBLOCK
 62
0
100
AcDbTrace
 10
-1.0
 20
0.1643989837240255
 30
0.0
 11
0.0
 21
0.0
 31
0.0
 12
-1.0
 22
-0.1643989837240255
 32
0.0
 13
-1.0
 23
-0.1643989837240255
 33
0.0
  0
ENDBLK
  5
38
330
36
100
AcDbEntity
  8
0
100
AcDbBlockEnd
  0
BLOCK
  5
47
330
46
100
AcDbEntity
  8
0
100
AcDbBlockBegin
  2
*D2
 70
1
 10
0.0
 20
0.0
 30
0.0
  3
*D2
  1

  0
LINE
  5
49
330
46
100
AcDbEntity
  8
0
100
AcDbLine
 10
413.0
 20
41.0
 30
0.0
 11
409.0
 21
41.0
 31
0.0
  0
LINE
  5
4A
330
46
100
AcDbEntity
  8
0
100
AcDbLine
 10
413.0
 20
74.0
 30
0.0
 11
409.0
 21
74.0
 31
0.0
  0
INSERT
  5
4B
330
46
100
AcDbEntity
  8
0
100
AcDbBlockReference
  2
_CLOSEDFILLED
 10
409.0
 20
41.0
 30
0.0
 50
270.0
  0
INSERT
  5
4D
330
46
100
AcDbEntity
  8
0
100
AcDbBlockReference
  2
_CLOSEDFILLED
 10
409.0
 20
74.0
 30
0.0
 50
90.0
  0
LINE
  5
4F
330
46
100
AcDbEntity
  8
0
100
AcDbLine
 10
409.0
 20
42.0
 30
0.0
 11
409.0
 21
56.5
 31
0.0
  0
LINE
  5
50
330
46
100
AcDbEntity
  8
0
100
AcDbLine
 10
409.0
 20
58.5
 30
0.0
 11
409.0
 21
73.0
 31
0.0
  0
MTEXT
  5
51
330
46
100
AcDbEntity
  8
0
100
AcDbMText
 10
409.0
 20
57.5
 30
0.0
 40
1.0
 71
5
  1
33
 50
90.0
  0
POINT
  5
52
330
46
100
AcDbEntity
  8
Defpoints
100
AcDbPoint
 10
409.0
 20
41.0
 30
0.0
  0
POINT
  5
53
330
46
100
AcDbEntity
  8
Defpoints
100
AcDbPoint
 10
413.0
 20
41.0
 30
0.0
  0
POINT
  5
54
330
46
100
AcDbEntity
  8
Defpoints
100
AcDbPoint
 10
413.0
 20
74.0
 30
0.0
  0
ENDBLK
  5
48
330
46
100
AcDbEntity
  8
0
100
AcDbBlockEnd
  0
BLOCK
  5
58
330
57
100
AcDbEntity
  8
0
100
AcDbBlockBegin
  2
*D3
 70
1
 10
0.0
 20
0.0
 30
0.0
  3
*D3
  1

  0
LINE
  5
5A
330
57
100
AcDbEntity
  8
0
100
AcDbLine
 10
413.0
 20
100.0
 30
0.0
 11
409.0
 21
100.0
 31
0.0
  0
LINE
  5
5B
330
57
100
AcDbEntity
  8
0
100
AcDbLine
 10
413.0
 20
322.0
 30
0.0
 11
409.0
 21
322.0
 31
0.0
  0
INSERT
  5
5C
330
57
100
AcDbEntity
  8
0
100
AcDbBlockReference
  2
_CLOSEDFILLED
 10
409.0
 20
100.0
 30
0.0
 50
270.0
  0
INSERT
  5
5E
330
57
100
AcDbEntity
  8
0
100
AcDbBlockReference
  2
_CLOSEDFILLED
 10
409.0
 20
322.0
 30
0.0
 50
90.0
  0
LINE
  5
60
330
57
100
AcDbEntity
  8
0
100
AcDbLine
 10
409.0
 20
101.0
 30
0.0
 11
409.0
 21
209.5
 31
0.0
  0
LINE
  5
61
330
57
100
AcDbEntity
  8
0
100
AcDbLine
 10
409.0
 20
212.5
 30
0.0
 11
409.0
 21
321.0
 31
0.0
  0
MTEXT
  5
62
330
57
100
AcDbEntity
  8
0
100
AcDbMText
 10
409.0
 20
211.0
 30
0.0
 40
1.0
 71
5
  1
222
 50
90.0
  0
POINT
  5
63
330
57
100
AcDbEntity
  8
Defpoints
100
AcDbPoint
 10
409.0
 20
100.0
 30
0.0
  0
POINT
  5
64
330
57
100
AcDbEntity
  8
Defpoints
100
AcDbPoint
 10
413.0
 20
100.0
 30
0.0
  0
POINT
  5
65
330
57
100
AcDbEntity
  8
Defpoints
100
AcDbPoint
 10
413.0
 20
322.0
 30
0.0
  0
ENDBLK
  5
59
330
57
100
AcDbEntity
  8
0
100
AcDbBlockEnd
  0
BLOCK
  5
69
330
68
100
AcDbEntity
  8
0
100
AcDbBlockBegin
  2
*D4
 70
1
 10
0.0
 20
0.0
 30
0.0
  3
*D4
  1

  0
LINE
  5
6B
330
68
100
AcDbEntity
  8
0
100
AcDbLine
 10
174.0
 20
41.0
 30
0.0
 11
170.0
 21
41.0
 31
0.0
  0
LINE
  5
6C
330
68
100
AcDbEntity
  8
0
100
AcDbLine
 10
174.0
 20
277.0
 30
0.0
 11
170.0
 21
277.0
 31
0.0
  0
INSERT
  5
6D
330
68
100
AcDbEntity
  8
0
100
AcDbBlockReference
  2
_CLOSEDFILLED
 10
170.0
 20
41.0
 30
0.0
 50
270.0
  0
INSERT
  5
6F
330
68
100
AcDbEntity
  8
0
100
AcDbBlockReference
  2
_CLOSEDFILLED
 10
170.0
 20
277.0
 30
0.0
 50
90.0
  0
LINE
  5
71
330
68
100
AcDbEntity
  8
0
100
AcDbLine
 10
170.0
 20
42.0
 30
0.0
 11
170.0
 21
157.5
 31
0.0
  0
LINE
  5
72
330
68
100
AcDbEntity
  8
0
100
AcDbLine
 10
170.0
 20
160.5
 30
0.0
 11
170.0
 21
276.0
 31
0.0
  0
MTEXT
  5
73
330
68
100
AcDbEntity
  8
0
100
AcDbMText
 10
170.0
 20
159.0
 30
0.0
 40
1.0
 71
5
  1
236
 50
90.0
  0
POINT
  5
74
330
68
100
AcDbEntity
  8
Defpoints
100
AcDbPoint
 10
170.0
 20
41.0
 30
0.0
  0
POINT
  5
75
330
68
100
AcDbEntity
  8
Defpoints
100
AcDbPoint
 10
174.0
 20
41.0
 30
0.0
  0
POINT
  5
76
330
68
100
AcDbEntity
  8
Defpoints
100
AcDbPoint
 10
174.0
 20
277.0
 30
0.0
  0
ENDBLK
  5
6A
330
68
100
AcDbEntity
  8
0
100
AcDbBlockEnd
  0
BLOCK
  5
7A
330
79
100
AcDbEntity
  8
0
100
AcDbBlockBegin
  2
*D5
 70
1
 10
0.0
 20
0.0
 30
0.0
  3
*D5
  1

  0
LINE
  5
7C
330
79
100
AcDbEntity
  8
0
100
AcDbLine
 10
137.0
 20
322.0
 30
0.0
 11
137.0
 21
326.0
 31
0.0
  0
LINE
  5
7D
330
79
100
AcDbEntity
  8
0
100
AcDbLine
 10
413.0
 20
322.0
 30
0.0
 11
413.0
 21
326.0
 31
0.0
  0
INSERT
  5
7E
330
79
100
AcDbEntity
  8
0
100
AcDbBlockReference
  2
_CLOSEDFILLED
 10
137.0
 20
326.0
 30
0.0
 50
180.0
  0
INSERT
  5
80
330
79
100
AcDbEntity
  8
0
100
AcDbBlockReference
  2
_CLOSEDFILLED
 10
413.0
 20
326.0
 30
0.0
  0
LINE
  5
82
330
79
100
AcDbEntity
  8
0
100
AcDbLine
 10
138.0
 20
326.0
 30
0.0
 11
273.5
 21
326.0
 31
0.0
  0
LINE
  5
83
330
79
100
AcDbEntity
  8
0
100
AcDbLine
 10
276.5
 20
326.0
 30
0.0
 11
412.0
 21
326.0
 31
0.0
  0
MTEXT
  5
84
330
79
100
AcDbEntity
  8
0
100
AcDbMText
 10
275.0
 20
326.0
 30
0.0
 40
1.0
 71
5
  1
276
  0
POINT
  5
85
330
79
100
AcDbEntity
  8
Defpoints
100
AcDbPoint
 10
137.0
 20
326.0
 30
0.0
  0
POINT
  5
86
330
79
100
AcDbEntity
  8
Defpoints
100
AcDbPoint
 10
137.0
 20
322.0
 30
0.0
  0
POINT
  5
87
330
79
100
AcDbEntity
  8
Defpoints
100
AcDbPoint
 10
413.0
 20
322.0
 30
0.0
  0
ENDBLK
  5
7B
330
79
100
AcDbEntity
  8
0
100
AcDbBlockEnd
  0
BLOCK
  5
8B
330
8A
100
AcDbEntity
  8
0
100
AcDbBlockBegin
  2
*D6
 70
1
 10
0.0
 20
0.0
 30
0.0
  3
*D6
  1

  0
LINE
  5
8D
330
8A
100
AcDbEntity
  8
0
100
AcDbLine
 10
95.0
 20
164.0
 30
0.0
 11
95.0
 21
168.0
 31
0.0
  0
LINE
  5
8E
330
8A
100
AcDbEntity
  8
0
100
AcDbLine
 10
393.0
 20
164.0
 30
0.0
 11
393.0
 21
168.0
 31
0.0
  0
INSERT
  5
8F
330
8A
100
AcDbEntity
  8
0
100
AcDbBlockReference
  2
_CLOSEDFILLED
 10
95.0
 20
168.0
 30
0.0
 50
180.0
  0
INSERT
  5
91
330
8A
100
AcDbEntity
  8
0
100
AcDbBlockReference
  2
_CLOSEDFILLED
 10
393.0
 20
168.0
 30
0.0
  0
LINE
  5
93
330
8A
100
AcDbEntity
  8
0
100
AcDbLine
 10
96.0
 20
168.0
 30
0.0
 11
242.5
 21
168.0
 31
0.0
  0
LINE
  5
94
330
8A
100
AcDbEntity
  8
0
100
AcDbLine
 10
245.5
 20
168.0
 30
0.0
 11
392.0
 21
168.0
 31
0.0
  0
MTEXT
  5
95
330
8A
100
AcDbEntity
  8
0
100
AcDbMText
 10
244.0
 20
168.0
 30
0.0
 40
1.0
 71
5
  1
298
  0
POINT
  5
96
330
8A
100
AcDbEntity
  8
Defpoints
100
AcDbPoint
 10
95.0
 20
168.0
 30
0.0
  0
POINT
  5
97
330
8A
100
AcDbEntity
  8
Defpoints
100
AcDbPoint
 10
95.0
 20
164.0
 30
0.0
  0
POINT
  5
98
330
8A
100
AcDbEntity
  8
Defpoints
100
AcDbPoint
 10
393.0
 20
164.0
 30
0.0
  0
ENDBLK
  5
8C
330
8A
100
AcDbEntity
  8
0
100
AcDbBlockEnd
  0
BLOCK
  5
9C
330
9B
100
AcDbEntity
  8
0
100
AcDbBlockBegin
  2
*D7
 70
1
 10
0.0
 20
0.0
 30
0.0
  3
*D7
  1

  0
LINE
  5
9E
330
9B
100
AcDbEntity
  8
0
100
AcDbLine
 10
159.0
 20
227.0
 30
0.0
 11
159.0
 21
231.0
 31
0.0
  0
LINE
  5
9F
330
9B
100
AcDbEntity
  8
0
100
AcDbLine
 10
235.0
 20
227.0
 30
0.0
 11
235.0
 21
231.0
 31
0.0
  0
INSERT
  5
A0
330
9B
100
AcDbEntity
  8
0
100
AcDbBlockReference
  2
_CLOSEDFILLED
 10
159.0
 20
231.0
 30
0.0
 50
180.0
  0
INSERT
  5
A2
330
9B
100
AcDbEntity
  8
0
100
AcDbBlockReference
  2
_CLOSEDFILLED
 10
235.0
 20
231.0
 30
0.0
  0
LINE
  5
A4
330
9B
100
AcDbEntity
  8
0
100
AcDbLine
 10
160.0
 20
231.0
 30
0.0
 11
196.0
 21
231.0
 31
0.0
  0
LINE
  5
A5
330
9B
100
AcDbEntity
  8
0
100
AcDbLine
 10
198.0
 20
231.0
 30
0.0
 11
234.0
 21
231.0
 31
0.0
  0
MTEXT
  5
A6
330
9B
100
AcDbEntity
  8
0
100
AcDbMText
 10
197.0
 20
231.0
 30
0.0
 40
1.0
 71
5
  1
76
  0
POINT
  5
A7
330
9B
100
AcDbEntity
  8
Defpoints
100
AcDbPoint
 10
159.0
 20
231.0
 30
0.0
  0
POINT
  5
A8
330
9B
100
AcDbEntity
  8
Defpoints
100
AcDbPoint
 10
159.0
 20
227.0
 30
0.0
  0
POINT
  5
A9
330
9B
100
AcDbEntity
  8
Defpoints
100
AcDbPoint
 10
235.0
 20
227.0
 30
0.0
  0
ENDBLK
  5
9D
330
9B
100
AcDbEntity
  8
0
100
AcDbBlockEnd
  0
BLOCK
  5
AD
330
AC
100
AcDbEntity
  8
0
100
AcDbBlockBegin
  2
*D8
 70
1
 10
0.0
 20
0.0
 30
0.0
  3
*D8
  1

  0
LINE
  5
AF
330
AC
100
AcDbEntity
  8
0
100
AcDbLine
 10
274.0
 20
227.0
 30
0.0
 11
274.0
 21
231.0
 31
0.0
  0
LINE
  5
B0
330
AC
100
AcDbEntity
  8
0
100
AcDbLine
 10
356.0
 20
227.0
 30
0.0
 11
356.0
 21
231.0
 31
0.0
  0
INSERT
  5
B1
330
AC
100
AcDbEntity
  8
0
100
AcDbBlockReference
  2
_CLOSEDFILLED
 10
274.0
 20
231.0
 30
0.0
 50
180.0
  0
INSERT
  5
B3
330
AC
100
AcDbEntity
  8
0
100
AcDbBlockReference
  2
_CLOSEDFILLED
 10
356.0
 20
231.0
 30
0.0
  0
LINE
  5
B5
330
AC
100
AcDbEntity
  8
0
100
AcDbLine
 10
275.0
 20
231.0
 30
0.0
 11
314.0
 21
231.0
 31
0.0
  0
LINE
  5
B6
330
AC
100
AcDbEntity
  8
0
100
AcDbLine
 10
316.0
 20
231.0
 30
0.0
 11
355.0
 21
231.0
 31
0.0
  0
MTEXT
  5
B7
330
AC
100
AcDbEntity
  8
0
100
AcDbMText
 10
315.0
 20
231.0
 30
0.0
 40
1.0
 71
5
  1
82
  0
POINT
  5
B8
330
AC
100
AcDbEntity
  8
Defpoints
100
AcDbPoint
 10
274.0
 20
231.0
 30
0.0
  0
POINT
  5
B9
330
AC
100
AcDbEntity
  8
Defpoints
100
AcDbPoint
 10
274.0
 20
227.0
 30
0.0
  0
POINT
  5
BA
330
AC
100
AcDbEntity
  8
Defpoints
100
AcDbPoint
 10
356.0
 20
227.0
 30
0.0
  0
ENDBLK
  5
AE
330
AC
100
AcDbEntity
  8
0
100
AcDbBlockEnd
  0
BLOCK
  5
BE
330
BD
100
AcDbEntity
  8
0
100
AcDbBlockBegin
  2
*D9
 70
1
 10
0.0
 20
0.0
 30
0.0
  3
*D9
  1

  0
LINE
  5
C0
330
BD
100
AcDbEntity
  8
0
100
AcDbLine
 10
376.0
 20
227.0
 30
0.0
 11
376.0
 21
231.0
 31
0.0
  0
LINE
  5
C1
330
BD
100
AcDbEntity
  8
0
100
AcDbLine
 10
432.0
 20
227.0
 30
0.0
 11
432.0
 21
231.0
 31
0.0
  0
INSERT
  5
C2
330
BD
100
AcDbEntity
  8
0
100
AcDbBlockReference
  2
_CLOSEDFILLED
 10
376.0
 20
231.0
 30
0.0
 50
180.0
  0
INSERT
  5
C4
330
BD
100
AcDbEntity
  8
0
100
AcDbBlockReference
  2
_CLOSEDFILLED
 10
432.0
 20
231.0
 30
0.0
  0
LINE
  5
C6
330
BD
100
AcDbEntity
  8
0
100
AcDbLine
 10
377.0
 20
231.0
 30
0.0
 11
403.0
 21
231.0
 31
0.0
  0
LINE
  5
C7
330
BD
100
AcDbEntity
  8
0
100
AcDbLine
 10
405.0
 20
231.0
 30
0.0
 11
431.0
 21
231.0
 31
0.0
  0
MTEXT
  5
C8
330
BD
100
AcDbEntity
  8
0
100
AcDbMText
 10
404.0
 20
231.0
 30
0.0
 40
1.0
 71
5
  1
56
  0
POINT
  5
C9
330
BD
100
AcDbEntity
  8
Defpoints
100
AcDbPoint
 10
376.0
 20
231.0
 30
0.0
  0
POINT
  5
CA
330
BD
100
AcDbEntity
  8
Defpoints
100
AcDbPoint
 10
376.0
 20
227.0
 30
0.0
  0
POINT
  5
CB
330
BD
100
AcDbEntity
  8
Defpoints
100
AcDbPoint
 10
432.0
 20
227.0
 30
0.0
  0
ENDBLK
  5
BF
330
BD
100
AcDbEntity
  8
0
100
AcDbBlockEnd
  0
BLOCK
  5
CF
330
CE
100
AcDbEntity
  8
0
100
AcDbBlockBegin
  2
*D10
 70
1
 10
0.0
 20
0.0
 30
0.0
  3
*D10
  1

  0
LINE
  5
D1
330
CE
100
AcDbEntity
  8
0
100
AcDbLine
 10
137.0
 20
129.0
 30
0.0
 11
137.0
 21
133.0
 31
0.0
  0
LINE
  5
D2
330
CE
100
AcDbEntity
  8
0
100
AcDbLine
 10
413.0
 20
129.0
 30
0.0
 11
413.0
 21
133.0
 31
0.0
  0
INSERT
  5
D3
330
CE
100
AcDbEntity
  8
0
100
AcDbBlockReference
  2
_CLOSEDFILLED
 10
137.0
 20
133.0
 30
0.0
 50
180.0
  0
INSERT
  5
D5
330
CE
100
AcDbEntity
  8
0
100
AcDbBlockReference
  2
_CLOSEDFILLED
 10
413.0
 20
133.0
 30
0.0
  0
LINE
  5
D7
330
CE
100
AcDbEntity
  8
0
100
AcDbLine
 10
138.0
 20
133.0
 30
0.0
 11
273.5
 21
133.0
 31
0.0
  0
LINE
  5
D8
330
CE
100
AcDbEntity
  8
0
100
AcDbLine
 10
276.5
 20
133.0
 30
0.0
 11
412.0
 21
133.0
 31
0.0
  0
MTEXT
  5
D9
330
CE
100
AcDbEntity
  8
0
100
AcDbMText
 10
275.0
 20
133.0
 30
0.0
 40
1.0
 71
5
  1
276
  0
POINT
  5
DA
330
CE
100
AcDbEntity
  8
Defpoints
100
AcDbPoint
 10
137.0
 20
133.0
 30
0.0
  0
POINT
  5
DB
330
CE
100
AcDbEntity
  8
Defpoints
100
AcDbPoint
 10
137.0
 20
129.0
 30
0.0
  0
POINT
  5
DC
330
CE
100
AcDbEntity
  8
Defpoints
100
AcDbPoint
 10
413.0
 20
129.0
 30
0.0
  0
ENDBLK
  5
D0
330
CE
100
AcDbEntity
  8
0
100
AcDbBlockEnd
  0
BLOCK
  5
E0
330
DF
100
AcDbEntity
  8
0
100
AcDbBlockBegin
  2
*D11
 70
1
 10
0.0
 20
0.0
 30
0.0
  3
*D11
  1

  0
LINE
  5
E2
330
DF
100
AcDbEntity
  8
0
100
AcDbLine
 10
95.0
 20
291.0
 30
0.0
 11
95.0
 21
295.0
 31
0.0
  0
LINE
  5
E3
330
DF
100
AcDbEntity
  8
0
100
AcDbLine
 10
393.0
 20
291.0
 30
0.0
 11
393.0
 21
295.0
 31
0.0
  0
INSERT
  5
E4
330
DF
100
AcDbEntity
  8
0
100
AcDbBlockReference
  2
_CLOSEDFILLED
 10
95.0
 20
295.0
 30
0.0
 50
180.0
  0
INSERT
  5
E6
330
DF
100
AcDbEntity
  8
0
100
AcDbBlockReference
  2
_CLOSEDFILLED
 10
393.0
 20
295.0
 30
0.0
  0
LINE
  5
E8
330
DF
100
AcDbEntity
  8
0
100
AcDbLine
 10
96.0
 20
295.0
 30
0.0
 11
242.5
 21
295.0
 31
0.0
  0
LINE
  5
E9
330
DF
100
AcDbEntity
  8
0
100
AcDbLine
 10
245.5
 20
295.0
 30
0.0
 11
392.0
 21
295.0
 31
0.0
  0
MTEXT
  5
EA
330
DF
100
AcDbEntity
  8
0
100
AcDbMText
 10
244.0
 20
295.0
 30
0.0
 40
1.0
 71
5
  1
298
  0
POINT
  5
EB
330
DF
100
AcDbEntity
  8
Defpoints
100
AcDbPoint
 10
95.0
 20
295.0
 30
0.0
  0
POINT
  5
EC
330
DF
100
AcDbEntity
  8
Defpoints
100
AcDbPoint
 10
95.0
 20
291.0
 30
0.0
  0
POINT
  5
ED
330
DF
100
AcDbEntity
  8
Defpoints
100
AcDbPoint
 10
393.0
 20
291.0
 30
0.0
  0
ENDBLK
  5
E1
330
DF
100
AcDbEntity
  8
0
100
AcDbBlockEnd
  0
BLOCK
  5
F1
330
F0
100
AcDbEntity
  8
0
100
AcDbBlockBegin
  2
*D12
 70
1
 10
0.0
 20
0.0
 30
0.0
  3
*D12
  1

  0
LINE
  5
F3
330
F0
100
AcDbEntity
  8
0
100
AcDbLine
 10
174.0
 20
177.0
 30
0.0
 11
174.0
 21
181.0
 31
0.0
  0
LINE
  5
F4
330
F0
100
AcDbEntity
  8
0
100
AcDbLine
 10
221.0
 20
177.0
 30
0.0
 11
221.0
 21
181.0
 31
0.0
  0
INSERT
  5
F5
330
F0
100
AcDbEntity
  8
0
100
AcDbBlockReference
  2
_CLOSEDFILLED
 10
174.0
 20
181.0
 30
0.0
 50
180.0
  0
INSERT
  5
F7
330
F0
100
AcDbEntity
  8
0
100
AcDbBlockReference
  2
_CLOSEDFILLED
 10
221.0
 20
181.0
 30
0.0
  0
LINE
  5
F9
330
F0
100
AcDbEntity
  8
0
100
AcDbLine
 10
175.0
 20
181.0
 30
0.0
 11
196.5
 21
181.0
 31
0.0
  0
LINE
  5
FA
330
F0
100
AcDbEntity
  8
0
100
AcDbLine
 10
198.5
 20
181.0
 30
0.0
 11
220.0
 21
181.0
 31
0.0
  0
MTEXT
  5
FB
330
F0
100
AcDbEntity
  8
0
100
AcDbMText
 10
197.5
 20
181.0
 30
0.0
 40
1.0
 71
5
  1
47
  0
POINT
  5
FC
330
F0
100
AcDbEntity
  8
Defpoints
100
AcDbPoint
 10
174.0
 20
181.0
 30
0.0
  0
POINT
  5
FD
330
F0
100
AcDbEntity
  8
Defpoints
100
AcDbPoint
 10
174.0
 20
177.0
 30
0.0
  0
POINT
  5
FE
330
F0
100
AcDbEntity
  8
Defpoints
100
AcDbPoint
 10
221.0
 20
177.0
 30
0.0
  0
ENDBLK
  5
F2
330
F0
100
AcDbEntity
  8
0
100
AcDbBlockEnd
  0
BLOCK
  5
102
330
101
100
AcDbEntity
  8
0
100
AcDbBlockBegin
  2
*D13
 70
1
 10
0.0
 20
0.0
 30
0.0
  3
*D13
  1

  0
LINE
  5
104
330
101
100
AcDbEntity
  8
0
100
AcDbLine
 10
235.0
 20
177.0
 30
0.0
 11
235.0
 21
181.0
 31
0.0
  0
LINE
  5
105
330
101
100
AcDbEntity
  8
0
100
AcDbLine
 10
474.0
 20
177.0
 30
0.0
 11
474.0
 21
181.0
 31
0.0
  0
INSERT
  5
106
330
101
100
AcDbEntity
  8
0
100
AcDbBlockReference
  2
_CLOSEDFILLED
 10
235.0
 20
181.0
 30
0.0
 50
180.0
  0
INSERT
  5
108
330
101
100
AcDbEntity
  8
0
100
AcDbBlockReference
  2
_CLOSEDFILLED
 10
474.0
 20
181.0
 30
0.0
  0
LINE
  5
10A
330
101
100
AcDbEntity
  8
0
100
AcDbLine
 10
236.0
 20
181.0
 30
0.0
 11
353.0
 21
181.0
 31
0.0
  0
LINE
  5
10B
330
101
100
AcDbEntity
  8
0
100
AcDbLine
 10
356.0
 20
181.0
 30
0.0
 11
473.0
 21
181.0
 31
0.0
  0
MTEXT
  5
10C
330
101
100
AcDbEntity
  8
0
100
AcDbMText
 10
354.5
 20
181.0
 30
0.0
 40
1.0
 71
5
  1
239
  0
POINT
  5
10D
330
101
100
AcDbEntity
  8
Defpoints
100
AcDbPoint
 10
235.0
 20
181.0
 30
0.0
  0
POINT
  5
10E
330
101
100
AcDbEntity
  8
Defpoints
100
AcDbPoint
 10
235.0
 20
177.0
 30
0.0
  0
POINT
  5
10F
330
101
100
AcDbEntity
  8
Defpoints
100
AcDbPoint
 10
474.0
 20
177.0
 30
0.0
  0
ENDBLK
  5
103
330
101
100
AcDbEntity
  8
0
100
AcDbBlockEnd
  0
BLOCK
  5
113
330
112
100
AcDbEntity
  8
0
100
AcDbBlockBegin
  2
*D14
 70
1
 10
0.0
 20
0.0
 30
0.0
  3
*D14
  1

  0
LINE
  5
115
330
112
100
AcDbEntity
  8
0
100
AcDbLine
 10
174.0
 20
277.0
 30
0.0
 11
174.0
 21
281.0
 31
0.0
  0
LINE
  5
116
330
112
100
AcDbEntity
  8
0
100
AcDbLine
 10
221.0
 20
277.0
 30
0.0
 11
221.0
 21
281.0
 31
0.0
  0
INSERT
  5
117
330
112
100
AcDbEntity
  8
0
100
AcDbBlockReference
  2
_CLOSEDFILLED
 10
174.0
 20
281.0
 30
0.0
 50
180.0
  0
INSERT
  5
119
330
112
100
AcDbEntity
  8
0
100
AcDbBlockReference
  2
_CLOSEDFILLED
 10
221.0
 20
281.0
 30
0.0
  0
LINE
  5
11B
330
112
100
AcDbEntity
  8
0
100
AcDbLine
 10
175.0
 20
281.0
 30
0.0
 11
196.5
 21
281.0
 31
0.0
  0
LINE
  5
11C
330
112
100
AcDbEntity
  8
0
100
AcDbLine
 10
198.5
 20
281.0
 30
0.0
 11
220.0
 21
281.0
 31
0.0
  0
MTEXT
  5
11D
330
112
100
AcDbEntity
  8
0
100
AcDbMText
 10
197.5
 20
281.0
 30
0.0
 40
1.0
 71
5
  1
47
  0
POINT
  5
11E
330
112
100
AcDbEntity
  8
Defpoints
100
AcDbPoint
 10
174.0
 20
281.0
 30
0.0
  0
POINT
  5
11F
330
112
100
AcDbEntity
  8
Defpoints
100
AcDbPoint
 10
174.0
 20
277.0
 30
0.0
  0
POINT
  5
120
330
112
100
AcDbEntity
  8
Defpoints
100
AcDbPoint
 10
221.0
 20
277.0
 30
0.0
  0
ENDBLK
  5
114
330
112
100
AcDbEntity
  8
0
100
AcDbBlockEnd
  0
BLOCK
  5
124
330
123
100
AcDbEntity
  8
0
100
AcDbBlockBegin
  2
*D15
 70
1
 10
0.0
 20
0.0
 30
0.0
  3
*D15
  1

  0
LINE
  5
126
330
123
100
AcDbEntity
  8
0
100
AcDbLine
 10
235.0
 20
277.0
 30
0.0
 11
235.0
 21
281.0
 31
0.0
  0
LINE
  5
127
330
123
100
AcDbEntity
  8
0
100
AcDbLine
 10
474.0
 20
277.0
 30
0.0
 11
474.0
 21
281.0
 31
0.0
  0
INSERT
  5
128
330
123
100
AcDbEntity
  8
0
100
AcDbBlockReference
  2
_CLOSEDFILLED
 10
235.0
 20
281.0
 30
0.0
 50
180.0
  0
INSERT
  5
12A
330
123
100
AcDbEntity
  8
0
100
AcDbBlockReference
  2
_CLOSEDFILLED
 10
474.0
 20
281.0
 30
0.0
  0
LINE
  5
12C
330
123
100
AcDbEntity
  8
0
100
AcDbLine
 10
236.0
 20
281.0
 30
0.0
 11
353.0
 21
281.0
 31
0.0
  0
LINE
  5
12D
330
123
100
AcDbEntity
  8
0
100
AcDbLine
 10
356.0
 20
281.0
 30
0.0
 11
473.0
 21
281.0
 31
0.0
  0
MTEXT
  5
12E
330
123
100
AcDbEntity
  8
0
100
AcDbMText
 10
354.5
 20
281.0
 30
0.0
 40
1.0
 71
5
  1
239
  0
POINT
  5
12F
330
123
100
AcDbEntity
  8
Defpoints
100
AcDbPoint
 10
235.0
 20
281.0
 30
0.0
  0
POINT
  5
130
330
123
100
AcDbEntity
  8
Defpoints
100
AcDbPoint
 10
235.0
 20
277.0
 30
0.0
  0
POINT
  5
131
330
123
100
AcDbEntity
  8
Defpoints
100
AcDbPoint
 10
474.0
 20
277.0
 30
0.0
  0
ENDBLK
  5
125
330
123
100
AcDbEntity
  8
0
100
AcDbBlockEnd
  0
BLOCK
  5
135
330
134
100
AcDbEntity
  8
0
100
AcDbBlockBegin
  2
*D16
 70
1
 10
0.0
 20
0.0
 30
0.0
  3
*D16
  1

  0
LINE
  5
137
330
134
100
AcDbEntity
  8
0
100
AcDbLine
 10
60.0
 20
266.0
 30
0.0
 11
60.0
 21
270.0
 31
0.0
  0
LINE
  5
138
330
134
100
AcDbEntity
  8
0
100
AcDbLine
 10
235.0
 20
266.0
 30
0.0
 11
235.0
 21
270.0
 31
0.0
  0
INSERT
  5
139
330
134
100
AcDbEntity
  8
0
100
AcDbBlockReference
  2
_CLOSEDFILLED
 10
60.0
 20
270.0
 30
0.0
 50
180.0
  0
INSERT
  5
13B
330
134
100
AcDbEntity
  8
0
100
AcDbBlockReference
  2
_CLOSEDFILLED
 10
235.0
 20
270.0
 30
0.0
  0
LINE
  5
13D
330
134
100
AcDbEntity
  8
0
100
AcDbLine
 10
61.0
 20
270.0
 30
0.0
 11
146.0
 21
270.0
 31
0.0
  0
LINE
  5
13E
330
134
100
AcDbEntity
  8
0
100
AcDbLine
 10
149.0
 20
270.0
 30
0.0
 11
234.0
 21
270.0
 31
0.0
  0
MTEXT
  5
13F
330
134
100
AcDbEntity
  8
0
100
AcDbMText
 10
147.5
 20
270.0
 30
0.0
 40
1.0
 71
5
  1
175
  0
POINT
  5
140
330
134
100
AcDbEntity
  8
Defpoints
100
AcDbPoint
 10
60.0
 20
270.0
 30
0.0
  0
POINT
  5
141
330
134
100
AcDbEntity
  8
Defpoints
100
AcDbPoint
 10
60.0
 20
266.0
 30
0.0
  0
POINT
  5
142
330
134
100
AcDbEntity
  8
Defpoints
100
AcDbPoint
 10
235.0
 20
266.0
 30
0.0
  0
ENDBLK
  5
136
330
134
100
AcDbEntity
  8
0
100
AcDbBlockEnd
  0
BLOCK
  5
146
330
145
100
AcDbEntity
  8
0
100
AcDbBlockBegin
  2
*D17
 70
1
 10
0.0
 20
0.0
 30
0.0
  3
*D17
  1

  0
LINE
  5
148
330
145
100
AcDbEntity
  8
0
100
AcDbLine
 10
393.0
 20
100.0
 30
0.0
 11
389.0
 21
100.0
 31
0.0
  0
LINE
  5
149
330
145
100
AcDbEntity
  8
0
100
AcDbLine
 10
393.0
 20
322.0
 30
0.0
 11
389.0
 21
322.0
 31
0.0
  0
INSERT
  5
14A
330
145
100
AcDbEntity
  8
0
100
AcDbBlockReference
  2
_CLOSEDFILLED
 10
389.0
 20
100.0
 30
0.0
 50
270.0
  0
INSERT
  5
14C
330
145
100
AcDbEntity
  8
0
100
AcDbBlockReference
  2
_CLOSEDFILLED
 10
389.0
 20
322.0
 30
0.0
 50
90.0
  0
LINE
  5
14E
330
145
100
AcDbEntity
  8
0
100
AcDbLine
 10
389.0
 20
101.0
 30
0.0
 11
389.0
 21
209.5
 31
0.0
  0
LINE
  5
14F
330
145
100
AcDbEntity
  8
0
100
AcDbLine
 10
389.0
 20
212.5
 30
0.0
 11
389.0
 21
321.0
 31
0.0
  0
MTEXT
  5
150
330
145
100
AcDbEntity
  8
0
100
AcDbMText
 10
389.0
 20
211.0
 30
0.0
 40
1.0
 71
5
  1
222
 50
90.0
  0
POINT
  5
151
330
145
100
AcDbEntity
  8
Defpoints
100
AcDbPoint
 10
389.0
 20
100.0
 30
0.0
  0
POINT
  5
152
330
145
100
AcDbEntity
  8
Defpoints
100
AcDbPoint
 10
393.0
 20
100.0
 30
0.0
  0
POINT
  5
153
330
145
100
AcDbEntity
  8
Defpoints
100
AcDbPoint
 10
393.0
 20
322.0
 30
0.0
  0
ENDBLK
  5
147
330
145
100
AcDbEntity
  8
0
100
AcDbBlockEnd
  0
BLOCK
  5
157
330
156
100
AcDbEntity
  8
0
100
AcDbBlockBegin
  2
*D18
 70
1
 10
0.0
 20
0.0
 30
0.0
  3
*D18
  1

  0
LINE
  5
159
330
156
100
AcDbEntity
  8
0
100
AcDbLine
 10
221.0
 20
109.0
 30
0.0
 11
217.0
 21
109.0
 31
0.0
  0
LINE
  5
15A
330
156
100
AcDbEntity
  8
0
100
AcDbLine
 10
221.0
 20
277.0
 30
0.0
 11
217.0
 21
277.0
 31
0.0
  0
INSERT
  5
15B
330
156
100
AcDbEntity
  8
0
100
AcDbBlockReference
  2
_CLOSEDFILLED
 10
217.0
 20
109.0
 30
0.0
 50
270.0
  0
INSERT
  5
15D
330
156
100
AcDbEntity
  8
0
100
AcDbBlockReference
  2
_CLOSEDFILLED
 10
217.0
 20
277.0
 30
0.0
 50
90.0
  0
LINE
  5
15F
330
156
100
AcDbEntity
  8
0
100
AcDbLine
 10
217.0
 20
110.0
 30
0.0
 11
217.0
 21
191.5
 31
0.0
  0
LINE
  5
160
330
156
100
AcDbEntity
  8
0
100
AcDbLine
 10
217.0
 20
194.5
 30
0.0
 11
217.0
 21
276.0
 31
0.0
  0
MTEXT
  5
161
330
156
100
AcDbEntity
  8
0
100
AcDbMText
 10
217.0
 20
193.0
 30
0.0
 40
1.0
 71
5
  1
168
 50
90.0
  0
POINT
  5
162
330
156
100
AcDbEntity
  8
Defpoints
100
AcDbPoint
 10
217.0
 20
109.0
 30
0.0
  0
POINT
  5
163
330
156
100
AcDbEntity
  8
Defpoints
100
AcDbPoint
 10
221.0
 20
109.0
 30
0.0
  0
POINT
  5
164
330
156
100
AcDbEntity
  8
Defpoints
100
AcDbPoint
 10
221.0
 20
277.0
 30
0.0
  0
ENDBLK
  5
158
330
156
100
AcDbEntity
  8
0
100
AcDbBlockEnd
  0
BLOCK
  5
168
330
167
100
AcDbEntity
  8
0
100
AcDbBlockBegin
  2
*D19
 70
1
 10
0.0
 20
0.0
 30
0.0
  3
*D19
  1

  0
LINE
  5
16A
330
167
100
AcDbEntity
  8
0
100
AcDbLine
 10
332.0
 20
93.0
 30
0.0
 11
328.0
 21
93.0
 31
0.0
  0
LINE
  5
16B
330
167
100
AcDbEntity
  8
0
100
AcDbLine
 10
332.0
 20
291.0
 30
0.0
 11
328.0
 21
291.0
 31
0.0
  0
INSERT
  5
16C
330
167
100
AcDbEntity
  8
0
100
AcDbBlockReference
  2
_CLOSEDFILLED
 10
328.0
 20
93.0
 30
0.0
 50
270.0
  0
INSERT
  5
16E
330
167
100
AcDbEntity
  8
0
100
AcDbBlockReference
  2
_CLOSEDFILLED
 10
328.0
 20
291.0
 30
0.0
 50
90.0
  0
LINE
  5
170
330
167
100
AcDbEntity
  8
0
100
AcDbLine
 10
328.0
 20
94.0
 30
0.0
 11
328.0
 21
190.5
 31
0.0
  0
LINE
  5
171
330
167
100
AcDbEntity
  8
0
100
AcDbLine
 10
328.0
 20
193.5
 30
0.0
 11
328.0
 21
290.0
 31
0.0
  0
MTEXT
  5
172
330
167
100
AcDbEntity
  8
0
100
AcDbMText
 10
328.0
 20
192.0
 30
0.0
 40
1.0
 71
5
  1
198
 50
90.0
  0
POINT
  5
173
330
167
100
AcDbEntity
  8
Defpoints
100
AcDbPoint
 10
328.0
 20
93.0
 30
0.0
  0
POINT
  5
174
330
167
100
AcDbEntity
  8
Defpoints
100
AcDbPoint
 10
332.0
 20
93.0
 30
0.0
  0
POINT
  5
175
330
167
100
AcDbEntity
  8
Defpoints
100
AcDbPoint
 10
332.0
 20
291.0
 30
0.0
  0
ENDBLK
  5
169
330
167
100
AcDbEntity
  8
0
100
AcDbBlockEnd
  0
BLOCK
  5
179
330
178
100
AcDbEntity
  8
0
100
AcDbBlockBegin
  2
*D20
 70
1
 10
0.0
 20
0.0
 30
0.0
  3
*D20
  1

  0
LINE
  5
17B
330
178
100
AcDbEntity
  8
0
100
AcDbLine
 10
60.0
 20
189.0
 30
0.0
 11
60.0
 21
193.0
 31
0.0
  0
LINE
  5
17C
330
178
100
AcDbEntity
  8
0
100
AcDbLine
 10
235.0
 20
189.0
 30
0.0
 11
235.0
 21
193.0
 31
0.0
  0
INSERT
  5
17D
330
178
100
AcDbEntity
  8
0
100
AcDbBlockReference
  2
_CLOSEDFILLED
 10
60.0
 20
193.0
 30
0.0
 50
180.0
  0
INSERT
  5
17F
330
178
100
AcDbEntity
  8
0
100
AcDbBlockReference
  2
_CLOSEDFILLED
 10
235.0
 20
193.0
 30
0.0
  0
LINE
  5
181
330
178
100
AcDbEntity
  8
0
100
AcDbLine
 10
61.0
 20
193.0
 30
0.0
 11
146.0
 21
193.0
 31
0.0
  0
LINE
  5
182
330
178
100
AcDbEntity
  8
0
100
AcDbLine
 10
149.0
 20
193.0
 30
0.0
 11
234.0
 21
193.0
 31
0.0
  0
MTEXT
  5
183
330
178
100
AcDbEntity
  8
0
100
AcDbMText
 10
147.5
 20
193.0
 30
0.0
 40
1.0
 71
5
  1
175
  0
POINT
  5
184
330
178
100
AcDbEntity
  8
Defpoints
100
AcDbPoint
 10
60.0
 20
193.0
 30
0.0
  0
POINT
  5
185
330
178
100
AcDbEntity
  8
Defpoints
100
AcDbPoint
 10
60.0
 20
189.0
 30
0.0
  0
POINT
  5
186
330
178
100
AcDbEntity
  8
Defpoints
100
AcDbPoint
 10
235.0
 20
189.0
 30
0.0
  0
ENDBLK
  5
17A
330
178
100
AcDbEntity
  8
0
100
AcDbBlockEnd
  0
BLOCK
  5
18A
330
189
100
AcDbEntity
  8
0
100
AcDbBlockBegin
  2
*D21
 70
1
 10
0.0
 20
0.0
 30
0.0
  3
*D21
  1

  0
LINE
  5
18C
330
189
100
AcDbEntity
  8
0
100
AcDbLine
 10
94.0
 20
213.0
 30
0.0
 11
94.0
 21
217.0
 31
0.0
  0
LINE
  5
18D
330
189
100
AcDbEntity
  8
0
100
AcDbLine
 10
104.0
 20
213.0
 30
0.0
 11
104.0
 21
217.0
 31
0.0
  0
INSERT
  5
18E
330
189
100
AcDbEntity
  8
0
100
AcDbBlockReference
  2
_CLOSEDFILLED
 10
94.0
 20
217.0
 30
0.0
 50
180.0
  0
INSERT
  5
190
330
189
100
AcDbEntity
  8
0
100
AcDbBlockReference
  2
_CLOSEDFILLED
 10
104.0
 20
217.0
 30
0.0
  0
LINE
  5
192
330
189
100
AcDbEntity
  8
0
100
AcDbLine
 10
95.0
 20
217.0
 30
0.0
 11
98.0
 21
217.0
 31
0.0
  0
LINE
  5
193
330
189
100
AcDbEntity
  8
0
100
AcDbLine
 10
100.0
 20
217.0
 30
0.0
 11
103.0
 21
217.0
 31
0.0
  0
MTEXT
  5
194
330
189
100
AcDbEntity
  8
0
100
AcDbMText
 10
99.0
 20
217.0
 30
0.0
 40
1.0
 71
5
  1
10
  0
POINT
  5
195
330
189
100
AcDbEntity
  8
Defpoints
100
AcDbPoint
 10
94.0
 20
217.0
 30
0.0
  0
POINT
  5
196
330
189
100
AcDbEntity
  8
Defpoints
100
AcDbPoint
 10
94.0
 20
213.0
 30
0.0
  0
POINT
  5
197
330
189
100
AcDbEntity
  8
Defpoints
100
AcDbPoint
 10
104.0
 20
213.0
 30
0.0
  0
ENDBLK
  5
18B
330
189
100
AcDbEntity
  8
0
100
AcDbBlockEnd
  0
BLOCK
  5
19B
330
19A
100
AcDbEntity
  8
0
100
AcDbBlockBegin
  2
*D22
 70
1
 10
0.0
 20
0.0
 30
0.0
  3
*D22
  1

  0
LINE
  5
19D
330
19A
100
AcDbEntity
  8
0
100
AcDbLine
 10
137.0
 20
213.0
 30
0.0
 11
137.0
 21
217.0
 31
0.0
  0
LINE
  5
19E
330
19A
100
AcDbEntity
  8
0
100
AcDbLine
 10
147.0
 20
213.0
 30
0.0
 11
147.0
 21
217.0
 31
0.0
  0
INSERT
  5
19F
330
19A
100
AcDbEntity
  8
0
100
AcDbBlockReference
  2
_CLOSEDFILLED
 10
137.0
 20
217.0
 30
0.0
 50
180.0
  0
INSERT
  5
1A1
330
19A
100
AcDbEntity
  8
0
100
AcDbBlockReference
  2
_CLOSEDFILLED
 10
147.0
 20
217.0
 30
0.0
  0
LINE
  5
1A3
330
19A
100
AcDbEntity
  8
0
100
AcDbLine
 10
138.0
 20
217.0
 30
0.0
 11
141.0
 21
217.0
 31
0.0
  0
LINE
  5
1A4
330
19A
100
AcDbEntity
  8
0
100
AcDbLine
 10
143.0
 20
217.0
 30
0.0
 11
146.0
 21
217.0
 31
0.0
  0
MTEXT
  5
1A5
330
19A
100
AcDbEntity
  8
0
100
AcDbMText
 10
142.0
 20
217.0
 30
0.0
 40
1.0
 71
5
  1
10
  0
POINT
  5
1A6
330
19A
100
AcDbEntity
  8
Defpoints
100
AcDbPoint
 10
137.0
 20
217.0
 30
0.0
  0
POINT
  5
1A7
330
19A
100
AcDbEntity
  8
Defpoints
100
AcDbPoint
 10
137.0
 20
213.0
 30
0.0
  0
POINT
  5
1A8
330
19A
100
AcDbEntity
  8
Defpoints
100
AcDbPoint
 10
147.0
 20
213.0
 30
0.0
  0
ENDBLK
  5
19C
330
19A
100
AcDbEntity
  8
0
100
AcDbBlockEnd
  0
BLOCK
  5
1AC
330
1AB
100
AcDbEntity
  8
0
100
AcDbBlockBegin
  2
*D23
 70
1
 10
0.0
 20
0.0
 30
0.0
  3
*D23
  1

  0
LINE
  5
1AE
330
1AB
100
AcDbEntity
  8
0
100
AcDbLine
 10
440.0
 20
213.0
 30
0.0
 11
440.0
 21
217.0
 31
0.0
  0
LINE
  5
1AF
330
1AB
100
AcDbEntity
  8
0
100
AcDbLine
 10
453.0
 20
213.0
 30
0.0
 11
453.0
 21
217.0
 31
0.0
  0
INSERT
  5
1B0
330
1AB
100
AcDbEntity
  8
0
100
AcDbBlockReference
  2
_CLOSEDFILLED
 10
440.0
 20
217.0
 30
0.0
 50
180.0
  0
INSERT
  5
1B2
330
1AB
100
AcDbEntity
  8
0
100
AcDbBlockReference
  2
_CLOSEDFILLED
 10
453.0
 20
217.0
 30
0.0
  0
LINE
  5
1B4
330
1AB
100
AcDbEntity
  8
0
100
AcDbLine
 10
441.0
 20
217.0
 30
0.0
 11
445.5
 21
217.0
 31
0.0
  0
LINE
  5
1B5
330
1AB
100
AcDbEntity
  8
0
100
AcDbLine
 10
447.5
 20
217.0
 30
0.0
 11
452.0
 21
217.0
 31
0.0
  0
MTEXT
  5
1B6
330
1AB
100
AcDbEntity
  8
0
100
AcDbMText
 10
446.5
 20
217.0
 30
0.0
 40
1.0
 71
5
  1
13
  0
POINT
  5
1B7
330
1AB
100
AcDbEntity
  8
Defpoints
100
AcDbPoint
 10
440.0
 20
217.0
 30
0.0
  0
POINT
  5
1B8
330
1AB
100
AcDbEntity
  8
Defpoints
100
AcDbPoint
 10
440.0
 20
213.0
 30
0.0
  0
POINT
  5
1B9
330
1AB
100
AcDbEntity
  8
Defpoints
100
AcDbPoint
 10
453.0
 20
213.0
 30
0.0
  0
ENDBLK
  5
1AD
330
1AB
100
AcDbEntity
  8
0
100
AcDbBlockEnd
  0
BLOCK
  5
1BD
330
1BC
100
AcDbEntity
  8
0
100
AcDbBlockBegin
  2
*D24
 70
1
 10
0.0
 20
0.0
 30
0.0
  3
*D24
  1

  0
LINE
  5
1BF
330
1BC
100
AcDbEntity
  8
0
100
AcDbLine
 10
48.0
 20
234.0
 30
0.0
 11
48.0
 21
238.0
 31
0.0
  0
LINE
  5
1C0
330
1BC
100
AcDbEntity
  8
0
100
AcDbLine
 10
59.0
 20
234.0
 30
0.0
 11
59.0
 21
238.0
 31
0.0
  0
INSERT
  5
1C1
330
1BC
100
AcDbEntity
  8
0
100
AcDbBlockReference
  2
_CLOSEDFILLED
 10
48.0
 20
238.0
 30
0.0
 50
180.0
  0
INSERT
  5
1C3
330
1BC
100
AcDbEntity
  8
0
100
AcDbBlockReference
  2
_CLOSEDFILLED
 10
59.0
 20
238.0
 30
0.0
  0
LINE
  5
1C5
330
1BC
100
AcDbEntity
  8
0
100
AcDbLine
 10
49.0
 20
238.0
 30
0.0
 11
52.5
 21
238.0
 31
0.0
  0
LINE
  5
1C6
330
1BC
100
AcDbEntity
  8
0
100
AcDbLine
 10
54.5
 20
238.0
 30
0.0
 11
58.0
 21
238.0
 31
0.0
  0
MTEXT
  5
1C7
330
1BC
100
AcDbEntity
  8
0
100
AcDbMText
 10
53.5
 20
238.0
 30
0.0
 40
1.0
 71
5
  1
11
  0
POINT
  5
1C8
330
1BC
100
AcDbEntity
  8
Defpoints
100
AcDbPoint
 10
48.0
 20
238.0
 30
0.0
  0
POINT
  5
1C9
330
1BC
100
AcDbEntity
  8
Defpoints
100
AcDbPoint
 10
48.0
 20
234.0
 30
0.0
  0
POINT
  5
1CA
330
1BC
100
AcDbEntity
  8
Defpoints
100
AcDbPoint
 10
59.0
 20
234.0
 30
0.0
  0
ENDBLK
  5
1BE
330
1BC
100
AcDbEntity
  8
0
100
AcDbBlockEnd
  0
BLOCK
  5
1CE
330
1CD
100
AcDbEntity
  8
0
100
AcDbBlockBegin
  2
*D25
 70
1
 10
0.0
 20
0.0
 30
0.0
  3
*D25
  1

  0
LINE
  5
1D0
330
1CD
100
AcDbEntity
  8
0
100
AcDbLine
 10
133.0
 20
234.0
 30
0.0
 11
133.0
 21
238.0
 31
0.0
  0
LINE
  5
1D1
330
1CD
100
AcDbEntity
  8
0
100
AcDbLine
 10
141.0
 20
234.0
 30
0.0
 11
141.0
 21
238.0
 31
0.0
  0
INSERT
  5
1D2
330
1CD
100
AcDbEntity
  8
0
100
AcDbBlockReference
  2
_CLOSEDFILLED
 10
133.0
 20
238.0
 30
0.0
 50
180.0
  0
INSERT
  5
1D4
330
1CD
100
AcDbEntity
  8
0
100
AcDbBlockReference
  2
_CLOSEDFILLED
 10
141.0
 20
238.0
 30
0.0
  0
LINE
  5
1D6
330
1CD
100
AcDbEntity
  8
0
100
AcDbLine
 10
134.0
 20
238.0
 30
0.0
 11
136.5
 21
238.0
 31
0.0
  0
LINE
  5
1D7
330
1CD
100
AcDbEntity
  8
0
100
AcDbLine
 10
137.5
 20
238.0
 30
0.0
 11
140.0
 21
238.0
 31
0.0
  0
MTEXT
  5
1D8
330
1CD
100
AcDbEntity
  8
0
100
AcDbMText
 10
137.0
 20
238.0
 30
0.0
 40
1.0
 71
5
  1
8
  0
POINT
  5
1D9
330
1CD
100
AcDbEntity
  8
Defpoints
100
AcDbPoint
 10
133.0
 20
238.0
 30
0.0
  0
POINT
  5
1DA
330
1CD
100
AcDbEntity
  8
Defpoints
100
AcDbPoint
 10
133.0
 20
234.0
 30
0.0
  0
POINT
  5
1DB
330
1CD
100
AcDbEntity
  8
Defpoints
100
AcDbPoint
 10
141.0
 20
234.0
 30
0.0
  0
ENDBLK
  5
1CF
330
1CD
100
AcDbEntity
  8
0
100
AcDbBlockEnd
  0
BLOCK
  5
1DF
330
1DE
100
AcDbEntity
  8
0
100
AcDbBlockBegin
  2
*D26
 70
1
 10
0.0
 20
0.0
 30
0.0
  3
*D26
  1

  0
LINE
  5
1E1
330
1DE
100
AcDbEntity
  8
0
100
AcDbLine
 10
442.0
 20
234.0
 30
0.0
 11
442.0
 21
238.0
 31
0.0
  0
LINE
  5
1E2
330
1DE
100
AcDbEntity
  8
0
100
AcDbLine
 10
453.0
 20
234.0
 30
0.0
 11
453.0
 21
238.0
 31
0.0
  0
INSERT
  5
1E3
330
1DE
100
AcDbEntity
  8
0
100
AcDbBlockReference
  2
_CLOSEDFILLED
 10
442.0
 20
238.0
 30
0.0
 50
180.0
  0
INSERT
  5
1E5
330
1DE
100
AcDbEntity
  8
0
100
AcDbBlockReference
  2
_CLOSEDFILLED
 10
453.0
 20
238.0
 30
0.0
  0
LINE
  5
1E7
330
1DE
100
AcDbEntity
  8
0
100
AcDbLine
 10
443.0
 20
238.0
 30
0.0
 11
446.5
 21
238.0
 31
0.0
  0
LINE
  5
1E8
330
1DE
100
AcDbEntity
  8
0
100
AcDbLine
 10
448.5
 20
238.0
 30
0.0
 11
452.0
 21
238.0
 31
0.0
  0
MTEXT
  5
1E9
330
1DE
100
AcDbEntity
  8
0
100
AcDbMText
 10
447.5
 20
238.0
 30
0.0
 40
1.0
 71
5
  1
11
  0
POINT
  5
1EA
330
1DE
100
AcDbEntity
  8
Defpoints
100
AcDbPoint
 10
442.0
 20
238.0
 30
0.0
  0
POINT
  5
1EB
330
1DE
100
AcDbEntity
  8
Defpoints
100
AcDbPoint
 10
442.0
 20
234.0
 30
0.0
  0
POINT
  5
1EC
330
1DE
100
AcDbEntity
  8
Defpoints
100
AcDbPoint
 10
453.0
 20
234.0
 30
0.0
  0
ENDBLK
  5
1E0
330
1DE
100
AcDbEntity
  8
0
100
AcDbBlockEnd
  0
BLOCK
  5
1F0
330
1EF
100
AcDbEntity
  8
0
100
AcDbBlockBegin
  2
*D27
 70
1
 10
0.0
 20
0.0
 30
0.0
  3
*D27
  1

  0
LINE
  5
1F2
330
1EF
100
AcDbEntity
  8
0
100
AcDbLine
 10
48.0
 20
198.0
 30
0.0
 11
44.0
 21
198.0
 31
0.0
  0
LINE
  5
1F3
330
1EF
100
AcDbEntity
  8
0
100
AcDbLine
 10
48.0
 20
205.0
 30
0.0
 11
44.0
 21
205.0
 31
0.0
  0
INSERT
  5
1F4
330
1EF
100
AcDbEntity
  8
0
100
AcDbBlockReference
  2
_CLOSEDFILLED
 10
44.0
 20
198.0
 30
0.0
 50
270.0
  0
INSERT
  5
1F6
330
1EF
100
AcDbEntity
  8
0
100
AcDbBlockReference
  2
_CLOSEDFILLED
 10
44.0
 20
205.0
 30
0.0
 50
90.0
  0
LINE
  5
1F8
330
1EF
100
AcDbEntity
  8
0
100
AcDbLine
 10
44.0
 20
199.0
 30
0.0
 11
44.0
 21
201.0
 31
0.0
  0
LINE
  5
1F9
330
1EF
100
AcDbEntity
  8
0
100
AcDbLine
 10
44.0
 20
202.0
 30
0.0
 11
44.0
 21
204.0
 31
0.0
  0
MTEXT
  5
1FA
330
1EF
100
AcDbEntity
  8
0
100
AcDbMText
 10
44.0
 20
201.5
 30
0.0
 40
1.0
 71
5
  1
7
 50
90.0
  0
POINT
  5
1FB
330
1EF
100
AcDbEntity
  8
Defpoints
100
AcDbPoint
 10
44.0
 20
198.0
 30
0.0
  0
POINT
  5
1FC
330
1EF
100
AcDbEntity
  8
Defpoints
100
AcDbPoint
 10
48.0
 20
198.0
 30
0.0
  0
POINT
  5
1FD
330
1EF
100
AcDbEntity
  8
Defpoints
100
AcDbPoint
 10
48.0
 20
205.0
 30
0.0
  0
ENDBLK
  5
1F1
330
1EF
100
AcDbEntity
  8
0
100
AcDbBlockEnd
  0
BLOCK
  5
201
330
200
100
AcDbEntity
  8
0
100
AcDbBlockBegin
  2
*D28
 70
1
 10
0.0
 20
0.0
 30
0.0
  3
*D28
  1

  0
LINE
  5
203
330
200
100
AcDbEntity
  8
0
100
AcDbLine
 10
48.0
 20
234.0
 30
0.0
 11
44.0
 21
234.0
 31
0.0
  0
LINE
  5
204
330
200
100
AcDbEntity
  8
0
100
AcDbLine
 10
48.0
 20
252.0
 30
0.0
 11
44.0
 21
252.0
 31
0.0
  0
INSERT
  5
205
330
200
100
AcDbEntity
  8
0
100
AcDbBlockReference
  2
_CLOSEDFILLED
 10
44.0
 20
234.0
 30
0.0
 50
270.0
  0
INSERT
  5
207
330
200
100
AcDbEntity
  8
0
100
AcDbBlockReference
  2
_CLOSEDFILLED
 10
44.0
 20
252.0
 30
0.0
 50
90.0
  0
LINE
  5
209
330
200
100
AcDbEntity
  8
0
100
AcDbLine
 10
44.0
 20
235.0
 30
0.0
 11
44.0
 21
242.0
 31
0.0
  0
LINE
  5
20A
330
200
100
AcDbEntity
  8
0
100
AcDbLine
 10
44.0
 20
244.0
 30
0.0
 11
44.0
 21
251.0
 31
0.0
  0
MTEXT
  5
20B
330
200
100
AcDbEntity
  8
0
100
AcDbMText
 10
44.0
 20
243.0
 30
0.0
 40
1.0
 71
5
  1
18
 50
90.0
  0
POINT
  5
20C
330
200
100
AcDbEntity
  8
Defpoints
100
AcDbPoint
 10
44.0
 20
234.0
 30
0.0
  0
POINT
  5
20D
330
200
100
AcDbEntity
  8
Defpoints
100
AcDbPoint
 10
48.0
 20
234.0
 30
0.0
  0
POINT
  5
20E
330
200
100
AcDbEntity
  8
Defpoints
100
AcDbPoint
 10
48.0
 20
252.0
 30
0.0
  0
ENDBLK
  5
202
330
200
100
AcDbEntity
  8
0
100
AcDbBlockEnd
  0
BLOCK
  5
212
330
211
100
AcDbEntity
  8
0
100
AcDbBlockBegin
  2
*D29
 70
1
 10
0.0
 20
0.0
 30
0.0
  3
*D29
  1

  0
LINE
  5
214
330
211
100
AcDbEntity
  8
0
100
AcDbLine
 10
393.0
 20
100.0
 30
0.0
 11
393.0
 21
104.0
 31
0.0
  0
LINE
  5
215
330
211
100
AcDbEntity
  8
0
100
AcDbLine
 10
413.0
 20
100.0
 30
0.0
 11
413.0
 21
104.0
 31
0.0
  0
INSERT
  5
216
330
211
100
AcDbEntity
  8
0
100
AcDbBlockReference
  2
_CLOSEDFILLED
 10
393.0
 20
104.0
 30
0.0
 50
180.0
  0
INSERT
  5
218
330
211
100
AcDbEntity
  8
0
100
AcDbBlockReference
  2
_CLOSEDFILLED
 10
413.0
 20
104.0
 30
0.0
  0
LINE
  5
21A
330
211
100
AcDbEntity
  8
0
100
AcDbLine
 10
394.0
 20
104.0
 30
0.0
 11
402.0
 21
104.0
 31
0.0
  0
LINE
  5
21B
330
211
100
AcDbEntity
  8
0
100
AcDbLine
 10
404.0
 20
104.0
 30
0.0
 11
412.0
 21
104.0
 31
0.0
  0
MTEXT
  5
21C
330
211
100
AcDbEntity
  8
0
100
AcDbMText
 10
403.0
 20
104.0
 30
0.0
 40
1.0
 71
5
  1
20
  0
POINT
  5
21D
330
211
100
AcDbEntity
  8
Defpoints
100
AcDbPoint
 10
393.0
 20
104.0
 30
0.0
  0
POINT
  5
21E
330
211
100
AcDbEntity
  8
Defpoints
100
AcDbPoint
 10
393.0
 20
100.0
 30
0.0
  0
POINT
  5
21F
330
211
100
AcDbEntity
  8
Defpoints
100
AcDbPoint
 10
413.0
 20
100.0
 30
0.0
  0
ENDBLK
  5
213
330
211
100
AcDbEntity
  8
0
100
AcDbBlockEnd
  0
BLOCK
  5
223
330
222
100
AcDbEntity
  8
0
100
AcDbBlockBegin
  2
*D30
 70
1
 10
0.0
 20
0.0
 30
0.0
  3
*D30
  1

  0
LINE
  5
225
330
222
100
AcDbEntity
  8
0
100
AcDbLine
 10
48.0
 20
243.0
 30
0.0
 11
48.0
 21
247.0
 31
0.0
  0
LINE
  5
226
330
222
100
AcDbEntity
  8
0
100
AcDbLine
 10
59.0
 20
243.0
 30
0.0
 11
59.0
 21
247.0
 31
0.0
  0
INSERT
  5
227
330
222
100
AcDbEntity
  8
0
100
AcDbBlockReference
  2
_CLOSEDFILLED
 10
48.0
 20
247.0
 30
0.0
 50
180.0
  0
INSERT
  5
229
330
222
100
AcDbEntity
  8
0
100
AcDbBlockReference
  2
_CLOSEDFILLED
 10
59.0
 20
247.0
 30
0.0
  0
LINE
  5
22B
330
222
100
AcDbEntity
  8
0
100
AcDbLine
 10
49.0
 20
247.0
 30
0.0
 11
52.5
 21
247.0
 31
0.0
  0
LINE
  5
22C
330
222
100
AcDbEntity
  8
0
100
AcDbLine
 10
54.5
 20
247.0
 30
0.0
 11
58.0
 21
247.0
 31
0.0
  0
MTEXT
  5
22D
330
222
100
AcDbEntity
  8
0
100
AcDbMText
 10
53.5
 20
247.0
 30
0.0
 40
1.0
 71
5
  1
11
  0
POINT
  5
22E
330
222
100
AcDbEntity
  8
Defpoints
100
AcDbPoint
 10
48.0
 20
247.0
 30
0.0
  0
POINT
  5
22F
330
222
100
AcDbEntity
  8
Defpoints
100
AcDbPoint
 10
48.0
 20
243.0
 30
0.0
  0
POINT
  5
230
330
222
100
AcDbEntity
  8
Defpoints
100
AcDbPoint
 10
59.0
 20
243.0
 30
0.0
  0
ENDBLK
  5
224
330
222
100
AcDbEntity
  8
0
100
AcDbBlockEnd
  0
BLOCK
  5
234
330
233
100
AcDbEntity
  8
0
100
AcDbBlockBegin
  2
*D31
 70
1
 10
0.0
 20
0.0
 30
0.0
  3
*D31
  1

  0
LINE
  5
236
330
233
100
AcDbEntity
  8
0
100
AcDbLine
 10
59.0
 20
217.0
 30
0.0
 11
55.0
 21
217.0
 31
0.0
  0
LINE
  5
237
330
233
100
AcDbEntity
  8
0
100
AcDbLine
 10
59.0
 20
252.0
 30
0.0
 11
55.0
 21
252.0
 31
0.0
  0
INSERT
  5
238
330
233
100
AcDbEntity
  8
0
100
AcDbBlockReference
  2
_CLOSEDFILLED
 10
55.0
 20
217.0
 30
0.0
 50
270.0
  0
INSERT
  5
23A
330
233
100
AcDbEntity
  8
0
100
AcDbBlockReference
  2
_CLOSEDFILLED
 10
55.0
 20
252.0
 30
0.0
 50
90.0
  0
LINE
  5
23C
330
233
100
AcDbEntity
  8
0
100
AcDbLine
 10
55.0
 20
218.0
 30
0.0
 11
55.0
 21
233.5
 31
0.0
  0
LINE
  5
23D
330
233
100
AcDbEntity
  8
0
100
AcDbLine
 10
55.0
 20
235.5
 30
0.0
 11
55.0
 21
251.0
 31
0.0
  0
MTEXT
  5
23E
330
233
100
AcDbEntity
  8
0
100
AcDbMText
 10
55.0
 20
234.5
 30
0.0
 40
1.0
 71
5
  1
35
 50
90.0
  0
POINT
  5
23F
330
233
100
AcDbEntity
  8
Defpoints
100
AcDbPoint
 10
55.0
 20
217.0
 30
0.0
  0
POINT
  5
240
330
233
100
AcDbEntity
  8
Defpoints
100
AcDbPoint
 10
59.0
 20
217.0
 30
0.0
  0
POINT
  5
241
330
233
100
AcDbEntity
  8
Defpoints
100
AcDbPoint
 10
59.0
 20
252.0
 30
0.0
  0
ENDBLK
  5
235
330
233
100
AcDbEntity
  8
0
100
AcDbBlockEnd
  0
BLOCK
  5
245
330
244
100
AcDbEntity
  8
0
100
AcDbBlockBegin
  2
*D32
 70
1
 10
0.0
 20
0.0
 30
0.0
  3
*D32
  1

  0
LINE
  5
247
330
244
100
AcDbEntity
  8
0
100
AcDbLine
 10
453.0
 20
213.0
 30
0.0
 11
449.0
 21
213.0
 31
0.0
  0
LINE
  5
248
330
244
100
AcDbEntity
  8
0
100
AcDbLine
 10
453.0
 20
252.0
 30
0.0
 11
449.0
 21
252.0
 31
0.0
  0
INSERT
  5
249
330
244
100
AcDbEntity
  8
0
100
AcDbBlockReference
  2
_CLOSEDFILLED
 10
449.0
 20
213.0
 30
0.0
 50
270.0
  0
INSERT
  5
24B
330
244
100
AcDbEntity
  8
0
100
AcDbBlockReference
  2
_CLOSEDFILLED
 10
449.0
 20
252.0
 30
0.0
 50
90.0
  0
LINE
  5
24D
330
244
100
AcDbEntity
  8
0
100
AcDbLine
 10
449.0
 20
214.0
 30
0.0
 11
449.0
 21
231.5
 31
0.0
  0
LINE
  5
24E
330
244
100
AcDbEntity
  8
0
100
AcDbLine
 10
449.0
 20
233.5
 30
0.0
 11
449.0
 21
251.0
 31
0.0
  0
MTEXT
  5
24F
330
244
100
AcDbEntity
  8
0
100
AcDbMText
 10
449.0
 20
232.5
 30
0.0
 40
1.0
 71
5
  1
39
 50
90.0
  0
POINT
  5
250
330
244
100
AcDbEntity
  8
Defpoints
100
AcDbPoint
 10
449.0
 20
213.0
 30
0.0
  0
POINT
  5
251
330
244
100
AcDbEntity
  8
Defpoints
100
AcDbPoint
 10
453.0
 20
213.0
 30
0.0
  0
POINT
  5
252
330
244
100
AcDbEntity
  8
Defpoints
100
AcDbPoint
 10
453.0
 20
252.0
 30
0.0
  0
ENDBLK
  5
246
330
244
100
AcDbEntity
  8
0
100
AcDbBlockEnd
  0
BLOCK
  5
256
330
255
100
AcDbEntity
  8
0
100
AcDbBlockBegin
  2
*D33
 70
1
 10
0.0
 20
0.0
 30
0.0
  3
*D33
  1

  0
LINE
  5
258
330
255
100
AcDbEntity
  8
0
100
AcDbLine
 10
352.0
 20
122.0
 30
0.0
 11
352.0
 21
126.0
 31
0.0
  0
LINE
  5
259
330
255
100
AcDbEntity
  8
0
100
AcDbLine
 10
366.0
 20
122.0
 30
0.0
 11
366.0
 21
126.0
 31
0.0
  0
INSERT
  5
25A
330
255
100
AcDbEntity
  8
0
100
AcDbBlockReference
  2
_CLOSEDFILLED
 10
352.0
 20
126.0
 30
0.0
 50
180.0
  0
INSERT
  5
25C
330
255
100
AcDbEntity
  8
0
100
AcDbBlockReference
  2
_CLOSEDFILLED
 10
366.0
 20
126.0
 30
0.0
  0
LINE
  5
25E
330
255
100
AcDbEntity
  8
0
100
AcDbLine
 10
353.0
 20
126.0
 30
0.0
 11
358.0
 21
126.0
 31
0.0
  0
LINE
  5
25F
330
255
100
AcDbEntity
  8
0
100
AcDbLine
 10
360.0
 20
126.0
 30
0.0
 11
365.0
 21
126.0
 31
0.0
  0
MTEXT
  5
260
330
255
100
AcDbEntity
  8
0
100
AcDbMText
 10
359.0
 20
126.0
 30
0.0
 40
1.0
 71
5
  1
14
  0
POINT
  5
261
330
255
100
AcDbEntity
  8
Defpoints
100
AcDbPoint
 10
352.0
 20
126.0
 30
0.0
  0
POINT
  5
262
330
255
100
AcDbEntity
  8
Defpoints
100
AcDbPoint
 10
352.0
 20
122.0
 30
0.0
  0
POINT
  5
263
330
255
100
AcDbEntity
  8
Defpoints
100
AcDbPoint
 10
366.0
 20
122.0
 30
0.0
  0
ENDBLK
  5
257
330
255
100
AcDbEntity
  8
0
100
AcDbBlockEnd
  0
BLOCK
  5
267
330
266
100
AcDbEntity
  8
0
100
AcDbBlockBegin
  2
*D34
 70
1
 10
0.0
 20
0.0
 30
0.0
  3
*D34
  1

  0
LINE
  5
269
330
266
100
AcDbEntity
  8
0
100
AcDbLine
 10
253.5
 20
72.5
 30
0.0
 11
256.3284271247462
 21
75.32842712474621
 31
0.0
  0
LINE
  5
26A
330
266
100
AcDbEntity
  8
0
100
AcDbLine
 10
260.5
 20
65.5
 30
0.0
 11
263.3284271247462
 21
68.32842712474621
 31
0.0
  0
INSERT
  5
26B
330
266
100
AcDbEntity
  8
0
100
AcDbBlockReference
  2
_CLOSEDFILLED
 10
256.3284271247462
 20
75.32842712474621
 30
0.0
 50
135.0
  0
INSERT
  5
26D
330
266
100
AcDbEntity
  8
0
100
AcDbBlockReference
  2
_CLOSEDFILLED
 10
263.3284271247462
 20
68.32842712474621
 30
0.0
 50
-45.0
  0
LINE
  5
26F
330
266
100
AcDbEntity
  8
0
100
AcDbLine
 10
257.03553390593277
 20
74.62132034355966
 30
0.0
 11
258.7677669529664
 21
72.88908729652603
 31
0.0
  0
LINE
  5
270
330
266
100
AcDbEntity
  8
0
100
AcDbLine
 10
260.88908729652604
 20
70.76776695296638
 30
0.0
 11
262.62132034355966
 21
69.03553390593277
 31
0.0
  0
MTEXT
  5
271
330
266
100
AcDbEntity
  8
0
100
AcDbMText
 10
259.8284271247462
 20
71.82842712474621
 30
0.0
 40
1.0
 71
5
  1
9,9
 50
-45.0
  0
POINT
  5
272
330
266
100
AcDbEntity
  8
Defpoints
100
AcDbPoint
 10
256.3284271247462
 20
75.32842712474621
 30
0.0
  0
POINT
  5
273
330
266
100
AcDbEntity
  8
Defpoints
100
AcDbPoint
 10
253.5
 20
72.5
 30
0.0
  0
POINT
  5
274
330
266
100
AcDbEntity
  8
Defpoints
100
AcDbPoint
 10
260.5
 20
65.5
 30
0.0
  0
ENDBLK
  5
268
330
266
100
AcDbEntity
  8
0
100
AcDbBlockEnd
  0
BLOCK
  5
278
330
277
100
AcDbEntity
  8
0
100
AcDbBlockBegin
  2
*D35
 70
1
 10
0.0
 20
0.0
 30
0.0
  3
*D35
  1

  0
LINE
  5
27A
330
277
100
AcDbEntity
  8
0
100
AcDbLine
 10
193.0
 20
79.0
 30
0.0
 11
192.34240405077858
 21
82.94557569532857
 31
0.0
  0
LINE
  5
27B
330
277
100
AcDbEntity
  8
0
100
AcDbLine
 10
200.13513513513513
 20
80.1891891891892
 30
0.0
 11
199.4775391859137
 21
84.13476488451776
 31
0.0
  0
INSERT
  5
27C
330
277
100
AcDbEntity
  8
0
100
AcDbBlockReference
  2
_CLOSEDFILLED
 10
192.34240405077858
 20
82.94557569532857
 30
0.0
 50
189.46232220802565
  0
INSERT
  5
27E
330
277
100
AcDbEntity
  8
0
100
AcDbBlockReference
  2
_CLOSEDFILLED
 10
199.4775391859137
 20
84.13476488451776
 30
0.0
 50
9.462322208025656
  0
LINE
  5
280
330
277
100
AcDbEntity
  8
0
100
AcDbLine
 10
193.32879797461072
 20
83.10997468263393
 30
0.0
 11
193.93718377068188
 21
83.21137231531246
 31
0.0
  0
LINE
  5
281
330
277
100
AcDbEntity
  8
0
100
AcDbLine
 10
197.88275946601044
 20
83.86896826453388
 30
0.0
 11
198.49114526208157
 21
83.9703658972124
 31
0.0
  0
MTEXT
  5
282
330
277
100
AcDbEntity
  8
0
100
AcDbMText
 10
195.90997161834616
 20
83.54017028992317
 30
0.0
 40
1.0
 71
5
  1
7,23
 50
9.462322208025656
  0
POINT
  5
283
330
277
100
AcDbEntity
  8
Defpoints
100
AcDbPoint
 10
192.34240405077858
 20
82.94557569532857
 30
0.0
  0
POINT
  5
284
330
277
100
AcDbEntity
  8
Defpoints
100
AcDbPoint
 10
193.0
 20
79.0
 30
0.0
  0
POINT
  5
285
330
277
100
AcDbEntity
  8
Defpoints
100
AcDbPoint
 10
200.13513513513513
 20
80.1891891891892
 30
0.0
  0
ENDBLK
  5
279
330
277
100
AcDbEntity
  8
0
100
AcDbBlockEnd
  0
BLOCK
  5
289
330
288
100
AcDbEntity
  8
0
100
AcDbBlockBegin
  2
*D36
 70
1
 10
0.0
 20
0.0
 30
0.0
  3
*D36
  1

  0
INSERT
  5
28B
330
288
100
AcDbEntity
  8
0
100
AcDbBlockReference
  2
_CLOSEDFILLED
 10
411.4852813742386
 20
318.4852813742386
 30
0.0
 41
0.25
 42
0.25
 50
225.0
  0
LINE
  5
28D
330
288
100
AcDbEntity
  8
0
100
AcDbLine
 10
403.0
 20
310.0
 30
0.0
 11
411.4852813742386
 21
318.4852813742386
 31
0.0
  0
LINE
  5
28E
330
288
100
AcDbEntity
  8
0
100
AcDbLine
 10
412.1039998077768
 20
319.1039998077768
 30
0.0
 11
411.6620580695352
 21
318.6620580695352
 31
0.0
  0
MTEXT
  5
28F
330
288
100
AcDbEntity
  8
0
100
AcDbMText
 10
413.16465997955663
 20
320.16465997955663
 30
0.0
 40
1.0
 71
5
  1
R12
 50
45.0
  0
POINT
  5
290
330
288
100
AcDbEntity
  8
Defpoints
100
AcDbPoint
 10
403.0
 20
310.0
 30
0.0
  0
POINT
  5
291
330
288
100
AcDbEntity
  8
Defpoints
100
AcDbPoint
 10
411.4852813742386
 20
318.4852813742386
 30
0.0
  0
ENDBLK
  5
28A
330
288
100
AcDbEntity
  8
0
100
AcDbBlockEnd
  0
BLOCK
  5
295
330
294
100
AcDbEntity
  8
0
100
AcDbBlockBegin
  2
*D37
 70
1
 10
0.0
 20
0.0
 30
0.0
  3
*D37
  1

  0
INSERT
  5
297
330
294
100
AcDbEntity
  8
0
100
AcDbBlockReference
  2
_CLOSEDFILLED
 10
413.19238815542514
 20
247.1923881554251
 30
0.0
 41
0.25
 42
0.25
 50
224.99999999999991
  0
LINE
  5
299
330
294
100
AcDbEntity
  8
0
100
AcDbLine
 10
404.0
 20
238.0
 30
0.0
 11
413.19238815542514
 21
247.1923881554251
 31
0.0
  0
LINE
  5
29A
330
294
100
AcDbEntity
  8
0
100
AcDbLine
 10
413.81110658896336
 20
247.81110658896336
 30
0.0
 11
413.36916485072175
 21
247.36916485072175
 31
0.0
  0
MTEXT
  5
29B
330
294
100
AcDbEntity
  8
0
100
AcDbMText
 10
414.8717667607432
 20
248.87176676074316
 30
0.0
 40
1.0
 71
5
  1
R13
 50
44.99999999999991
  0
POINT
  5
29C
330
294
100
AcDbEntity
  8
Defpoints
100
AcDbPoint
 10
404.0
 20
238.0
 30
0.0
  0
POINT
  5
29D
330
294
100
AcDbEntity
  8
Defpoints
100
AcDbPoint
 10
413.19238815542514
 20
247.1923881554251
 30
0.0
  0
ENDBLK
  5
296
330
294
100
AcDbEntity
  8
0
100
AcDbBlockEnd
  0
BLOCK
  5
2A1
330
2A0
100
AcDbEntity
  8
0
100
AcDbBlockBegin
  2
*D38
 70
1
 10
0.0
 20
0.0
 30
0.0
  3
*D38
  1

  0
INSERT
  5
2A3
330
2A0
100
AcDbEntity
  8
0
100
AcDbBlockReference
  2
_CLOSEDFILLED
 10
214.6776695296637
 20
266.6776695296637
 30
0.0
 41
0.25
 42
0.25
 50
225.00000000000006
  0
LINE
  5
2A5
330
2A0
100
AcDbEntity
  8
0
100
AcDbLine
 10
197.0
 20
249.0
 30
0.0
 11
214.6776695296637
 21
266.6776695296637
 31
0.0
  0
LINE
  5
2A6
330
2A0
100
AcDbEntity
  8
0
100
AcDbLine
 10
215.29638796320194
 20
267.29638796320194
 30
0.0
 11
214.85444622496033
 21
266.8544462249603
 31
0.0
  0
MTEXT
  5
2A7
330
2A0
100
AcDbEntity
  8
0
100
AcDbMText
 10
216.35704813498174
 20
268.35704813498177
 30
0.0
 40
1.0
 71
5
  1
R25
 50
45.00000000000005
  0
POINT
  5
2A8
330
2A0
100
AcDbEntity
  8
Defpoints
100
AcDbPoint
 10
197.0
 20
249.0
 30
0.0
  0
POINT
  5
2A9
330
2A0
100
AcDbEntity
  8
Defpoints
100
AcDbPoint
 10
214.6776695296637
 20
266.6776695296637
 30
0.0
  0
ENDBLK
  5
2A2
330
2A0
100
AcDbEntity
  8
0
100
AcDbBlockEnd
  0
BLOCK
  5
2AD
330
2AC
100
AcDbEntity
  8
0
100
AcDbBlockBegin
  2
*D39
 70
1
 10
0.0
 20
0.0
 30
0.0
  3
*D39
  1

  0
INSERT
  5
2AF
330
2AC
100
AcDbEntity
  8
0
100
AcDbBlockReference
  2
_CLOSEDFILLED
 10
213.97056274847714
 20
219.97056274847714
 30
0.0
 41
0.25
 42
0.25
 50
225.0
  0
LINE
  5
2B1
330
2AC
100
AcDbEntity
  8
0
100
AcDbLine
 10
197.0
 20
203.0
 30
0.0
 11
213.97056274847714
 21
219.97056274847714
 31
0.0
  0
LINE
  5
2B2
330
2AC
100
AcDbEntity
  8
0
100
AcDbLine
 10
214.58928118201536
 20
220.58928118201536
 30
0.0
 11
214.14733944377377
 21
220.14733944377377
 31
0.0
  0
MTEXT
  5
2B3
330
2AC
100
AcDbEntity
  8
0
100
AcDbMText
 10
215.64994135379519
 20
221.64994135379519
 30
0.0
 40
1.0
 71
5
  1
R24
 50
45.0
  0
POINT
  5
2B4
330
2AC
100
AcDbEntity
  8
Defpoints
100
AcDbPoint
 10
197.0
 20
203.0
 30
0.0
  0
POINT
  5
2B5
330
2AC
100
AcDbEntity
  8
Defpoints
100
AcDbPoint
 10
213.97056274847714
 20
219.97056274847714
 30
0.0
  0
ENDBLK
  5
2AE
330
2AC
100
AcDbEntity
  8
0
100
AcDbBlockEnd
  0
BLOCK
  5
2B9
330
2B8
100
AcDbEntity
  8
0
100
AcDbBlockBegin
  2
*D40
 70
1
 10
0.0
 20
0.0
 30
0.0
  3
*D40
  1

  0
INSERT
  5
2BB
330
2B8
100
AcDbEntity
  8
0
100
AcDbBlockReference
  2
_CLOSEDFILLED
 10
186.94974746830584
 20
186.94974746830584
 30
0.0
 41
0.25
 42
0.25
 50
225.0
  0
LINE
  5
2BD
330
2B8
100
AcDbEntity
  8
0
100
AcDbLine
 10
182.0
 20
182.0
 30
0.0
 11
186.94974746830584
 21
186.94974746830584
 31
0.0
  0
LINE
  5
2BE
330
2B8
100
AcDbEntity
  8
0
100
AcDbLine
 10
187.56846590184406
 20
187.56846590184406
 30
0.0
 11
187.12652416360248
 21
187.12652416360248
 31
0.0
  0
MTEXT
  5
2BF
330
2B8
100
AcDbEntity
  8
0
100
AcDbMText
 10
188.27557268303062
 20
188.27557268303062
 30
0.0
 40
1.0
 71
5
  1
R7
 50
45.0
  0
POINT
  5
2C0
330
2B8
100
AcDbEntity
  8
Defpoints
100
AcDbPoint
 10
182.0
 20
182.0
 30
0.0
  0
POINT
  5
2C1
330
2B8
100
AcDbEntity
  8
Defpoints
100
AcDbPoint
 10
186.94974746830584
 20
186.94974746830584
 30
0.0
  0
ENDBLK
  5
2BA
330
2B8
100
AcDbEntity
  8
0
100
AcDbBlockEnd
  0
BLOCK
  5
2C5
330
2C4
100
AcDbEntity
  8
0
100
AcDbBlockBegin
  2
*D41
 70
1
 10
0.0
 20
0.0
 30
0.0
  3
*D41
  1

  0
INSERT
  5
2C7
330
2C4
100
AcDbEntity
  8
0
100
AcDbBlockReference
  2
_CLOSEDFILLED
 10
411.4852813742386
 20
194.48528137423858
 30
0.0
 41
0.25
 42
0.25
 50
225.0
  0
LINE
  5
2C9
330
2C4
100
AcDbEntity
  8
0
100
AcDbLine
 10
403.0
 20
186.0
 30
0.0
 11
411.4852813742386
 21
194.48528137423858
 31
0.0
  0
LINE
  5
2CA
330
2C4
100
AcDbEntity
  8
0
100
AcDbLine
 10
412.1039998077768
 20
195.10399980777683
 30
0.0
 11
411.6620580695352
 21
194.66205806953522
 31
0.0
  0
MTEXT
  5
2CB
330
2C4
100
AcDbEntity
  8
0
100
AcDbMText
 10
413.16465997955663
 20
196.16465997955663
 30
0.0
 40
1.0
 71
5
  1
R12
 50
45.0
  0
POINT
  5
2CC
330
2C4
100
AcDbEntity
  8
Defpoints
100
AcDbPoint
 10
403.0
 20
186.0
 30
0.0
  0
POINT
  5
2CD
330
2C4
100
AcDbEntity
  8
Defpoints
100
AcDbPoint
 10
411.4852813742386
 20
194.48528137423858
 30
0.0
  0
ENDBLK
  5
2C6
330
2C4
100
AcDbEntity
  8
0
100
AcDbBlockEnd
  0
BLOCK
  5
2D1
330
2D0
100
AcDbEntity
  8
0
100
AcDbBlockBegin
  2
*D42
 70
1
 10
0.0
 20
0.0
 30
0.0
  3
*D42
  1

  0
INSERT
  5
2D3
330
2D0
100
AcDbEntity
  8
0
100
AcDbBlockReference
  2
_CLOSEDFILLED
 10
236.77817459305203
 20
182.77817459305203
 30
0.0
 41
0.25
 42
0.25
 50
225.0
  0
LINE
  5
2D5
330
2D0
100
AcDbEntity
  8
0
100
AcDbLine
 10
229.0
 20
175.0
 30
0.0
 11
236.77817459305203
 21
182.77817459305203
 31
0.0
  0
LINE
  5
2D6
330
2D0
100
AcDbEntity
  8
0
100
AcDbLine
 10
237.39689302659025
 20
183.39689302659025
 30
0.0
 11
236.95495128834867
 21
182.95495128834867
 31
0.0
  0
MTEXT
  5
2D7
330
2D0
100
AcDbEntity
  8
0
100
AcDbMText
 10
238.45755319837008
 20
184.45755319837008
 30
0.0
 40
1.0
 71
5
  1
R11
 50
45.0
  0
POINT
  5
2D8
330
2D0
100
AcDbEntity
  8
Defpoints
100
AcDbPoint
 10
229.0
 20
175.0
 30
0.0
  0
POINT
  5
2D9
330
2D0
100
AcDbEntity
  8
Defpoints
100
AcDbPoint
 10
236.77817459305203
 20
182.77817459305203
 30
0.0
  0
ENDBLK
  5
2D2
330
2D0
100
AcDbEntity
  8
0
100
AcDbBlockEnd
  0
ENDSEC
  0
SECTION
  2
ENTITIES
  0
LINE
  5
2F
330
17
100
AcDbEntity
  8
0
100
AcDbLine
 10
235.0
 20
106.0
 30
0.0
 11
235.0
 21
277.0
 31
0.0
  0
DIMENSION
  5
30
330
17
100
AcDbEntity
  8
0
100
AcDbDimension
280
0
  2
*D1
  3
Standard
 10
231.0
 20
106.0
 30
0.0
 11
231.0
 21
191.5
 31
0.0
 70
32
 71
5
  1
<>
100
AcDbAlignedDimension
 13
235.0
 23
106.0
 33
0.0
 14
235.0
 24
277.0
 34
0.0
 50
90.0
100
AcDbRotatedDimension
1001
ACAD
1000
DSTYLE
1002
{
1070
41
1040
1.0
1070
173
1070
0
1070
142
1040
0.0
1070
342
1005
0
1002
}
  0
LINE
  5
44
330
17
100
AcDbEntity
  8
0
100
AcDbLine
 10
413.0
 20
41.0
 30
0.0
 11
413.0
 21
74.0
 31
0.0
  0
DIMENSION
  5
45
330
17
100
AcDbEntity
  8
0
100
AcDbDimension
280
0
  2
*D2
  3
Standard
 10
409.0
 20
41.0
 30
0.0
 11
409.0
 21
57.5
 31
0.0
 70
32
 71
5
  1
<>
100
AcDbAlignedDimension
 13
413.0
 23
41.0
 33
0.0
 14
413.0
 24
74.0
 34
0.0
 50
90.0
100
AcDbRotatedDimension
1001
ACAD
1000
DSTYLE
1002
{
1070
41
1040
1.0
1070
173
1070
0
1070
142
1040
0.0
1070
342
1005
0
1002
}
  0
LINE
  5
55
330
17
100
AcDbEntity
  8
0
100
AcDbLine
 10
413.0
 20
100.0
 30
0.0
 11
413.0
 21
322.0
 31
0.0
  0
DIMENSION
  5
56
330
17
100
AcDbEntity
  8
0
100
AcDbDimension
280
0
  2
*D3
  3
Standard
 10
409.0
 20
100.0
 30
0.0
 11
409.0
 21
211.0
 31
0.0
 70
32
 71
5
  1
<>
100
AcDbAlignedDimension
 13
413.0
 23
100.0
 33
0.0
 14
413.0
 24
322.0
 34
0.0
 50
90.0
100
AcDbRotatedDimension
1001
ACAD
1000
DSTYLE
1002
{
1070
41
1040
1.0
1070
173
1070
0
1070
142
1040
0.0
1070
342
1005
0
1002
}
  0
LINE
  5
66
330
17
100
AcDbEntity
  8
0
100
AcDbLine
 10
174.0
 20
41.0
 30
0.0
 11
174.0
 21
277.0
 31
0.0
  0
DIMENSION
  5
67
330
17
100
AcDbEntity
  8
0
100
AcDbDimension
280
0
  2
*D4
  3
Standard
 10
170.0
 20
41.0
 30
0.0
 11
170.0
 21
159.0
 31
0.0
 70
32
 71
5
  1
<>
100
AcDbAlignedDimension
 13
174.0
 23
41.0
 33
0.0
 14
174.0
 24
277.0
 34
0.0
 50
90.0
100
AcDbRotatedDimension
1001
ACAD
1000
DSTYLE
1002
{
1070
41
1040
1.0
1070
173
1070
0
1070
142
1040
0.0
1070
342
1005
0
1002
}
  0
LINE
  5
77
330
17
100
AcDbEntity
  8
0
100
AcDbLine
 10
137.0
 20
322.0
 30
0.0
 11
413.0
 21
322.0
 31
0.0
  0
DIMENSION
  5
78
330
17
100
AcDbEntity
  8
0
100
AcDbDimension
280
0
  2
*D5
  3
Standard
 10
137.0
 20
326.0
 30
0.0
 11
275.0
 21
326.0
 31
0.0
 70
32
 71
5
  1
<>
100
AcDbAlignedDimension
 13
137.0
 23
322.0
 33
0.0
 14
413.0
 24
322.0
 34
0.0
 50
0.0
100
AcDbRotatedDimension
1001
ACAD
1000
DSTYLE
1002
{
1070
41
1040
1.0
1070
173
1070
0
1070
142
1040
0.0
1070
342
1005
0
1002
}
  0
LINE
  5
88
330
17
100
AcDbEntity
  8
0
100
AcDbLine
 10
95.0
 20
164.0
 30
0.0
 11
393.0
 21
164.0
 31
0.0
  0
DIMENSION
  5
89
330
17
100
AcDbEntity
  8
0
100
AcDbDimension
280
0
  2
*D6
  3
Standard
 10
95.0
 20
168.0
 30
0.0
 11
244.0
 21
168.0
 31
0.0
 70
32
 71
5
  1
<>
100
AcDbAlignedDimension
 13
95.0
 23
164.0
 33
0.0
 14
393.0
 24
164.0
 34
0.0
 50
0.0
100
AcDbRotatedDimension
1001
ACAD
1000
DSTYLE
1002
{
1070
41
1040
1.0
1070
173
1070
0
1070
142
1040
0.0
1070
342
1005
0
1002
}
  0
LINE
  5
99
330
17
100
AcDbEntity
  8
0
100
AcDbLine
 10
159.0
 20
227.0
 30
0.0
 11
235.0
 21
227.0
 31
0.0
  0
DIMENSION
  5
9A
330
17
100
AcDbEntity
  8
0
100
AcDbDimension
280
0
  2
*D7
  3
Standard
 10
159.0
 20
231.0
 30
0.0
 11
197.0
 21
231.0
 31
0.0
 70
32
 71
5
  1
<>
100
AcDbAlignedDimension
 13
159.0
 23
227.0
 33
0.0
 14
235.0
 24
227.0
 34
0.0
 50
0.0
100
AcDbRotatedDimension
1001
ACAD
1000
DSTYLE
1002
{
1070
41
1040
1.0
1070
173
1070
0
1070
142
1040
0.0
1070
342
1005
0
1002
}
  0
LINE
  5
AA
330
17
100
AcDbEntity
  8
0
100
AcDbLine
 10
274.0
 20
227.0
 30
0.0
 11
356.0
 21
227.0
 31
0.0
  0
DIMENSION
  5
AB
330
17
100
AcDbEntity
  8
0
100
AcDbDimension
280
0
  2
*D8
  3
Standard
 10
274.0
 20
231.0
 30
0.0
 11
315.0
 21
231.0
 31
0.0
 70
32
 71
5
  1
<>
100
AcDbAlignedDimension
 13
274.0
 23
227.0
 33
0.0
 14
356.0
 24
227.0
 34
0.0
 50
0.0
100
AcDbRotatedDimension
1001
ACAD
1000
DSTYLE
1002
{
1070
41
1040
1.0
1070
173
1070
0
1070
142
1040
0.0
1070
342
1005
0
1002
}
  0
LINE
  5
BB
330
17
100
AcDbEntity
  8
0
100
AcDbLine
 10
376.0
 20
227.0
 30
0.0
 11
432.0
 21
227.0
 31
0.0
  0
DIMENSION
  5
BC
330
17
100
AcDbEntity
  8
0
100
AcDbDimension
280
0
  2
*D9
  3
Standard
 10
376.0
 20
231.0
 30
0.0
 11
404.0
 21
231.0
 31
0.0
 70
32
 71
5
  1
<>
100
AcDbAlignedDimension
 13
376.0
 23
227.0
 33
0.0
 14
432.0
 24
227.0
 34
0.0
 50
0.0
100
AcDbRotatedDimension
1001
ACAD
1000
DSTYLE
1002
{
1070
41
1040
1.0
1070
173
1070
0
1070
142
1040
0.0
1070
342
1005
0
1002
}
  0
LINE
  5
CC
330
17
100
AcDbEntity
  8
0
100
AcDbLine
 10
137.0
 20
129.0
 30
0.0
 11
413.0
 21
129.0
 31
0.0
  0
DIMENSION
  5
CD
330
17
100
AcDbEntity
  8
0
100
AcDbDimension
280
0
  2
*D10
  3
Standard
 10
137.0
 20
133.0
 30
0.0
 11
275.0
 21
133.0
 31
0.0
 70
32
 71
5
  1
<>
100
AcDbAlignedDimension
 13
137.0
 23
129.0
 33
0.0
 14
413.0
 24
129.0
 34
0.0
 50
0.0
100
AcDbRotatedDimension
1001
ACAD
1000
DSTYLE
1002
{
1070
41
1040
1.0
1070
173
1070
0
1070
142
1040
0.0
1070
342
1005
0
1002
}
  0
LINE
  5
DD
330
17
100
AcDbEntity
  8
0
100
AcDbLine
 10
95.0
 20
291.0
 30
0.0
 11
393.0
 21
291.0
 31
0.0
  0
DIMENSION
  5
DE
330
17
100
AcDbEntity
  8
0
100
AcDbDimension
280
0
  2
*D11
  3
Standard
 10
95.0
 20
295.0
 30
0.0
 11
244.0
 21
295.0
 31
0.0
 70
32
 71
5
  1
<>
100
AcDbAlignedDimension
 13
95.0
 23
291.0
 33
0.0
 14
393.0
 24
291.0
 34
0.0
 50
0.0
100
AcDbRotatedDimension
1001
ACAD
1000
DSTYLE
1002
{
1070
41
1040
1.0
1070
173
1070
0
1070
142
1040
0.0
1070
342
1005
0
1002
}
  0
LINE
  5
EE
330
17
100
AcDbEntity
  8
0
100
AcDbLine
 10
174.0
 20
177.0
 30
0.0
 11
221.0
 21
177.0
 31
0.0
  0
DIMENSION
  5
EF
330
17
100
AcDbEntity
  8
0
100
AcDbDimension
280
0
  2
*D12
  3
Standard
 10
174.0
 20
181.0
 30
0.0
 11
197.5
 21
181.0
 31
0.0
 70
32
 71
5
  1
<>
100
AcDbAlignedDimension
 13
174.0
 23
177.0
 33
0.0
 14
221.0
 24
177.0
 34
0.0
 50
0.0
100
AcDbRotatedDimension
1001
ACAD
1000
DSTYLE
1002
{
1070
41
1040
1.0
1070
173
1070
0
1070
142
1040
0.0
1070
342
1005
0
1002
}
  0
LINE
  5
FF
330
17
100
AcDbEntity
  8
0
100
AcDbLine
 10
235.0
 20
177.0
 30
0.0
 11
474.0
 21
177.0
 31
0.0
  0
DIMENSION
  5
100
330
17
100
AcDbEntity
  8
0
100
AcDbDimension
280
0
  2
*D13
  3
Standard
 10
235.0
 20
181.0
 30
0.0
 11
354.5
 21
181.0
 31
0.0
 70
32
 71
5
  1
<>
100
AcDbAlignedDimension
 13
235.0
 23
177.0
 33
0.0
 14
474.0
 24
177.0
 34
0.0
 50
0.0
100
AcDbRotatedDimension
1001
ACAD
1000
DSTYLE
1002
{
1070
41
1040
1.0
1070
173
1070
0
1070
142
1040
0.0
1070
342
1005
0
1002
}
  0
LINE
  5
110
330
17
100
AcDbEntity
  8
0
100
AcDbLine
 10
174.0
 20
277.0
 30
0.0
 11
221.0
 21
277.0
 31
0.0
  0
DIMENSION
  5
111
330
17
100
AcDbEntity
  8
0
100
AcDbDimension
280
0
  2
*D14
  3
Standard
 10
174.0
 20
281.0
 30
0.0
 11
197.5
 21
281.0
 31
0.0
 70
32
 71
5
  1
<>
100
AcDbAlignedDimension
 13
174.0
 23
277.0
 33
0.0
 14
221.0
 24
277.0
 34
0.0
 50
0.0
100
AcDbRotatedDimension
1001
ACAD
1000
DSTYLE
1002
{
1070
41
1040
1.0
1070
173
1070
0
1070
142
1040
0.0
1070
342
1005
0
1002
}
  0
LINE
  5
121
330
17
100
AcDbEntity
  8
0
100
AcDbLine
 10
235.0
 20
277.0
 30
0.0
 11
474.0
 21
277.0
 31
0.0
  0
DIMENSION
  5
122
330
17
100
AcDbEntity
  8
0
100
AcDbDimension
280
0
  2
*D15
  3
Standard
 10
235.0
 20
281.0
 30
0.0
 11
354.5
 21
281.0
 31
0.0
 70
32
 71
5
  1
<>
100
AcDbAlignedDimension
 13
235.0
 23
277.0
 33
0.0
 14
474.0
 24
277.0
 34
0.0
 50
0.0
100
AcDbRotatedDimension
1001
ACAD
1000
DSTYLE
1002
{
1070
41
1040
1.0
1070
173
1070
0
1070
142
1040
0.0
1070
342
1005
0
1002
}
  0
LINE
  5
132
330
17
100
AcDbEntity
  8
0
100
AcDbLine
 10
60.0
 20
266.0
 30
0.0
 11
235.0
 21
266.0
 31
0.0
  0
DIMENSION
  5
133
330
17
100
AcDbEntity
  8
0
100
AcDbDimension
280
0
  2
*D16
  3
Standard
 10
60.0
 20
270.0
 30
0.0
 11
147.5
 21
270.0
 31
0.0
 70
32
 71
5
  1
<>
100
AcDbAlignedDimension
 13
60.0
 23
266.0
 33
0.0
 14
235.0
 24
266.0
 34
0.0
 50
0.0
100
AcDbRotatedDimension
1001
ACAD
1000
DSTYLE
1002
{
1070
41
1040
1.0
1070
173
1070
0
1070
142
1040
0.0
1070
342
1005
0
1002
}
  0
LINE
  5
143
330
17
100
AcDbEntity
  8
0
100
AcDbLine
 10
393.0
 20
100.0
 30
0.0
 11
393.0
 21
322.0
 31
0.0
  0
DIMENSION
  5
144
330
17
100
AcDbEntity
  8
0
100
AcDbDimension
280
0
  2
*D17
  3
Standard
 10
389.0
 20
100.0
 30
0.0
 11
389.0
 21
211.0
 31
0.0
 70
32
 71
5
  1
<>
100
AcDbAlignedDimension
 13
393.0
 23
100.0
 33
0.0
 14
393.0
 24
322.0
 34
0.0
 50
90.0
100
AcDbRotatedDimension
1001
ACAD
1000
DSTYLE
1002
{
1070
41
1040
1.0
1070
173
1070
0
1070
142
1040
0.0
1070
342
1005
0
1002
}
  0
LINE
  5
154
330
17
100
AcDbEntity
  8
0
100
AcDbLine
 10
221.0
 20
109.0
 30
0.0
 11
221.0
 21
277.0
 31
0.0
  0
DIMENSION
  5
155
330
17
100
AcDbEntity
  8
0
100
AcDbDimension
280
0
  2
*D18
  3
Standard
 10
217.0
 20
109.0
 30
0.0
 11
217.0
 21
193.0
 31
0.0
 70
32
 71
5
  1
<>
100
AcDbAlignedDimension
 13
221.0
 23
109.0
 33
0.0
 14
221.0
 24
277.0
 34
0.0
 50
90.0
100
AcDbRotatedDimension
1001
ACAD
1000
DSTYLE
1002
{
1070
41
1040
1.0
1070
173
1070
0
1070
142
1040
0.0
1070
342
1005
0
1002
}
  0
LINE
  5
165
330
17
100
AcDbEntity
  8
0
100
AcDbLine
 10
332.0
 20
93.0
 30
0.0
 11
332.0
 21
291.0
 31
0.0
  0
DIMENSION
  5
166
330
17
100
AcDbEntity
  8
0
100
AcDbDimension
280
0
  2
*D19
  3
Standard
 10
328.0
 20
93.0
 30
0.0
 11
328.0
 21
192.0
 31
0.0
 70
32
 71
5
  1
<>
100
AcDbAlignedDimension
 13
332.0
 23
93.0
 33
0.0
 14
332.0
 24
291.0
 34
0.0
 50
90.0
100
AcDbRotatedDimension
1001
ACAD
1000
DSTYLE
1002
{
1070
41
1040
1.0
1070
173
1070
0
1070
142
1040
0.0
1070
342
1005
0
1002
}
  0
LINE
  5
176
330
17
100
AcDbEntity
  8
0
100
AcDbLine
 10
60.0
 20
189.0
 30
0.0
 11
235.0
 21
189.0
 31
0.0
  0
DIMENSION
  5
177
330
17
100
AcDbEntity
  8
0
100
AcDbDimension
280
0
  2
*D20
  3
Standard
 10
60.0
 20
193.0
 30
0.0
 11
147.5
 21
193.0
 31
0.0
 70
32
 71
5
  1
<>
100
AcDbAlignedDimension
 13
60.0
 23
189.0
 33
0.0
 14
235.0
 24
189.0
 34
0.0
 50
0.0
100
AcDbRotatedDimension
1001
ACAD
1000
DSTYLE
1002
{
1070
41
1040
1.0
1070
173
1070
0
1070
142
1040
0.0
1070
342
1005
0
1002
}
  0
LINE
  5
187
330
17
100
AcDbEntity
  8
0
100
AcDbLine
 10
94.0
 20
213.0
 30
0.0
 11
104.0
 21
213.0
 31
0.0
  0
DIMENSION
  5
188
330
17
100
AcDbEntity
  8
0
100
AcDbDimension
280
0
  2
*D21
  3
Standard
 10
94.0
 20
217.0
 30
0.0
 11
99.0
 21
217.0
 31
0.0
 70
32
 71
5
  1
<>
100
AcDbAlignedDimension
 13
94.0
 23
213.0
 33
0.0
 14
104.0
 24
213.0
 34
0.0
 50
0.0
100
AcDbRotatedDimension
1001
ACAD
1000
DSTYLE
1002
{
1070
41
1040
1.0
1070
173
1070
0
1070
142
1040
0.0
1070
342
1005
0
1002
}
  0
LINE
  5
198
330
17
100
AcDbEntity
  8
0
100
AcDbLine
 10
137.0
 20
213.0
 30
0.0
 11
147.0
 21
213.0
 31
0.0
  0
DIMENSION
  5
199
330
17
100
AcDbEntity
  8
0
100
AcDbDimension
280
0
  2
*D22
  3
Standard
 10
137.0
 20
217.0
 30
0.0
 11
142.0
 21
217.0
 31
0.0
 70
32
 71
5
  1
<>
100
AcDbAlignedDimension
 13
137.0
 23
213.0
 33
0.0
 14
147.0
 24
213.0
 34
0.0
 50
0.0
100
AcDbRotatedDimension
1001
ACAD
1000
DSTYLE
1002
{
1070
41
1040
1.0
1070
173
1070
0
1070
142
1040
0.0
1070
342
1005
0
1002
}
  0
LINE
  5
1A9
330
17
100
AcDbEntity
  8
0
100
AcDbLine
 10
440.0
 20
213.0
 30
0.0
 11
453.0
 21
213.0
 31
0.0
  0
DIMENSION
  5
1AA
330
17
100
AcDbEntity
  8
0
100
AcDbDimension
280
0
  2
*D23
  3
Standard
 10
440.0
 20
217.0
 30
0.0
 11
446.5
 21
217.0
 31
0.0
 70
32
 71
5
  1
<>
100
AcDbAlignedDimension
 13
440.0
 23
213.0
 33
0.0
 14
453.0
 24
213.0
 34
0.0
 50
0.0
100
AcDbRotatedDimension
1001
ACAD
1000
DSTYLE
1002
{
1070
41
1040
1.0
1070
173
1070
0
1070
142
1040
0.0
1070
342
1005
0
1002
}
  0
LINE
  5
1BA
330
17
100
AcDbEntity
  8
0
100
AcDbLine
 10
48.0
 20
234.0
 30
0.0
 11
59.0
 21
234.0
 31
0.0
  0
DIMENSION
  5
1BB
330
17
100
AcDbEntity
  8
0
100
AcDbDimension
280
0
  2
*D24
  3
Standard
 10
48.0
 20
238.0
 30
0.0
 11
53.5
 21
238.0
 31
0.0
 70
32
 71
5
  1
<>
100
AcDbAlignedDimension
 13
48.0
 23
234.0
 33
0.0
 14
59.0
 24
234.0
 34
0.0
 50
0.0
100
AcDbRotatedDimension
1001
ACAD
1000
DSTYLE
1002
{
1070
41
1040
1.0
1070
173
1070
0
1070
142
1040
0.0
1070
342
1005
0
1002
}
  0
LINE
  5
1CB
330
17
100
AcDbEntity
  8
0
100
AcDbLine
 10
133.0
 20
234.0
 30
0.0
 11
141.0
 21
234.0
 31
0.0
  0
DIMENSION
  5
1CC
330
17
100
AcDbEntity
  8
0
100
AcDbDimension
280
0
  2
*D25
  3
Standard
 10
133.0
 20
238.0
 30
0.0
 11
137.0
 21
238.0
 31
0.0
 70
32
 71
5
  1
<>
100
AcDbAlignedDimension
 13
133.0
 23
234.0
 33
0.0
 14
141.0
 24
234.0
 34
0.0
 50
0.0
100
AcDbRotatedDimension
1001
ACAD
1000
DSTYLE
1002
{
1070
41
1040
1.0
1070
173
1070
0
1070
142
1040
0.0
1070
342
1005
0
1002
}
  0
LINE
  5
1DC
330
17
100
AcDbEntity
  8
0
100
AcDbLine
 10
442.0
 20
234.0
 30
0.0
 11
453.0
 21
234.0
 31
0.0
  0
DIMENSION
  5
1DD
330
17
100
AcDbEntity
  8
0
100
AcDbDimension
280
0
  2
*D26
  3
Standard
 10
442.0
 20
238.0
 30
0.0
 11
447.5
 21
238.0
 31
0.0
 70
32
 71
5
  1
<>
100
AcDbAlignedDimension
 13
442.0
 23
234.0
 33
0.0
 14
453.0
 24
234.0
 34
0.0
 50
0.0
100
AcDbRotatedDimension
1001
ACAD
1000
DSTYLE
1002
{
1070
41
1040
1.0
1070
173
1070
0
1070
142
1040
0.0
1070
342
1005
0
1002
}
  0
LINE
  5
1ED
330
17
100
AcDbEntity
  8
0
100
AcDbLine
 10
48.0
 20
198.0
 30
0.0
 11
48.0
 21
205.0
 31
0.0
  0
DIMENSION
  5
1EE
330
17
100
AcDbEntity
  8
0
100
AcDbDimension
280
0
  2
*D27
  3
Standard
 10
44.0
 20
198.0
 30
0.0
 11
44.0
 21
201.5
 31
0.0
 70
32
 71
5
  1
<>
100
AcDbAlignedDimension
 13
48.0
 23
198.0
 33
0.0
 14
48.0
 24
205.0
 34
0.0
 50
90.0
100
AcDbRotatedDimension
1001
ACAD
1000
DSTYLE
1002
{
1070
41
1040
1.0
1070
173
1070
0
1070
142
1040
0.0
1070
342
1005
0
1002
}
  0
LINE
  5
1FE
330
17
100
AcDbEntity
  8
0
100
AcDbLine
 10
48.0
 20
234.0
 30
0.0
 11
48.0
 21
252.0
 31
0.0
  0
DIMENSION
  5
1FF
330
17
100
AcDbEntity
  8
0
100
AcDbDimension
280
0
  2
*D28
  3
Standard
 10
44.0
 20
234.0
 30
0.0
 11
44.0
 21
243.0
 31
0.0
 70
32
 71
5
  1
<>
100
AcDbAlignedDimension
 13
48.0
 23
234.0
 33
0.0
 14
48.0
 24
252.0
 34
0.0
 50
90.0
100
AcDbRotatedDimension
1001
ACAD
1000
DSTYLE
1002
{
1070
41
1040
1.0
1070
173
1070
0
1070
142
1040
0.0
1070
342
1005
0
1002
}
  0
LINE
  5
20F
330
17
100
AcDbEntity
  8
0
100
AcDbLine
 10
393.0
 20
100.0
 30
0.0
 11
413.0
 21
100.0
 31
0.0
  0
DIMENSION
  5
210
330
17
100
AcDbEntity
  8
0
100
AcDbDimension
280
0
  2
*D29
  3
Standard
 10
393.0
 20
104.0
 30
0.0
 11
403.0
 21
104.0
 31
0.0
 70
32
 71
5
  1
<>
100
AcDbAlignedDimension
 13
393.0
 23
100.0
 33
0.0
 14
413.0
 24
100.0
 34
0.0
 50
0.0
100
AcDbRotatedDimension
1001
ACAD
1000
DSTYLE
1002
{
1070
41
1040
1.0
1070
173
1070
0
1070
142
1040
0.0
1070
342
1005
0
1002
}
  0
LINE
  5
220
330
17
100
AcDbEntity
  8
0
100
AcDbLine
 10
48.0
 20
243.0
 30
0.0
 11
59.0
 21
243.0
 31
0.0
  0
DIMENSION
  5
221
330
17
100
AcDbEntity
  8
0
100
AcDbDimension
280
0
  2
*D30
  3
Standard
 10
48.0
 20
247.0
 30
0.0
 11
53.5
 21
247.0
 31
0.0
 70
32
 71
5
  1
<>
100
AcDbAlignedDimension
 13
48.0
 23
243.0
 33
0.0
 14
59.0
 24
243.0
 34
0.0
 50
0.0
100
AcDbRotatedDimension
1001
ACAD
1000
DSTYLE
1002
{
1070
41
1040
1.0
1070
173
1070
0
1070
142
1040
0.0
1070
342
1005
0
1002
}
  0
LINE
  5
231
330
17
100
AcDbEntity
  8
0
100
AcDbLine
 10
59.0
 20
217.0
 30
0.0
 11
59.0
 21
252.0
 31
0.0
  0
DIMENSION
  5
232
330
17
100
AcDbEntity
  8
0
100
AcDbDimension
280
0
  2
*D31
  3
Standard
 10
55.0
 20
217.0
 30
0.0
 11
55.0
 21
234.5
 31
0.0
 70
32
 71
5
  1
<>
100
AcDbAlignedDimension
 13
59.0
 23
217.0
 33
0.0
 14
59.0
 24
252.0
 34
0.0
 50
90.0
100
AcDbRotatedDimension
1001
ACAD
1000
DSTYLE
1002
{
1070
41
1040
1.0
1070
173
1070
0
1070
142
1040
0.0
1070
342
1005
0
1002
}
  0
LINE
  5
242
330
17
100
AcDbEntity
  8
0
100
AcDbLine
 10
453.0
 20
213.0
 30
0.0
 11
453.0
 21
252.0
 31
0.0
  0
DIMENSION
  5
243
330
17
100
AcDbEntity
  8
0
100
AcDbDimension
280
0
  2
*D32
  3
Standard
 10
449.0
 20
213.0
 30
0.0
 11
449.0
 21
232.5
 31
0.0
 70
32
 71
5
  1
<>
100
AcDbAlignedDimension
 13
453.0
 23
213.0
 33
0.0
 14
453.0
 24
252.0
 34
0.0
 50
90.0
100
AcDbRotatedDimension
1001
ACAD
1000
DSTYLE
1002
{
1070
41
1040
1.0
1070
173
1070
0
1070
142
1040
0.0
1070
342
1005
0
1002
}
  0
LINE
  5
253
330
17
100
AcDbEntity
  8
0
100
AcDbLine
 10
352.0
 20
122.0
 30
0.0
 11
366.0
 21
122.0
 31
0.0
  0
DIMENSION
  5
254
330
17
100
AcDbEntity
  8
0
100
AcDbDimension
280
0
  2
*D33
  3
Standard
 10
352.0
 20
126.0
 30
0.0
 11
359.0
 21
126.0
 31
0.0
 70
32
 71
5
  1
<>
100
AcDbAlignedDimension
 13
352.0
 23
122.0
 33
0.0
 14
366.0
 24
122.0
 34
0.0
 50
0.0
100
AcDbRotatedDimension
1001
ACAD
1000
DSTYLE
1002
{
1070
41
1040
1.0
1070
173
1070
0
1070
142
1040
0.0
1070
342
1005
0
1002
}
  0
LINE
  5
264
330
17
100
AcDbEntity
  8
0
100
AcDbLine
 10
253.5
 20
72.5
 30
0.0
 11
260.5
 21
65.5
 31
0.0
  0
DIMENSION
  5
265
330
17
100
AcDbEntity
  8
0
100
AcDbDimension
280
0
  2
*D34
  3
Standard
 10
256.3284271247462
 20
75.32842712474621
 30
0.0
 11
259.8284271247462
 21
71.82842712474621
 31
0.0
 70
32
 71
5
  1
<>
100
AcDbAlignedDimension
 13
253.5
 23
72.5
 33
0.0
 14
260.5
 24
65.5
 34
0.0
 50
-45.0
100
AcDbRotatedDimension
1001
ACAD
1000
DSTYLE
1002
{
1070
41
1040
1.0
1070
173
1070
0
1070
142
1040
0.0
1070
342
1005
0
1002
}
  0
LINE
  5
275
330
17
100
AcDbEntity
  8
0
100
AcDbLine
 10
193.0
 20
79.0
 30
0.0
 11
200.13513513513513
 21
80.1891891891892
 31
0.0
  0
DIMENSION
  5
276
330
17
100
AcDbEntity
  8
0
100
AcDbDimension
280
0
  2
*D35
  3
Standard
 10
192.34240405077858
 20
82.94557569532857
 30
0.0
 11
195.90997161834616
 21
83.54017028992317
 31
0.0
 70
32
 71
5
  1
<>
100
AcDbAlignedDimension
 13
193.0
 23
79.0
 33
0.0
 14
200.13513513513513
 24
80.1891891891892
 34
0.0
 50
9.462322208025656
100
AcDbRotatedDimension
1001
ACAD
1000
DSTYLE
1002
{
1070
41
1040
1.0
1070
173
1070
0
1070
142
1040
0.0
1070
342
1005
0
1002
}
  0
CIRCLE
  5
286
330
17
100
AcDbEntity
  8
0
100
AcDbCircle
 10
403.0
 20
310.0
 30
0.0
 40
12.0
  0
DIMENSION
  5
287
330
17
100
AcDbEntity
  8
0
100
AcDbDimension
280
0
  2
*D36
  3
Standard
 10
403.0
 20
310.0
 30
0.0
 11
413.16465997955663
 21
320.16465997955663
 31
0.0
 70
36
 71
5
  1
<>
100
AcDbRadialDimension
 15
411.4852813742386
 25
318.4852813742386
 35
0.0
  0
CIRCLE
  5
292
330
17
100
AcDbEntity
  8
0
100
AcDbCircle
 10
404.0
 20
238.0
 30
0.0
 40
13.0
  0
DIMENSION
  5
293
330
17
100
AcDbEntity
  8
0
100
AcDbDimension
280
0
  2
*D37
  3
Standard
 10
404.0
 20
238.0
 30
0.0
 11
414.8717667607432
 21
248.87176676074316
 31
0.0
 70
36
 71
5
  1
<>
100
AcDbRadialDimension
 15
413.19238815542514
 25
247.1923881554251
 35
0.0
  0
CIRCLE
  5
29E
330
17
100
AcDbEntity
  8
0
100
AcDbCircle
 10
197.0
 20
249.0
 30
0.0
 40
25.0
  0
DIMENSION
  5
29F
330
17
100
AcDbEntity
  8
0
100
AcDbDimension
280
0
  2
*D38
  3
Standard
 10
197.0
 20
249.0
 30
0.0
 11
216.35704813498174
 21
268.35704813498177
 31
0.0
 70
36
 71
5
  1
<>
100
AcDbRadialDimension
 15
214.6776695296637
 25
266.6776695296637
 35
0.0
  0
CIRCLE
  5
2AA
330
17
100
AcDbEntity
  8
0
100
AcDbCircle
 10
197.0
 20
203.0
 30
0.0
 40
24.0
  0
DIMENSION
  5
2AB
330
17
100
AcDbEntity
  8
0
100
AcDbDimension
280
0
  2
*D39
  3
Standard
 10
197.0
 20
203.0
 30
0.0
 11
215.64994135379519
 21
221.64994135379519
 31
0.0
 70
36
 71
5
  1
<>
100
AcDbRadialDimension
 15
213.97056274847714
 25
219.97056274847714
 35
0.0
  0
CIRCLE
  5
2B6
330
17
100
AcDbEntity
  8
0
100
AcDbCircle
 10
182.0
 20
182.0
 30
0.0
 40
7.0
  0
DIMENSION
  5
2B7
330
17
100
AcDbEntity
  8
0
100
AcDbDimension
280
0
  2
*D40
  3
Standard
 10
182.0
 20
182.0
 30
0.0
 11
188.27557268303062
 21
188.27557268303062
 31
0.0
 70
36
 71
5
  1
<>
100
AcDbRadialDimension
 15
186.94974746830584
 25
186.94974746830584
 35
0.0
  0
CIRCLE
  5
2C2
330
17
100
AcDbEntity
  8
0
100
AcDbCircle
 10
403.0
 20
186.0
 30
0.0
 40
12.0
  0
DIMENSION
  5
2C3
330
17
100
AcDbEntity
  8
0
100
AcDbDimension
280
0
  2
*D41
  3
Standard
 10
403.0
 20
186.0
 30
0.0
 11
413.16465997955663
 21
196.16465997955663
 31
0.0
 70
36
 71
5
  1
<>
100
AcDbRadialDimension
 15
411.4852813742386
 25
194.48528137423858
 35
0.0
  0
CIRCLE
  5
2CE
330
17
100
AcDbEntity
  8
0
100
AcDbCircle
 10
229.0
 20
175.0
 30
0.0
 40
11.0
  0
DIMENSION
  5
2CF
330
17
100
AcDbEntity
  8
0
100
AcDbDimension
280
0
  2
*D42
  3
Standard
 10
229.0
 20
175.0
 30
0.0
 11
238.45755319837008
 21
184.45755319837008
 31
0.0
 70
36
 71
5
  1
<>
100
AcDbRadialDimension
 15
236.77817459305203
 25
182.77817459305203
 35
0.0
  0
ENDSEC
  0
SECTION
  2
OBJECTS
  0
DICTIONARY
  5
A
330
0
100
AcDbDictionary
280
0
281
1
  3
ACAD_COLOR
350
B
  3
ACAD_GROUP
350
C
  3
ACAD_LAYOUT
350
D
  3
ACAD_MATERIAL
350
E
  3
ACAD_MLEADERSTYLE
350
F
  3
ACAD_MLINESTYLE
350
10
  3
ACAD_PLOTSETTINGS
350
11
  3
ACAD_PLOTSTYLENAME
350
12
  3
ACAD_SCALELIST
350
14
  3
ACAD_TABLESTYLE
350
15
  3
ACAD_VISUALSTYLE
350
16
  3
EZDXF_META
350
2D
  0
DICTIONARY
  5
B
330
A
100
AcDbDictionary
280
0
281
1
  0
DICTIONARY
  5
C
330
A
100
AcDbDictionary
280
0
281
1
  0
DICTIONARY
  5
D
330
A
100
AcDbDictionary
280
0
281
1
  3
Model
350
1A
  3
Layout1
350
1E
  0
DICTIONARY
  5
E
330
A
100
AcDbDictionary
280
0
281
1
  3
ByBlock
350
1F
  3
ByLayer
350
20
  3
Global
350
21
  0
DICTIONARY
  5
F
330
A
100
AcDbDictionary
280
0
281
1
  3
Standard
350
2C
  0
DICTIONARY
  5
10
330
A
100
AcDbDictionary
280
0
281
1
  3
Standard
350
22
  0
DICTIONARY
  5
11
330
A
100
AcDbDictionary
280
0
281
1
  0
ACDBDICTIONARYWDFLT
  5
12
330
A
100
AcDbDictionary
280
0
281
1
  3
Normal
350
13
100
AcDbDictionaryWithDefault
340
13
  0
ACDBPLACEHOLDER
  5
13
330
12
  0
DICTIONARY
  5
14
330
A
100
AcDbDictionary
280
0
281
1
  0
DICTIONARY
  5
15
330
A
100
AcDbDictionary
280
0
281
1
  0
DICTIONARY
  5
16
330
A
100
AcDbDictionary
280
0
281
1
  0
LAYOUT
  5
1A
330
D
100
AcDbPlotSettings
  1

  2
Adobe PDF
  4
A3
  6

 40
7.5
 41
20.0
 42
7.5
 43
20.0
 44
420.0
 45
297.0
 46
0.0
 47
0.0
 48
0.0
 49
0.0
140
0.0
141
0.0
142
1.0
143
1.0
 70
1024
 72
1
 73
0
 74
5
  7

 75
16
 76
0
 77
2
 78
300
147
1.0
148
0.0
149
0.0
100
AcDbLayout
  1
Model
 70
1
 71
0
 10
0.0
 20
0.0
 11
420.0
 21
297.0
 12
0.0
 22
0.0
 32
0.0
 14
1e+20
 24
1e+20
 34
1e+20
 15
-1e+20
 25
-1e+20
 35
-1e+20
146
0.0
 13
0.0
 23
0.0
 33
0.0
 16
1.0
 26
0.0
 36
0.0
 17
0.0
 27
1.0
 37
0.0
 76
1
330
17
  0
LAYOUT
  5
1E
330
D
100
AcDbPlotSettings
  1

  2
Adobe PDF
  4
A3
  6

 40
7.5
 41
20.0
 42
7.5
 43
20.0
 44
420.0
 45
297.0
 46
0.0
 47
0.0
 48
0.0
 49
0.0
140
0.0
141
0.0
142
1.0
143
1.0
 70
0
 72
1
 73
0
 74
5
  7

 75
16
 76
0
 77
2
 78
300
147
1.0
148
0.0
149
0.0
100
AcDbLayout
  1
Layout1
 70
1
 71
1
 10
0.0
 20
0.0
 11
420.0
 21
297.0
 12
0.0
 22
0.0
 32
0.0
 14
1e+20
 24
1e+20
 34
1e+20
 15
-1e+20
 25
-1e+20
 35
-1e+20
146
0.0
 13
0.0
 23
0.0
 33
0.0
 16
1.0
 26
0.0
 36
0.0
 17
0.0
 27
1.0
 37
0.0
 76
1
330
1B
  0
MATERIAL
  5
1F
102
{ACAD_REACTORS
330
E
102
}
330
E
100
AcDbMaterial
  1
ByBlock
  2

 70
0
 40
1.0
 71
1
 41
1.0
 91
-1023410177
 42
1.0
 72
1
  3

 73
1
 74
1
 75
1
 44
0.5
 73
0
 45
1.0
 46
1.0
 77
1
  4

 78
1
 79
1
170
1
 48
1.0
171
1
  6

172
1
173
1
174
1
140
1.0
141
1.0
175
1
  7

176
1
177
1
178
1
143
1.0
179
1
  8

270
1
271
1
272
1
145
1.0
146
1.0
273
1
  9

274
1
275
1
276
1
 42
1.0
 72
1
  3

 73
1
 74
1
 75
1
 94
63
  0
MATERIAL
  5
20
102
{ACAD_REACTORS
330
E
102
}
330
E
100
AcDbMaterial
  1
ByLayer
  2

 70
0
 40
1.0
 71
1
 41
1.0
 91
-1023410177
 42
1.0
 72
1
  3

 73
1
 74
1
 75
1
 44
0.5
 73
0
 45
1.0
 46
1.0
 77
1
  4

 78
1
 79
1
170
1
 48
1.0
171
1
  6

172
1
173
1
174
1
140
1.0
141
1.0
175
1
  7

176
1
177
1
178
1
143
1.0
179
1
  8

270
1
271
1
272
1
145
1.0
146
1.0
273
1
  9

274
1
275
1
276
1
 42
1.0
 72
1
  3

 73
1
 74
1
 75
1
 94
63
  0
MATERIAL
  5
21
102
{ACAD_REACTORS
330
E
102
}
330
E
100
AcDbMaterial
  1
Global
  2

 70
0
 40
1.0
 71
1
 41
1.0
 91
-1023410177
 42
1.0
 72
1
  3

 73
1
 74
1
 75
1
 44
0.5
 73
0
 45
1.0
 46
1.0
 77
1
  4

 78
1
 79
1
170
1
 48
1.0
171
1
  6

172
1
173
1
174
1
140
1.0
141
1.0
175
1
  7

176
1
177
1
178
1
143
1.0
179
1
  8

270
1
271
1
272
1
145
1.0
146
1.0
273
1
  9

274
1
275
1
276
1
 42
1.0
 72
1
  3

 73
1
 74
1
 75
1
 94
63
  0
MLINESTYLE
  5
22
102
{ACAD_REACTORS
330
10
102
}
330
10
100
AcDbMlineStyle
  2
Standard
 70
0
  3

 62
256
 51
90.0
 52
90.0
 71
2
 49
0.5
 62
256
  6
BYLAYER
 49
-0.5
 62
256
  6
BYLAYER
  0
MLEADERSTYLE
  5
2C
102
{ACAD_REACTORS
330
F
102
}
330
F
100
AcDbMLeaderStyle
179
2
170
2
171
1
172
0
 90
2
 40
0.0
 41
0.0
173
1
 91
-1056964608
 92
-2
290
1
 42
2.0
291
1
 43
8.0
  3
Standard
 44
4.0
300

342
29
174
1
175
1
176
0
178
1
 93
-1056964608
 45
4.0
292
0
297
0
 46
4.0
 94
-1056964608
 47
1.0
 49
1.0
140
1.0
294
1
141
0.0
177
0
142
1.0
295
0
296
0
143
3.75
271
0
272
9
273
9
  0
DICTIONARY
  5
2D
330
A
100
AcDbDictionary
281
1
  3
CREATED_BY_EZDXF
350
2E
  3
WRITTEN_BY_EZDXF
350
2DC
  0
DICTIONARYVAR
  5
2E
330
2D
100
DictionaryVariables
280
0
  1
1.0.3 @ 2023-10-05T10:19:04.957805+00:00
  0
DICTIONARYVAR
  5
2DC
330
2D
100
DictionaryVariables
280
0
  1
1.0.3 @ 2023-10-05T10:19:05.016264+00:00
  0
ENDSEC
  0
EOF
